<svg width="206" height="315" viewBox="0 0 206 315" fill="none" xmlns="http://www.w3.org/2000/svg">
<path d="M310.068 152.652C295.276 152.632 288.981 138.591 275.781 125.835C280.852 108.172 279.275 92.8813 292.098 85.4727C294.451 84.113 295.257 81.1027 293.897 78.7488C292.538 76.3955 289.528 75.5902 287.174 76.9486C287.174 76.9486 287.174 76.9486 287.173 76.9492C274.474 84.3572 261.803 75.3311 244.126 70.9144C239.796 53.542 230.654 40.2917 238.113 27.8603V27.8597C239.474 25.5064 238.669 22.496 236.315 21.1358C233.96 19.7742 230.951 20.5814 229.591 22.9335C229.591 22.9335 229.591 22.9335 229.59 22.9341C221.83 35.8669 207.207 34.0828 189.219 39.2341C176.47 26.025 162.423 19.7256 162.423 4.92188C162.423 2.20377 160.22 0 157.501 0C154.783 0 152.58 2.20377 152.58 4.92188C152.58 19.709 138.57 26.009 125.83 39.191C108.21 34.1381 92.9252 35.6787 85.5375 22.8701C84.1797 20.5156 81.1706 19.7072 78.8155 21.065C76.461 22.4228 75.6519 25.4326 77.0097 27.7871C77.0097 27.7877 77.0097 27.7877 77.0104 27.7883C77.011 27.7901 77.0116 27.7908 77.0122 27.792C84.4012 40.6159 75.388 53.0898 70.9454 70.8996C53.13 75.3361 40.6605 84.3419 27.8488 76.9603C25.2175 75.5249 22.3757 76.5505 21.1052 78.7494C19.7456 81.1033 20.5522 84.1136 22.906 85.4733C35.7035 92.8647 34.1611 108.153 39.2054 125.771C26.0013 138.526 19.7136 152.504 4.94243 152.504C-1.35327 152.504 -1.73779 161.997 4.67603 162.335C20.9071 163.235 24.9148 175.338 39.2233 189.165C34.1593 206.803 35.7214 222.124 22.9067 229.527C20.5534 230.887 19.7468 233.897 21.1071 236.251C22.4661 238.605 25.4771 239.411 27.8304 238.051C27.8304 238.051 27.8304 238.051 27.831 238.051C40.5503 230.631 53.2106 239.671 70.8777 244.086C75.2176 261.496 84.3501 274.708 76.891 287.14V287.14C75.5301 289.494 76.3354 292.504 78.6887 293.864C81.0414 295.225 84.0523 294.42 85.4132 292.067C85.4132 292.067 85.4132 292.067 85.4138 292.066C93.1738 279.133 107.797 280.917 125.785 275.766C138.534 288.975 152.581 295.274 152.581 310.078C152.581 312.796 154.785 315 157.503 315C160.221 315 162.425 312.796 162.425 310.078C162.425 295.291 176.434 288.991 189.174 275.809C206.795 280.862 222.079 279.321 229.467 292.13C230.821 294.478 233.829 295.295 236.189 293.935C238.543 292.577 239.352 289.567 237.994 287.213C237.994 287.212 237.994 287.212 237.994 287.212C237.993 287.21 237.993 287.209 237.992 287.208C230.603 274.384 239.616 261.91 244.059 244.1C261.28 239.812 274.976 230.544 287.174 238.051C287.174 238.051 287.174 238.051 287.175 238.051C289.53 239.41 292.539 238.604 293.898 236.251C295.258 233.898 294.453 230.888 292.099 229.527C289.346 227.937 287.18 225.979 285.475 223.542C282.987 219.986 277.464 221.187 276.618 225.39C254.509 225.485 235.826 246.662 204.059 229.786C200.856 228.085 196.961 230.323 196.832 233.958C195.581 269.077 169.104 275.254 157.502 293.357C145.859 275.189 119.428 269.134 118.174 233.958C118.043 230.321 114.147 228.087 110.947 229.786C79.913 246.262 61.3004 226.423 39.8465 225.428C49.6497 206.471 41.9605 180.221 71.6283 161.673C74.7162 159.743 74.702 155.249 71.6295 153.327C41.7457 134.639 49.7789 108.783 39.8477 89.5732C61.1705 88.5845 80.0508 68.8023 110.946 85.2137C114.143 86.9111 118.043 84.6833 118.174 81.0424C119.426 45.8706 145.857 39.8155 157.503 21.6433C169.183 39.8678 195.576 45.8393 196.832 81.0424C196.962 84.679 200.859 86.9129 204.058 85.2143C235.138 68.7143 253.647 88.5741 275.159 89.572C265.356 108.529 273.045 134.779 243.377 153.327C240.289 155.257 240.303 159.751 243.376 161.673C254.357 168.54 261.775 177.164 265.74 189.956C267.181 194.617 273.846 194.552 275.177 189.832C288.711 177.028 295.032 162.496 310.062 162.496C316.511 162.496 316.674 152.652 310.068 152.652ZM206.063 241.607C215.095 245.328 224.001 246.734 233.338 245.93C230.25 256.133 225.836 265.367 225.376 275.185C216.664 270.674 206.533 269.877 196.13 267.444C201.516 259.748 204.764 251.314 206.063 241.607ZM108.941 241.605C110.236 251.292 113.473 259.711 118.839 267.396C108.431 269.826 98.2458 270.618 89.5181 275.126C89.0677 265.333 84.6793 256.113 81.5976 245.924C90.9596 246.739 99.8872 245.334 108.941 241.605ZM60.3867 157.499C52.6434 163.462 46.9709 170.473 42.9977 178.966C35.7158 171.194 29.9185 162.746 21.6411 157.438C29.9068 152.148 35.6617 143.774 42.9719 135.979C46.9445 144.493 52.6249 151.522 60.3867 157.499ZM108.941 73.3932C99.9082 69.671 91.002 68.2658 81.6652 69.0699C84.7494 58.8835 89.1686 49.6303 89.6276 39.8149C98.3399 44.3258 108.471 45.1231 118.874 47.5564C113.488 55.2523 110.239 63.686 108.941 73.3932ZM206.063 73.395C204.767 63.7075 201.53 55.2893 196.165 47.6038C206.573 45.1742 216.758 44.3824 225.485 39.874C225.936 49.6679 230.325 58.889 233.406 69.0754C224.044 68.2615 215.116 69.6661 206.063 73.395ZM272.032 179.021C268.059 170.507 262.379 163.477 254.617 157.501C262.36 151.538 268.033 144.527 272.006 136.034C279.288 143.806 285.085 152.254 293.362 157.562C285.096 162.852 279.342 171.226 272.032 179.021Z" fill="#B29702" fill-opacity="0.5"/>
<path d="M190.514 185.59C192.436 183.667 192.436 180.552 190.514 178.629C188.591 176.708 185.475 176.708 183.553 178.629L181.301 180.881C170.063 192.12 177.927 211.641 194.042 211.641H198.626C205.495 211.641 211.67 207.824 214.742 201.68C222.496 186.172 223.241 168.801 215.417 150.532C208.661 134.765 186.894 133.398 178.133 148.001C172.796 156.896 163.037 162.422 152.663 162.422H148.411C156.67 156.856 160.179 146.022 156.4 136.573C153.114 128.356 145.272 123.047 136.423 123.047H103.361C100.643 123.047 98.4395 125.251 98.4395 127.969C98.4395 130.687 100.643 132.891 103.361 132.891H136.423C148.718 132.891 152.599 149.527 141.642 155.005L125.769 162.941C121.14 165.256 122.797 172.266 127.97 172.266H137.228C143.707 172.266 149.183 176.904 150.248 183.296C151.261 189.369 147.846 195.436 142.13 197.723C136.172 200.105 129.611 200.106 123.655 197.723C109.947 192.239 105.301 182.338 99.8477 173.249C98.4493 170.918 95.4267 170.163 93.0943 171.561C90.7638 172.959 90.0077 175.983 91.4061 178.314C97.3948 188.296 103.214 200.148 119.999 206.863C128.313 210.189 137.471 210.189 145.787 206.863C159.345 201.439 164.754 184.434 156.029 172.115C168.558 171.028 180.049 163.941 186.574 153.065C191.232 145.3 202.785 146.049 206.369 154.41C213.044 169.994 212.402 184.349 205.938 197.278C204.544 200.066 201.743 201.797 198.626 201.797C193.984 201.797 190.059 202.384 187.24 198.157C185.086 194.926 185.515 190.588 188.261 187.842L190.514 185.59Z" fill="#B29702" fill-opacity="0.5"/>
<path d="M138.892 100.284C137.194 102.407 137.539 105.505 139.661 107.203L158.572 122.332C171.012 132.283 189.584 128.67 197.261 114.497L200.501 108.516C201.796 106.126 200.908 103.139 198.518 101.844C196.128 100.549 193.141 101.437 191.846 103.828L188.606 109.808C183.866 118.559 172.399 120.789 164.722 114.645L145.811 99.5161C143.688 97.8192 140.591 98.1625 138.892 100.284Z" fill="#B29702" fill-opacity="0.5"/>
<path d="M172.267 103.359C174.985 103.359 177.189 101.156 177.189 98.4375C177.189 95.7194 174.985 93.5156 172.267 93.5156H167.345C164.627 93.5156 162.423 95.7194 162.423 98.4375C162.423 101.156 164.627 103.359 167.345 103.359H172.267Z" fill="#B29702" fill-opacity="0.5"/>
</svg>
