<svg width="154" height="40" viewBox="0 0 154 40" fill="none" xmlns="http://www.w3.org/2000/svg">
<path d="M29.9 1.02C18.14 -0.780002 3.86 12.9 0.8 25.38C-1.54 35.1 4.1 39.42 11.42 39.48C19.16 39.6 29.12 35.88 35.36 27.3C35.66 26.82 34.94 26.16 34.52 26.76C28.94 34.62 18.56 38.22 11.42 37.98C5.06 37.92 1.16 34.32 3.74 26.46C8.12 12.72 23.54 1.5 29.84 2.46C33.14 3 32.9 6.36 31.46 9.12C28.52 14.76 22.7 18.12 16.46 18.66C14.84 18.78 14.24 20.7 16.16 20.52C22.16 19.98 34.46 12.96 34.7 6C34.76 3.6 33.2 1.5 29.9 1.02ZM36.5094 36.66C41.3094 36.66 47.0094 28.26 48.0294 27.78C47.2494 29.88 46.5294 33.48 47.0694 35.1C48.2694 38.7 52.7094 37.26 54.6294 35.82C57.6294 33.66 61.3494 29.7 62.4294 27.6C62.7294 27.06 62.0094 26.7 61.7094 27.12C59.2494 30.6 54.7494 34.38 52.7694 35.46C50.8494 36.48 49.6494 35.1 50.0094 32.52C50.2494 30.6 51.4494 26.88 53.6094 23.82C54.1494 22.86 51.8094 22.38 51.2094 22.38C50.6694 22.38 46.1094 27.42 45.2694 28.32C43.7094 30 41.0094 32.28 39.4494 33.6C38.6094 34.26 35.6694 36.42 34.8294 35.22C32.9694 32.58 37.9494 26.88 39.6294 25.32C42.7494 22.56 46.9494 20.16 50.0694 20.16C51.2094 20.16 52.4094 20.28 53.0694 21.3C53.3694 21.42 53.4294 21.42 53.4294 21C53.4294 20.4 53.0094 19.8 52.4094 19.38C50.8494 18.3 48.2094 18.42 46.4094 18.9C41.9094 19.98 28.2294 28.98 32.6694 34.62C33.5694 35.82 35.2494 36.66 36.5094 36.66ZM66.4512 21.78C67.8313 19.08 69.3913 16.02 70.0513 14.82C72.6313 10.2 75.6913 5.88 79.3513 3.06C81.9913 1.08 83.3713 2.46 81.7513 5.4C78.5713 11.52 70.6513 21.9 64.7713 25.92C65.2513 24.6 65.7913 23.16 66.4512 21.78ZM63.8713 28.32C71.3713 22.08 78.4513 15.06 83.3713 6.48C85.5313 2.58 83.5513 0.48 80.8513 0.48C76.7713 0.48 74.0713 4.08 71.7913 7.02C67.8913 12.18 60.6313 26.52 60.2713 32.52C60.1513 35.28 61.2313 37.32 64.8313 37.32C65.9713 37.32 67.3512 36.9 68.5513 36C71.5513 33.78 75.3313 29.82 76.5313 27.72C76.8913 27.06 76.1712 26.7 75.8713 27.12C73.8313 30 69.3913 34.02 67.0513 35.28C63.5713 37.26 62.7313 34.02 63.0913 31.08C63.1513 30.48 63.4513 29.52 63.8713 28.32ZM80.5723 21.78C81.9523 19.08 83.5123 16.02 84.1723 14.82C86.7523 10.2 89.8123 5.88 93.4723 3.06C96.1123 1.08 97.4923 2.46 95.8723 5.4C92.6923 11.52 84.7723 21.9 78.8923 25.92C79.3723 24.6 79.9123 23.16 80.5723 21.78ZM77.9923 28.32C85.4923 22.08 92.5723 15.06 97.4923 6.48C99.6523 2.58 97.6723 0.48 94.9723 0.48C90.8923 0.48 88.1923 4.08 85.9123 7.02C82.0123 12.18 74.7523 26.52 74.3923 32.52C74.2723 35.28 75.3523 37.32 78.9523 37.32C80.0923 37.32 81.4723 36.9 82.6723 36C85.6723 33.78 89.4523 29.82 90.6523 27.72C91.0123 27.06 90.2923 26.7 89.9923 27.12C87.9523 30 83.5123 34.02 81.1723 35.28C77.6923 37.26 76.8523 34.02 77.2123 31.08C77.2723 30.48 77.5723 29.52 77.9923 28.32ZM92.1734 36.66C96.9734 36.66 102.673 28.26 103.693 27.78C102.913 29.88 102.193 33.48 102.733 35.1C103.933 38.7 108.373 37.26 110.293 35.82C113.293 33.66 117.013 29.7 118.093 27.6C118.393 27.06 117.673 26.7 117.373 27.12C114.913 30.6 110.413 34.38 108.433 35.46C106.513 36.48 105.313 35.1 105.673 32.52C105.913 30.6 107.113 26.88 109.273 23.82C109.813 22.86 107.473 22.38 106.873 22.38C106.333 22.38 101.773 27.42 100.933 28.32C99.3734 30 96.6734 32.28 95.1134 33.6C94.2734 34.26 91.3334 36.42 90.4934 35.22C88.6334 32.58 93.6134 26.88 95.2934 25.32C98.4134 22.56 102.613 20.16 105.733 20.16C106.873 20.16 108.073 20.28 108.733 21.3C109.033 21.42 109.093 21.42 109.093 21C109.093 20.4 108.673 19.8 108.073 19.38C106.513 18.3 103.873 18.42 102.073 18.9C97.5734 19.98 83.8934 28.98 88.3334 34.62C89.2334 35.82 90.9134 36.66 92.1734 36.66ZM119.115 26.4C117.615 30.72 115.695 36.3 115.335 37.08C114.735 38.22 117.915 36.78 118.515 36.48C119.655 35.82 124.695 27.9 128.115 24.78C132.495 21 133.035 22.26 131.955 24.18C131.415 25.2 129.555 28.8 128.355 31.68C127.455 33.96 130.635 33.42 131.355 31.68C133.155 29.82 136.755 25.62 140.415 24.18C139.815 25.08 139.155 26.7 138.735 27.78C137.895 29.88 137.235 33.48 137.715 35.1C138.915 38.7 143.355 37.26 145.335 35.82C148.335 33.66 151.995 29.7 153.135 27.6C153.435 27.06 152.655 26.7 152.355 27.12C149.895 30.6 145.395 34.38 143.415 35.46C141.495 36.48 140.295 35.1 140.655 32.52C140.895 30.6 142.335 26.46 144.435 23.28C146.055 20.82 141.855 22.26 141.195 22.5C138.495 23.52 135.015 26.4 132.915 28.32C133.455 27.36 134.595 24.72 135.195 23.58C137.715 18.6 134.955 17.58 131.055 20.58C127.755 23.16 122.535 28.8 120.015 31.92C120.735 30 122.655 24.66 124.155 21.36C124.635 20.4 124.695 19.86 123.735 19.62C121.035 18.9 120.795 21 120.615 22.02C119.595 24 119.115 24.78 116.655 28.02C116.115 28.8 116.115 30.18 116.715 29.52C117.435 28.8 118.335 27.6 119.115 26.4Z" fill="#212121"/>
</svg>
