<svg width="241" height="61" viewBox="0 0 241 61" fill="none" xmlns="http://www.w3.org/2000/svg">
<path d="M26.0369 4.06154C26.0369 2.33846 25.1217 1.47692 23.2912 1.47692C21.709 1.47692 19.6458 2.21538 17.1018 3.69231C14.5888 5.16923 11.9982 7.43077 9.33012 10.4769C6.662 13.4923 4.80052 16.6615 3.74568 19.9846C3.31134 21.3077 3.09416 22.5385 3.09416 23.6769C3.09416 24.7846 3.41992 25.7538 4.07144 26.5846C5.21935 28.0615 7.09635 28.8154 9.70242 28.8462C9.88857 28.8462 10.0592 28.8462 10.2143 28.8462C13.0996 28.8462 16.2176 28.1231 19.5683 26.6769C22.9189 25.2 25.6026 23.0462 27.6192 20.2154C27.7743 20 27.9294 19.9538 28.0845 20.0769C28.2707 20.2 28.3638 20.3077 28.3638 20.4C28.3638 20.4923 28.3327 20.5692 28.2707 20.6308C25.9749 23.7385 23.1516 26.0769 19.8009 27.6462C16.4503 29.2154 13.2082 30 10.0747 30C6.7861 30 4.30413 29.0769 2.62879 27.2308C1.54293 26.0308 1 24.4615 1 22.5231C1 19.2615 2.24099 15.7538 4.72296 12C8.10465 6.89231 12.1999 3.35385 17.0087 1.38461C18.8702 0.646153 20.6541 0.276922 22.3605 0.276922C24.4702 0.276922 25.9749 0.76923 26.8746 1.75385C27.464 2.43077 27.7588 3.21538 27.7588 4.10769C27.7588 5.8 26.8591 7.53846 25.0596 9.32308C23.2602 11.1077 21.2591 12.5385 19.0564 13.6154C16.8846 14.6615 14.9921 15.2615 13.3788 15.4154C12.7273 15.4769 12.4171 15.3077 12.4481 14.9077C12.4791 14.3538 12.8669 14.0462 13.6115 13.9846C16.0935 13.7692 18.3738 13.0308 20.4525 11.7692C22.5311 10.4769 24.1289 8.76923 25.2458 6.64615C25.7732 5.81538 26.0369 4.95385 26.0369 4.06154Z" fill="#212121"/>
<path d="M29.1622 27.8308C28.6658 27.8308 28.1228 27.6769 27.5334 27.3692C26.9749 27.0923 26.494 26.6923 26.0907 26.1692C25.6874 25.6154 25.4857 25.0308 25.4857 24.4154C25.4857 23.8 25.6253 23.2154 25.9046 22.6615C26.5251 21.3692 27.5178 20.1231 28.8829 18.9231C30.279 17.6923 31.7217 16.6462 33.2109 15.7846C34.7001 14.9231 35.879 14.3846 36.7477 14.1692C37.6164 13.9538 38.454 13.8462 39.2607 13.8462C40.0983 13.8462 40.8119 14.0615 41.4014 14.4923C41.9908 14.8923 42.2856 15.3231 42.2856 15.7846C42.2856 15.9385 42.2701 16.0308 42.239 16.0615C42.208 16.0923 42.1305 16.0769 42.0064 16.0154C41.6341 15.4308 40.8584 15.1385 39.6795 15.1385C38.5316 15.1385 37.2131 15.5231 35.7239 16.2923C34.2657 17.0308 32.8851 17.9692 31.5821 19.1077C30.4962 20.1231 29.5344 21.2769 28.6968 22.5692C27.8901 23.8308 27.4868 24.7538 27.4868 25.3385C27.4868 26.4769 27.8126 27.0462 28.4641 27.0462C29.1156 27.0462 30.1084 26.5231 31.4425 25.4769C33.6452 23.6308 35.1499 22.2769 35.9566 21.4154C38.8108 18.3692 40.3465 16.8462 40.5637 16.8462C40.936 16.8462 41.3859 16.9538 41.9133 17.1692C42.4407 17.3846 42.6113 17.6462 42.4252 17.9538C40.8429 20.1692 39.9122 22.4 39.633 24.6462C39.6019 24.9231 39.5864 25.2769 39.5864 25.7077C39.5864 26.1385 39.7105 26.4923 39.9587 26.7692C40.4241 27.2615 41.0601 27.2923 41.8668 26.8615C42.6734 26.4308 43.7903 25.5692 45.2174 24.2769C46.6756 22.9846 47.839 21.7231 48.7077 20.4923C48.8318 20.3385 48.9714 20.3077 49.1265 20.4C49.2816 20.4615 49.3592 20.5231 49.3592 20.5846C49.3592 21.0462 48.6146 22.0615 47.1254 23.6308C45.6673 25.1692 44.5504 26.2154 43.7748 26.7692C42.3166 27.8462 40.967 28.3846 39.726 28.3846C38.5471 28.3846 37.756 27.8 37.3527 26.6308C37.2596 26.2615 37.2131 25.8462 37.2131 25.3846C37.2131 24 37.5078 22.5385 38.0973 21C37.9732 21.0615 37.3992 21.6769 36.3754 22.8462C35.3516 24.0154 34.1571 25.1385 32.792 26.2154C31.458 27.2923 30.248 27.8308 29.1622 27.8308Z" fill="#212121"/>
<path d="M64.2525 3.78461C64.6248 3.10769 64.8109 2.58462 64.8109 2.21538C64.8109 1.56923 64.5472 1.24615 64.0198 1.24615C63.5855 1.24615 63.0425 1.49231 62.391 1.98461C59.909 3.89231 57.5046 6.90769 55.1778 11.0308C53.3163 14.3538 51.9512 17.2 51.0825 19.5692C53.2232 18.1231 55.6121 15.7692 58.2492 12.5077C60.9173 9.24615 62.9184 6.33846 64.2525 3.78461ZM50.3845 21.4154C50.0122 22.4615 49.8105 23.1692 49.7795 23.5385C49.7485 23.8769 49.733 24.3538 49.733 24.9692C49.733 25.5538 49.8881 26.0923 50.1983 26.5846C50.7257 27.4154 51.6099 27.4769 52.8509 26.7692C53.7817 26.2769 54.9606 25.3846 56.3877 24.0923C57.8149 22.7692 58.9163 21.5692 59.6919 20.4923C59.7539 20.4 59.847 20.3538 59.9711 20.3538C60.2503 20.3538 60.3279 20.5538 60.2038 20.9538C59.7384 21.7846 58.8697 22.8462 57.5977 24.1385C56.3567 25.4308 55.2243 26.4615 54.2005 27.2308C53.1767 27.9692 52.1529 28.3385 51.1291 28.3385C48.7712 28.3385 47.5923 27.2 47.5923 24.9231C47.5923 24.8308 47.5923 24.7385 47.5923 24.6462C47.7164 22.4923 48.8177 19.2462 50.8964 14.9077C52.975 10.5385 54.852 7.24615 56.5274 5.03077L57.97 3.23077C58.3113 2.83077 58.8077 2.33846 59.4592 1.75385C60.7002 0.584615 61.9722 0 63.2752 0C64.6093 0 65.509 0.4 65.9744 1.2C66.1295 1.47692 66.2071 1.87692 66.2071 2.4C66.2071 2.92308 65.9744 3.66154 65.509 4.61538C62.3135 10.1231 57.2719 15.7231 50.3845 21.4154Z" fill="#212121"/>
<path d="M75.2051 3.78461C75.5773 3.10769 75.7635 2.58462 75.7635 2.21538C75.7635 1.56923 75.4998 1.24615 74.9724 1.24615C74.538 1.24615 73.9951 1.49231 73.3436 1.98461C70.8616 3.89231 68.4572 6.90769 66.1303 11.0308C64.2689 14.3538 62.9038 17.2 62.0351 19.5692C64.1758 18.1231 66.5647 15.7692 69.2018 12.5077C71.8699 9.24615 73.871 6.33846 75.2051 3.78461ZM61.337 21.4154C60.9647 22.4615 60.7631 23.1692 60.732 23.5385C60.701 23.8769 60.6855 24.3538 60.6855 24.9692C60.6855 25.5538 60.8406 26.0923 61.1509 26.5846C61.6783 27.4154 62.5625 27.4769 63.8035 26.7692C64.7342 26.2769 65.9132 25.3846 67.3403 24.0923C68.7674 22.7692 69.8688 21.5692 70.6444 20.4923C70.7065 20.4 70.7995 20.3538 70.9236 20.3538C71.2029 20.3538 71.2804 20.5538 71.1563 20.9538C70.691 21.7846 69.8223 22.8462 68.5503 24.1385C67.3093 25.4308 66.1769 26.4615 65.1531 27.2308C64.1292 27.9692 63.1054 28.3385 62.0816 28.3385C59.7237 28.3385 58.5448 27.2 58.5448 24.9231C58.5448 24.8308 58.5448 24.7385 58.5448 24.6462C58.6689 22.4923 59.7703 19.2462 61.8489 14.9077C63.9276 10.5385 65.8046 7.24615 67.4799 5.03077L68.9226 3.23077C69.2638 2.83077 69.7602 2.33846 70.4117 1.75385C71.6527 0.584615 72.9247 0 74.2278 0C75.5618 0 76.4615 0.4 76.9269 1.2C77.082 1.47692 77.1596 1.87692 77.1596 2.4C77.1596 2.92308 76.9269 3.66154 76.4615 4.61538C73.266 10.1231 68.2245 15.7231 61.337 21.4154Z" fill="#212121"/>
<path d="M72.3361 27.8308C71.8397 27.8308 71.2968 27.6769 70.7073 27.3692C70.1489 27.0923 69.668 26.6923 69.2647 26.1692C68.8614 25.6154 68.6597 25.0308 68.6597 24.4154C68.6597 23.8 68.7993 23.2154 69.0785 22.6615C69.699 21.3692 70.6918 20.1231 72.0569 18.9231C73.453 17.6923 74.8957 16.6462 76.3848 15.7846C77.874 14.9231 79.053 14.3846 79.9216 14.1692C80.7903 13.9538 81.628 13.8462 82.4346 13.8462C83.2723 13.8462 83.9859 14.0615 84.5753 14.4923C85.1648 14.8923 85.4595 15.3231 85.4595 15.7846C85.4595 15.9385 85.444 16.0308 85.413 16.0615C85.382 16.0923 85.3044 16.0769 85.1803 16.0154C84.808 15.4308 84.0324 15.1385 82.8535 15.1385C81.7056 15.1385 80.387 15.5231 78.8978 16.2923C77.4397 17.0308 76.0591 17.9692 74.756 19.1077C73.6702 20.1231 72.7084 21.2769 71.8707 22.5692C71.0641 23.8308 70.6608 24.7538 70.6608 25.3385C70.6608 26.4769 70.9865 27.0462 71.6381 27.0462C72.2896 27.0462 73.2824 26.5231 74.6164 25.4769C76.8192 23.6308 78.3239 22.2769 79.1305 21.4154C81.9848 18.3692 83.5205 16.8462 83.7377 16.8462C84.11 16.8462 84.5598 16.9538 85.0873 17.1692C85.6147 17.3846 85.7853 17.6462 85.5992 17.9538C84.0169 20.1692 83.0862 22.4 82.8069 24.6462C82.7759 24.9231 82.7604 25.2769 82.7604 25.7077C82.7604 26.1385 82.8845 26.4923 83.1327 26.7692C83.5981 27.2615 84.2341 27.2923 85.0407 26.8615C85.8474 26.4308 86.9642 25.5692 88.3914 24.2769C89.8495 22.9846 91.013 21.7231 91.8817 20.4923C92.0058 20.3385 92.1454 20.3077 92.3005 20.4C92.4556 20.4615 92.5332 20.5231 92.5332 20.5846C92.5332 21.0462 91.7886 22.0615 90.2994 23.6308C88.8412 25.1692 87.7244 26.2154 86.9487 26.7692C85.4906 27.8462 84.141 28.3846 82.9 28.3846C81.7211 28.3846 80.9299 27.8 80.5266 26.6308C80.4336 26.2615 80.387 25.8462 80.387 25.3846C80.387 24 80.6818 22.5385 81.2712 21C81.1471 21.0615 80.5732 21.6769 79.5493 22.8462C78.5255 24.0154 77.3311 25.1385 75.966 26.2154C74.6319 27.2923 73.422 27.8308 72.3361 27.8308Z" fill="#212121"/>
<path d="M97.3745 15.3231C97.3745 15.5385 97.2038 16.0154 96.8626 16.7538C96.5213 17.4615 95.544 19.9385 93.9307 24.1846C95.0476 22.8308 96.4592 21.2615 98.1656 19.4769C101.609 15.9077 103.983 14.1231 105.286 14.1231C105.565 14.1231 105.829 14.2 106.077 14.3538C106.356 14.5077 106.496 14.8615 106.496 15.4154C106.496 15.9385 106.325 16.5385 105.984 17.2154C105.643 17.8615 105.255 18.6615 104.82 19.6154C104.386 20.5692 104.091 21.1692 103.936 21.4154C106.542 19.0769 108.512 17.6615 109.846 17.1692C111.18 16.6462 112.065 16.3846 112.499 16.3846C112.933 16.3846 113.151 16.5385 113.151 16.8462C113.151 17.0308 112.918 17.4769 112.452 18.1846C111.987 18.8923 111.475 19.9385 110.917 21.3231C110.358 22.7077 110.048 23.6769 109.986 24.2308C109.924 24.7846 109.893 25.2769 109.893 25.7077C109.893 26.1385 110.017 26.4923 110.265 26.7692C110.731 27.2615 111.367 27.2923 112.173 26.8615C112.98 26.4308 114.097 25.5692 115.524 24.2769C116.982 22.9846 118.145 21.7231 119.014 20.4923C119.138 20.3385 119.278 20.3077 119.433 20.4C119.619 20.4615 119.712 20.5385 119.712 20.6308C119.712 20.6923 119.681 20.7692 119.619 20.8615C119.154 21.6923 118.316 22.7538 117.106 24.0462C115.121 26.1692 113.461 27.4769 112.127 27.9692C110.669 28.4615 109.614 28.5231 108.962 28.1538C108.311 27.7846 107.907 27.3692 107.752 26.9077C107.597 26.4462 107.52 25.9846 107.52 25.5231C107.52 24.0769 107.799 22.6308 108.357 21.1846C108.947 19.7385 109.412 18.7538 109.753 18.2308C108.574 18.7231 107.566 19.3385 106.728 20.0769C105.456 21.1846 104.433 22.1538 103.657 22.9846L102.726 24C102.447 24.6769 101.951 25.0615 101.237 25.1538C100.555 25.2462 100.229 25.0154 100.26 24.4615C100.322 23.8769 100.896 22.5692 101.982 20.5385C103.067 18.5077 103.61 17.3846 103.61 17.1692C103.61 16.9231 103.486 16.8 103.238 16.8C102.68 16.8 101.671 17.4308 100.213 18.6923C99.2515 19.5846 97.8243 21.2769 95.9318 23.7692C94.0703 26.2308 93.0155 27.5385 92.7673 27.6923C91.6504 28.2462 90.9524 28.5231 90.6731 28.5231C90.3939 28.5231 90.2543 28.4769 90.2543 28.3846C90.2543 28.2923 90.3009 28.1538 90.3939 27.9692C90.487 27.7846 91.4332 25.1077 93.2327 19.9385C92.5501 20.9846 91.9296 21.7846 91.3712 22.3385C91.123 22.6154 90.9989 22.5692 90.9989 22.2C90.9989 21.8 91.1075 21.4615 91.3247 21.1846C92.7208 19.3692 93.7446 17.8308 94.3961 16.5692C94.5823 15.4923 94.9545 14.8615 95.513 14.6769C95.8543 14.5538 96.2421 14.5538 96.6764 14.6769C97.1418 14.8 97.3745 15.0154 97.3745 15.3231Z" fill="#212121"/>
<path d="M130.543 13.0615L130.45 12.3231C130.45 10.1692 131.396 8.24615 133.289 6.55385C136.67 3.56923 142.131 1.72307 149.67 1.01538C150.818 0.923076 152.152 0.876923 153.672 0.876923C155.223 0.876923 157.178 1.10769 159.536 1.56923C161.893 2 163.832 2.81538 165.353 4.01539C167.773 5.98462 168.983 8.56923 168.983 11.7692C168.983 14.9385 168.021 17.8769 166.097 20.5846C164.205 23.2615 161.785 25.3385 158.837 26.8154C155.89 28.2923 152.741 29.0308 149.39 29.0308C146.04 29.0308 143.325 28.2462 141.246 26.6769C141.215 26.7077 141.06 26.9692 140.781 27.4615C140.533 27.9538 140.269 28.4308 139.99 28.8923C138.563 31.1385 137.291 31.4462 136.174 29.8154C135.522 28.8615 135.197 27.7231 135.197 26.4C135.197 25.0769 135.336 23.4769 135.616 21.6C135.647 21.4154 135.522 20.9846 135.243 20.3077C135.15 20 135.259 19.6923 135.569 19.3846C135.817 19.2 136.158 19.0462 136.593 18.9231C137.058 18.8 137.368 18.8 137.524 18.9231C137.71 19.0462 137.679 19.3846 137.43 19.9385C137.182 20.4615 137.058 20.9538 137.058 21.4154C137.058 21.8769 137.539 22.5692 138.501 23.4923C139.463 24.3846 140.052 24.8615 140.269 24.9231C141.014 23.1077 142.596 19.7077 145.016 14.7231C145.295 14.1692 145.435 13.7538 145.435 13.4769C145.435 13.2 145.404 12.9846 145.342 12.8308C145.497 11.9385 146.474 10.5231 148.274 8.58462C150.104 6.64615 151.578 5.67692 152.695 5.67692C153.129 5.67692 153.672 5.83077 154.323 6.13846C154.975 6.41538 155.347 6.81538 155.44 7.33846C155.44 7.52308 155.425 7.63077 155.394 7.66154C155.363 7.66154 155.285 7.63077 155.161 7.56923C155.037 7.50769 154.944 7.47692 154.882 7.47692C153.889 7.47692 152.71 8.2 151.345 9.64615C150.011 11.0615 148.677 12.9231 147.343 15.2308C144.985 19.2308 143.092 22.7692 141.665 25.8462C143.589 27.2308 145.683 27.9231 147.948 27.9231C150.895 27.9231 153.718 27.1692 156.418 25.6615C159.117 24.1538 161.288 22.4154 162.933 20.4462C165.601 17.2154 166.935 14.0308 166.935 10.8923C166.935 8.58461 166.004 6.52308 164.143 4.70769C162.312 2.89231 159.396 1.92308 155.394 1.8C155.208 1.8 155.021 1.8 154.835 1.8C151.671 1.8 148.336 2.32308 144.83 3.36923C141.324 4.38461 138.33 5.84615 135.848 7.75384C133.366 9.66154 132.125 11.6462 132.125 13.7077C132.125 14.2308 132.28 14.6923 132.591 15.0923C132.932 15.4923 133.273 15.7692 133.614 15.9231C133.987 16.0769 134.437 16.2462 134.964 16.4308C135.522 16.6154 135.879 16.7538 136.034 16.8462C136.22 16.9077 136.329 16.9846 136.36 17.0769C136.422 17.3231 136.205 17.4462 135.709 17.4462C134.561 17.3538 133.397 16.9385 132.218 16.2C131.07 15.4308 130.496 14.5385 130.496 13.5231C130.496 13.3692 130.512 13.2154 130.543 13.0615ZM136.825 23.1692C136.825 27.3231 137.12 29.4 137.71 29.4C138.144 29.4 138.765 28.3231 139.571 26.1692C139.633 26.0769 139.664 26.0154 139.664 25.9846C139.447 25.8 138.982 25.3538 138.268 24.6462C137.586 23.9077 137.105 23.4154 136.825 23.1692Z" fill="#212121"/>
<path d="M178.715 22.2462C179.274 21.1077 179.553 20.2308 179.553 19.6154C179.553 19 179.475 18.5231 179.32 18.1846C179.196 17.8154 179.258 17.5077 179.506 17.2615C179.786 17.0154 180.127 16.9231 180.53 16.9846C181.151 17.1385 181.461 17.8308 181.461 19.0615C181.461 20.2923 180.732 21.9077 179.274 23.9077C179.305 24.7385 179.739 25.1538 180.577 25.1538C181.414 25.1538 182.686 24.2615 184.393 22.4769C185.199 21.5538 185.696 20.9538 185.882 20.6769C186.099 20.4 186.285 20.3077 186.44 20.4C186.596 20.4615 186.673 20.5231 186.673 20.5846C186.673 20.8923 186.115 21.6923 184.998 22.9846C183.229 25.1385 181.663 26.2154 180.298 26.2154C179.398 26.2154 178.762 25.8308 178.39 25.0615C177.769 25.7077 177.164 26.3077 176.575 26.8615C175.365 27.8769 174.015 28.3846 172.526 28.3846C171.688 28.3846 170.99 28.1846 170.432 27.7846C169.346 27.1385 168.803 25.9846 168.803 24.3231C168.803 22.5077 169.423 20.6615 170.664 18.7846C171.378 17.6769 172.216 16.7077 173.177 15.8769C174.698 14.5538 176.14 13.8923 177.505 13.8923C177.847 13.8923 178.172 13.9385 178.483 14.0308C179.413 14.3385 179.879 14.9231 179.879 15.7846C179.879 16.4923 179.693 16.8462 179.32 16.8462C179.165 16.7846 179.088 16.5538 179.088 16.1538C179.088 15.6 178.777 15.3231 178.157 15.3231C177.071 15.3231 175.675 16.3077 173.969 18.2769C172.262 20.2462 171.238 22.2308 170.897 24.2308C170.835 24.5692 170.804 24.9538 170.804 25.3846C170.804 25.7846 170.944 26.2615 171.223 26.8154C171.502 27.3385 172.014 27.6 172.759 27.6C173.534 27.6 174.372 27.2615 175.272 26.5846C176.171 25.9077 176.978 25.0462 177.692 24L177.552 23.7231C177.428 23.2308 177.49 22.8308 177.738 22.5231C177.986 22.2154 178.312 22.1231 178.715 22.2462Z" fill="#212121"/>
<path d="M192.518 15.7846C192.083 16.1538 191.261 17.1231 190.051 18.6923C188.872 20.2308 188.05 21.6 187.585 22.8C187.15 24 186.933 24.9846 186.933 25.7538C186.933 26.5231 187.259 26.9077 187.91 26.9077C188.593 26.9077 189.539 26.4308 190.749 25.4769C192.704 23.8769 194.906 20.9077 197.357 16.5692C197.481 16.3538 197.699 16.2462 198.009 16.2462C198.35 16.2462 198.8 16.3385 199.358 16.5231C199.948 16.6769 200.243 16.8923 200.243 17.1692C200.243 17.2615 200.212 17.3538 200.15 17.4462C198.847 19.5385 198.024 21.9077 197.683 24.5538C197.559 25.4462 197.714 26.1692 198.149 26.7231C198.552 27.2769 199.374 27.2154 200.615 26.5385C202.538 25.5846 204.291 24.0923 205.874 22.0615C207.487 20.0308 208.48 18.2 208.852 16.5692C208.976 16.2308 209.038 15.8615 209.038 15.4615C209.038 13.7385 208.542 12.6923 207.549 12.3231C207.27 12.2 206.96 12.1692 206.618 12.2308C206.277 12.2615 206.075 12.2462 206.013 12.1846C205.951 12.0923 205.936 12 205.967 11.9077C206.029 11.6308 206.665 11.4923 207.875 11.4923C209.891 11.4923 210.9 12.5231 210.9 14.5846C210.9 16.6462 209.721 19.1231 207.363 22.0154C205.874 23.7692 204.121 25.3846 202.104 26.8615C200.987 27.6308 199.824 28.0154 198.614 28.0154C197.032 28.0154 196.054 27.4308 195.682 26.2615C195.465 25.7077 195.356 24.8308 195.356 23.6308C195.356 22.4308 195.511 21.4462 195.822 20.6769C194.984 22.3385 194.069 23.7385 193.076 24.8769C192.083 26.0154 191.23 26.8 190.516 27.2308C189.834 27.6308 189.136 27.8308 188.422 27.8308C187.181 27.8308 186.313 27.5077 185.816 26.8615C185.32 26.1846 185.072 25.4615 185.072 24.6923C185.072 23.6769 185.289 22.5846 185.723 21.4154C186.189 20.2154 186.638 19.2769 187.073 18.6C187.538 17.8923 188.128 17.0615 188.841 16.1077C189.586 15.1231 190.067 14.5846 190.284 14.4923C190.749 14.3692 191.183 14.3077 191.587 14.3077C192.021 14.3077 192.393 14.3692 192.704 14.4923C193.014 14.6154 193.169 14.7692 193.169 14.9538C193.2 15.1385 192.983 15.4154 192.518 15.7846Z" fill="#212121"/>
<path d="M213.031 18.9231C214.427 17.6923 215.87 16.6462 217.359 15.7846C218.848 14.9231 220.027 14.3846 220.896 14.1692C221.765 13.9538 222.618 13.8462 223.456 13.8462C224.293 13.8462 225.084 14.1231 225.829 14.6769C230.079 4.89231 234.144 0 238.022 0C239.325 0 240.209 0.369231 240.674 1.10769C240.891 1.47692 241 1.8 241 2.07692C241 2.84615 240.659 3.83077 239.976 5.03077C239.325 6.2 238.301 7.49231 236.905 8.90769C235.509 10.3231 233.508 12.0769 230.901 14.1692C228.295 16.2308 226.853 17.3846 226.574 17.6308C225.581 19.9077 224.805 22.1077 224.247 24.2308C223.688 26.3538 223.409 27.9385 223.409 28.9846C223.409 30.0308 223.595 30.8615 223.967 31.4769C224.154 31.8769 224.433 32.1077 224.805 32.1692C225.177 32.2615 225.488 32.2154 225.736 32.0308C226.015 31.8769 226.217 31.7385 226.341 31.6154C226.496 31.4923 226.667 31.3692 226.853 31.2462C227.07 31.1538 227.225 31.1385 227.318 31.2C227.411 31.2615 227.396 31.4308 227.272 31.7077C227.023 32.0154 226.791 32.2769 226.574 32.4923C226.077 32.8308 225.488 33 224.805 33C224.154 33 223.719 32.9846 223.502 32.9538C222.013 32.7077 221.268 31.6308 221.268 29.7231C221.268 27.8769 221.516 26.1692 222.013 24.6C222.695 22.4462 223.316 20.6615 223.874 19.2462C218.91 24.9692 215.389 27.8308 213.31 27.8308C212.814 27.8308 212.271 27.6769 211.682 27.3692C211.123 27.0923 210.642 26.6923 210.239 26.1692C209.836 25.6154 209.634 25.0308 209.634 24.4154C209.634 23.8 209.774 23.2154 210.053 22.6615C210.673 21.3692 211.666 20.1231 213.031 18.9231ZM225.457 15.4154C225.084 15.2308 224.433 15.1385 223.502 15.1385C222.571 15.1385 221.361 15.5231 219.872 16.2923C218.414 17.0308 217.033 17.9692 215.73 19.1077C214.645 20.1231 213.683 21.2769 212.845 22.5692C212.038 23.8308 211.635 24.7538 211.635 25.3385C211.635 26.4769 211.961 27.0462 212.612 27.0462C213.264 27.0462 214.257 26.5231 215.591 25.4769C219.035 22.6769 222.106 19.8462 224.805 16.9846L225.457 15.4154ZM239.092 3.78461C239.495 3.04615 239.697 2.43077 239.697 1.93846C239.697 1.41538 239.464 1.15385 238.999 1.15385C238.565 1.15385 237.975 1.43077 237.231 1.98461C233.818 4.56923 230.731 8.89231 227.97 14.9538C229.986 13.6615 232.096 11.9385 234.299 9.78461C236.501 7.63077 238.099 5.63077 239.092 3.78461Z" fill="#212121"/>
<path d="M10.432 51.872H10.032C9.632 54.336 9.264 55.504 6.512 55.504H4.384C3.632 55.504 3.6 55.392 3.6 54.864V50.592H5.04C6.592 50.592 6.768 51.104 6.768 52.464H7.168V48.224H6.768C6.768 49.6 6.592 50.096 5.04 50.096H3.6V46.256C3.6 45.728 3.632 45.616 4.384 45.616H6.448C8.896 45.616 9.328 46.496 9.584 48.72H9.984L9.536 45.12H0.528V45.616H0.912C2.144 45.616 2.176 45.792 2.176 46.368V54.752C2.176 55.328 2.144 55.504 0.912 55.504H0.528V56H9.76L10.432 51.872ZM19.4506 56V55.504C18.6186 55.504 18.2186 55.504 18.2026 55.024V51.968C18.2026 50.592 18.2026 50.096 17.7066 49.52C17.4826 49.248 16.9546 48.928 16.0266 48.928C14.8586 48.928 14.1066 49.616 13.6586 50.608V48.928L11.4026 49.104V49.6C12.5226 49.6 12.6506 49.712 12.6506 50.496V54.784C12.6506 55.504 12.4746 55.504 11.4026 55.504V56L13.2106 55.952L15.0026 56V55.504C13.9306 55.504 13.7546 55.504 13.7546 54.784V51.84C13.7546 50.176 14.8906 49.28 15.9146 49.28C16.9226 49.28 17.0986 50.144 17.0986 51.056V54.784C17.0986 55.504 16.9226 55.504 15.8506 55.504V56L17.6586 55.952L19.4506 56ZM26.4213 54.096C26.4213 53.936 26.2933 53.904 26.2133 53.904C26.0693 53.904 26.0373 54 26.0053 54.128C25.4453 55.776 24.0052 55.776 23.8453 55.776C23.0453 55.776 22.4053 55.296 22.0373 54.704C21.5573 53.936 21.5573 52.88 21.5573 52.304H26.0213C26.3733 52.304 26.4213 52.304 26.4213 51.968C26.4213 50.384 25.5573 48.832 23.5573 48.832C21.7013 48.832 20.2293 50.48 20.2293 52.48C20.2293 54.624 21.9093 56.176 23.7493 56.176C25.7013 56.176 26.4213 54.4 26.4213 54.096ZM25.3653 51.968H21.5733C21.6693 49.584 23.0133 49.184 23.5573 49.184C25.2053 49.184 25.3653 51.344 25.3653 51.968ZM32.7146 49.904C32.7146 49.392 32.2186 48.928 31.5306 48.928C30.3626 48.928 29.7866 50 29.5626 50.688V48.928L27.3386 49.104V49.6C28.4586 49.6 28.5866 49.712 28.5866 50.496V54.784C28.5866 55.504 28.4106 55.504 27.3386 55.504V56L29.1626 55.952C29.8026 55.952 30.5546 55.952 31.1946 56V55.504H30.8586C29.6746 55.504 29.6426 55.328 29.6426 54.752V52.288C29.6426 50.704 30.3146 49.28 31.5306 49.28C31.6426 49.28 31.6746 49.28 31.7066 49.296C31.6586 49.312 31.3386 49.504 31.3386 49.92C31.3386 50.368 31.6746 50.608 32.0266 50.608C32.3146 50.608 32.7146 50.416 32.7146 49.904ZM40.9163 49.536C40.9163 49.264 40.7243 48.752 40.1003 48.752C39.7803 48.752 39.0763 48.848 38.4043 49.504C37.7323 48.976 37.0603 48.928 36.7083 48.928C35.2203 48.928 34.1163 50.032 34.1163 51.264C34.1163 51.968 34.4683 52.576 34.8683 52.912C34.6603 53.152 34.3723 53.68 34.3723 54.24C34.3723 54.736 34.5803 55.344 35.0763 55.664C34.1163 55.936 33.6043 56.624 33.6043 57.264C33.6043 58.416 35.1883 59.296 37.1403 59.296C39.0283 59.296 40.6923 58.48 40.6923 57.232C40.6923 56.672 40.4683 55.856 39.6523 55.408C38.8043 54.96 37.8763 54.96 36.9003 54.96C36.5003 54.96 35.8123 54.96 35.7003 54.944C35.1883 54.88 34.8523 54.384 34.8523 53.872C34.8523 53.808 34.8523 53.44 35.1243 53.12C35.7483 53.568 36.4043 53.616 36.7083 53.616C38.1963 53.616 39.3003 52.512 39.3003 51.28C39.3003 50.688 39.0443 50.096 38.6443 49.728C39.2203 49.184 39.7963 49.104 40.0843 49.104C40.0843 49.104 40.1963 49.104 40.2443 49.12C40.0683 49.184 39.9883 49.36 39.9883 49.552C39.9883 49.824 40.1963 50.016 40.4523 50.016C40.6123 50.016 40.9163 49.904 40.9163 49.536ZM38.1003 51.264C38.1003 51.696 38.0843 52.208 37.8443 52.608C37.7163 52.8 37.3483 53.248 36.7083 53.248C35.3163 53.248 35.3163 51.648 35.3163 51.28C35.3163 50.848 35.3323 50.336 35.5723 49.936C35.7003 49.744 36.0683 49.296 36.7083 49.296C38.1003 49.296 38.1003 50.896 38.1003 51.264ZM39.8603 57.264C39.8603 58.128 38.7243 58.928 37.1562 58.928C35.5403 58.928 34.4363 58.112 34.4363 57.264C34.4363 56.528 35.0443 55.936 35.7483 55.888H36.6923C38.0683 55.888 39.8603 55.888 39.8603 57.264ZM49.2843 49.6V49.104C48.9163 49.136 48.4523 49.152 48.0843 49.152L46.6923 49.104V49.6C47.1883 49.616 47.4443 49.888 47.4443 50.288C47.4443 50.448 47.4283 50.48 47.3483 50.672L45.7323 54.608L43.9563 50.304C43.8923 50.144 43.8603 50.08 43.8603 50.016C43.8603 49.6 44.4523 49.6 44.7563 49.6V49.104L43.0123 49.152C42.5803 49.152 41.9403 49.136 41.4603 49.104V49.6C42.2283 49.6 42.5323 49.6 42.7563 50.16L45.1562 56L44.7563 56.944C44.4043 57.824 43.9563 58.928 42.9323 58.928C42.8523 58.928 42.4843 58.928 42.1803 58.64C42.6763 58.576 42.8043 58.224 42.8043 57.968C42.8043 57.552 42.5003 57.296 42.1323 57.296C41.8123 57.296 41.4603 57.504 41.4603 57.984C41.4603 58.704 42.1323 59.28 42.9323 59.28C43.9403 59.28 44.5963 58.368 44.9803 57.456L47.7963 50.624C48.2123 49.616 49.0283 49.6 49.2843 49.6ZM66.3935 56V55.504H66.0095C64.7775 55.504 64.7455 55.328 64.7455 54.752V46.32C64.7455 45.744 64.7775 45.568 66.0095 45.568H66.3935V45.072C65.8335 45.12 64.6495 45.12 64.0415 45.12C63.4335 45.12 62.2335 45.12 61.6735 45.072V45.568H62.0575C63.2895 45.568 63.3215 45.744 63.3215 46.32V50.064H58.5375V46.32C58.5375 45.744 58.5695 45.568 59.8015 45.568H60.1855V45.072C59.6255 45.12 58.4415 45.12 57.8335 45.12C57.2255 45.12 56.0255 45.12 55.4655 45.072V45.568H55.8495C57.0815 45.568 57.1135 45.744 57.1135 46.32V54.752C57.1135 55.328 57.0815 55.504 55.8495 55.504H55.4655V56C56.0255 55.952 57.2095 55.952 57.8175 55.952C58.4255 55.952 59.6255 55.952 60.1855 56V55.504H59.8015C58.5695 55.504 58.5375 55.328 58.5375 54.752V50.56H63.3215V54.752C63.3215 55.328 63.2895 55.504 62.0575 55.504H61.6735V56C62.2335 55.952 63.4175 55.952 64.0255 55.952C64.6335 55.952 65.8335 55.952 66.3935 56ZM73.5775 54.096C73.5775 53.936 73.4495 53.904 73.3695 53.904C73.2255 53.904 73.1935 54 73.1615 54.128C72.6015 55.776 71.1615 55.776 71.0015 55.776C70.2015 55.776 69.5615 55.296 69.1935 54.704C68.7135 53.936 68.7135 52.88 68.7135 52.304H73.1775C73.5295 52.304 73.5775 52.304 73.5775 51.968C73.5775 50.384 72.7135 48.832 70.7135 48.832C68.8575 48.832 67.3855 50.48 67.3855 52.48C67.3855 54.624 69.0655 56.176 70.9055 56.176C72.8575 56.176 73.5775 54.4 73.5775 54.096ZM72.5215 51.968H68.7295C68.8255 49.584 70.1695 49.184 70.7135 49.184C72.3615 49.184 72.5215 51.344 72.5215 51.968ZM81.9349 54.576V53.68H81.5349V54.576C81.5349 55.504 81.1349 55.6 80.9589 55.6C80.4309 55.6 80.3669 54.88 80.3669 54.8V51.6C80.3669 50.928 80.3669 50.304 79.7909 49.712C79.1669 49.088 78.3669 48.832 77.5989 48.832C76.2869 48.832 75.1829 49.584 75.1829 50.64C75.1829 51.12 75.5029 51.392 75.9189 51.392C76.3669 51.392 76.6549 51.072 76.6549 50.656C76.6549 50.464 76.5749 49.936 75.8389 49.92C76.2709 49.36 77.0549 49.184 77.5669 49.184C78.3509 49.184 79.2629 49.808 79.2629 51.232V51.824C78.4469 51.872 77.3269 51.92 76.3189 52.4C75.1189 52.944 74.7189 53.776 74.7189 54.48C74.7189 55.776 76.2709 56.176 77.2789 56.176C78.3349 56.176 79.0709 55.536 79.3749 54.784C79.4389 55.424 79.8709 56.096 80.6229 56.096C80.9589 56.096 81.9349 55.872 81.9349 54.576ZM79.2629 53.76C79.2629 55.28 78.1109 55.824 77.3909 55.824C76.6069 55.824 75.9509 55.264 75.9509 54.464C75.9509 53.584 76.6229 52.256 79.2629 52.16V53.76ZM86.1269 56V55.504C85.0549 55.504 84.8789 55.504 84.8789 54.784V44.896L82.5749 45.072V45.568C83.6949 45.568 83.8229 45.68 83.8229 46.464V54.784C83.8229 55.504 83.6469 55.504 82.5749 55.504V56L84.3509 55.952L86.1269 56ZM93.14 54.096C93.14 53.936 93.012 53.904 92.932 53.904C92.788 53.904 92.756 54 92.724 54.128C92.164 55.776 90.724 55.776 90.564 55.776C89.764 55.776 89.124 55.296 88.756 54.704C88.276 53.936 88.276 52.88 88.276 52.304H92.74C93.092 52.304 93.14 52.304 93.14 51.968C93.14 50.384 92.276 48.832 90.276 48.832C88.42 48.832 86.948 50.48 86.948 52.48C86.948 54.624 88.628 56.176 90.468 56.176C92.42 56.176 93.14 54.4 93.14 54.096ZM92.084 51.968H88.292C88.388 49.584 89.732 49.184 90.276 49.184C91.924 49.184 92.084 51.344 92.084 51.968ZM99.4334 49.904C99.4334 49.392 98.9374 48.928 98.2494 48.928C97.0814 48.928 96.5054 50 96.2814 50.688V48.928L94.0574 49.104V49.6C95.1774 49.6 95.3054 49.712 95.3054 50.496V54.784C95.3054 55.504 95.1294 55.504 94.0574 55.504V56L95.8814 55.952C96.5214 55.952 97.2734 55.952 97.9134 56V55.504H97.5774C96.3934 55.504 96.3614 55.328 96.3614 54.752V52.288C96.3614 50.704 97.0334 49.28 98.2494 49.28C98.3614 49.28 98.3934 49.28 98.4254 49.296C98.3774 49.312 98.0574 49.504 98.0574 49.92C98.0574 50.368 98.3934 50.608 98.7454 50.608C99.0334 50.608 99.4334 50.416 99.4334 49.904ZM147.156 48.048C147.156 46.48 145.572 45.072 143.38 45.072H137.732V45.568H138.116C139.348 45.568 139.38 45.744 139.38 46.32V54.752C139.38 55.328 139.348 55.504 138.116 55.504H137.732V56C138.292 55.952 139.476 55.952 140.084 55.952C140.692 55.952 141.892 55.952 142.452 56V55.504H142.068C140.836 55.504 140.804 55.328 140.804 54.752V50.944H143.508C145.428 50.944 147.156 49.648 147.156 48.048ZM145.508 48.048C145.508 48.8 145.508 50.528 142.964 50.528H140.756V46.208C140.756 45.68 140.788 45.568 141.54 45.568H142.964C145.508 45.568 145.508 47.264 145.508 48.048ZM153.823 53.952C153.823 53.104 153.343 52.624 153.151 52.432C152.623 51.92 151.999 51.792 151.327 51.664C150.431 51.488 149.359 51.28 149.359 50.352C149.359 49.792 149.775 49.136 151.151 49.136C152.911 49.136 152.991 50.576 153.023 51.072C153.039 51.216 153.215 51.216 153.215 51.216C153.423 51.216 153.423 51.136 153.423 50.832V49.216C153.423 48.944 153.423 48.832 153.247 48.832C153.167 48.832 153.135 48.832 152.927 49.024C152.879 49.088 152.719 49.232 152.655 49.28C152.047 48.832 151.391 48.832 151.151 48.832C149.199 48.832 148.59 49.904 148.59 50.8C148.59 51.36 148.847 51.808 149.279 52.16C149.791 52.576 150.239 52.672 151.391 52.896C151.743 52.96 153.055 53.216 153.055 54.368C153.055 55.184 152.495 55.824 151.247 55.824C149.903 55.824 149.327 54.912 149.023 53.552C148.975 53.344 148.959 53.28 148.799 53.28C148.59 53.28 148.59 53.392 148.59 53.68V55.792C148.59 56.064 148.59 56.176 148.767 56.176C148.847 56.176 148.863 56.16 149.167 55.856C149.199 55.824 149.199 55.792 149.487 55.488C150.191 56.16 150.911 56.176 151.247 56.176C153.087 56.176 153.823 55.104 153.823 53.952ZM162.487 49.6V49.104C162.119 49.136 161.655 49.152 161.287 49.152L159.895 49.104V49.6C160.391 49.616 160.647 49.888 160.647 50.288C160.647 50.448 160.631 50.48 160.551 50.672L158.935 54.608L157.159 50.304C157.095 50.144 157.063 50.08 157.063 50.016C157.063 49.6 157.655 49.6 157.959 49.6V49.104L156.215 49.152C155.783 49.152 155.143 49.136 154.663 49.104V49.6C155.431 49.6 155.735 49.6 155.959 50.16L158.359 56L157.959 56.944C157.607 57.824 157.159 58.928 156.135 58.928C156.055 58.928 155.687 58.928 155.383 58.64C155.879 58.576 156.007 58.224 156.007 57.968C156.007 57.552 155.703 57.296 155.335 57.296C155.015 57.296 154.663 57.504 154.663 57.984C154.663 58.704 155.335 59.28 156.135 59.28C157.143 59.28 157.799 58.368 158.183 57.456L160.999 50.624C161.415 49.616 162.231 49.6 162.487 49.6ZM169.453 54.096C169.453 53.936 169.293 53.936 169.245 53.936C169.101 53.936 169.069 54 169.037 54.096C168.573 55.584 167.533 55.776 166.941 55.776C166.093 55.776 164.685 55.088 164.685 52.512C164.685 49.904 165.997 49.232 166.845 49.232C166.989 49.232 167.997 49.248 168.557 49.824C167.901 49.872 167.805 50.352 167.805 50.56C167.805 50.976 168.093 51.296 168.541 51.296C168.957 51.296 169.277 51.024 169.277 50.544C169.277 49.456 168.061 48.832 166.829 48.832C164.829 48.832 163.357 50.56 163.357 52.544C163.357 54.592 164.941 56.176 166.797 56.176C168.941 56.176 169.453 54.256 169.453 54.096ZM178.029 56V55.504C177.197 55.504 176.797 55.504 176.781 55.024V51.968C176.781 50.592 176.781 50.096 176.285 49.52C176.061 49.248 175.533 48.928 174.605 48.928C173.261 48.928 172.557 49.888 172.301 50.464H172.285V44.896L169.981 45.072V45.568C171.101 45.568 171.229 45.68 171.229 46.464V54.784C171.229 55.504 171.053 55.504 169.981 55.504V56L171.789 55.952L173.581 56V55.504C172.509 55.504 172.333 55.504 172.333 54.784V51.84C172.333 50.176 173.469 49.28 174.493 49.28C175.501 49.28 175.677 50.144 175.677 51.056V54.784C175.677 55.504 175.501 55.504 174.429 55.504V56L176.237 55.952L178.029 56ZM182.311 56V55.504C181.255 55.504 181.191 55.424 181.191 54.8V48.928L178.951 49.104V49.6C179.991 49.6 180.135 49.696 180.135 50.48V54.784C180.135 55.504 179.959 55.504 178.887 55.504V56L180.647 55.952C181.207 55.952 181.767 55.984 182.311 56ZM181.431 46.336C181.431 45.904 181.063 45.488 180.583 45.488C180.039 45.488 179.719 45.936 179.719 46.336C179.719 46.768 180.087 47.184 180.567 47.184C181.111 47.184 181.431 46.736 181.431 46.336ZM189.453 54.096C189.453 53.936 189.293 53.936 189.245 53.936C189.101 53.936 189.069 54 189.037 54.096C188.573 55.584 187.533 55.776 186.941 55.776C186.093 55.776 184.685 55.088 184.685 52.512C184.685 49.904 185.997 49.232 186.845 49.232C186.989 49.232 187.997 49.248 188.557 49.824C187.901 49.872 187.805 50.352 187.805 50.56C187.805 50.976 188.093 51.296 188.541 51.296C188.957 51.296 189.277 51.024 189.277 50.544C189.277 49.456 188.061 48.832 186.829 48.832C184.829 48.832 183.357 50.56 183.357 52.544C183.357 54.592 184.941 56.176 186.797 56.176C188.941 56.176 189.453 54.256 189.453 54.096ZM206.706 56V55.504H206.322C205.09 55.504 205.058 55.328 205.058 54.752V46.32C205.058 45.744 205.09 45.568 206.322 45.568H206.706V45.072C206.146 45.12 204.962 45.12 204.354 45.12C203.746 45.12 202.546 45.12 201.986 45.072V45.568H202.37C203.602 45.568 203.634 45.744 203.634 46.32V50.064H198.85V46.32C198.85 45.744 198.882 45.568 200.114 45.568H200.498V45.072C199.938 45.12 198.754 45.12 198.146 45.12C197.538 45.12 196.338 45.12 195.778 45.072V45.568H196.162C197.394 45.568 197.426 45.744 197.426 46.32V54.752C197.426 55.328 197.394 55.504 196.162 55.504H195.778V56C196.338 55.952 197.522 55.952 198.13 55.952C198.738 55.952 199.938 55.952 200.498 56V55.504H200.114C198.882 55.504 198.85 55.328 198.85 54.752V50.56H203.634V54.752C203.634 55.328 203.602 55.504 202.37 55.504H201.986V56C202.546 55.952 203.73 55.952 204.338 55.952C204.946 55.952 206.146 55.952 206.706 56ZM213.89 54.096C213.89 53.936 213.762 53.904 213.682 53.904C213.538 53.904 213.506 54 213.474 54.128C212.914 55.776 211.474 55.776 211.314 55.776C210.514 55.776 209.874 55.296 209.506 54.704C209.026 53.936 209.026 52.88 209.026 52.304H213.49C213.842 52.304 213.89 52.304 213.89 51.968C213.89 50.384 213.026 48.832 211.026 48.832C209.17 48.832 207.698 50.48 207.698 52.48C207.698 54.624 209.378 56.176 211.218 56.176C213.17 56.176 213.89 54.4 213.89 54.096ZM212.834 51.968H209.042C209.138 49.584 210.482 49.184 211.026 49.184C212.674 49.184 212.834 51.344 212.834 51.968ZM222.247 54.576V53.68H221.847V54.576C221.847 55.504 221.447 55.6 221.271 55.6C220.743 55.6 220.679 54.88 220.679 54.8V51.6C220.679 50.928 220.679 50.304 220.103 49.712C219.479 49.088 218.679 48.832 217.911 48.832C216.599 48.832 215.495 49.584 215.495 50.64C215.495 51.12 215.815 51.392 216.231 51.392C216.679 51.392 216.967 51.072 216.967 50.656C216.967 50.464 216.887 49.936 216.151 49.92C216.583 49.36 217.367 49.184 217.879 49.184C218.663 49.184 219.575 49.808 219.575 51.232V51.824C218.759 51.872 217.639 51.92 216.631 52.4C215.431 52.944 215.031 53.776 215.031 54.48C215.031 55.776 216.583 56.176 217.591 56.176C218.647 56.176 219.383 55.536 219.687 54.784C219.751 55.424 220.183 56.096 220.935 56.096C221.271 56.096 222.247 55.872 222.247 54.576ZM219.575 53.76C219.575 55.28 218.423 55.824 217.703 55.824C216.919 55.824 216.263 55.264 216.263 54.464C216.263 53.584 216.935 52.256 219.575 52.16V53.76ZM226.439 56V55.504C225.367 55.504 225.191 55.504 225.191 54.784V44.896L222.887 45.072V45.568C224.007 45.568 224.135 45.68 224.135 46.464V54.784C224.135 55.504 223.959 55.504 222.887 55.504V56L224.663 55.952L226.439 56ZM233.453 54.096C233.453 53.936 233.325 53.904 233.245 53.904C233.101 53.904 233.069 54 233.037 54.128C232.477 55.776 231.036 55.776 230.877 55.776C230.077 55.776 229.437 55.296 229.069 54.704C228.589 53.936 228.589 52.88 228.589 52.304H233.053C233.405 52.304 233.453 52.304 233.453 51.968C233.453 50.384 232.589 48.832 230.589 48.832C228.733 48.832 227.261 50.48 227.261 52.48C227.261 54.624 228.941 56.176 230.781 56.176C232.733 56.176 233.453 54.4 233.453 54.096ZM232.397 51.968H228.605C228.701 49.584 230.045 49.184 230.589 49.184C232.237 49.184 232.397 51.344 232.397 51.968ZM239.746 49.904C239.746 49.392 239.25 48.928 238.562 48.928C237.394 48.928 236.818 50 236.594 50.688V48.928L234.37 49.104V49.6C235.49 49.6 235.618 49.712 235.618 50.496V54.784C235.618 55.504 235.442 55.504 234.37 55.504V56L236.194 55.952C236.834 55.952 237.586 55.952 238.226 56V55.504H237.89C236.706 55.504 236.674 55.328 236.674 54.752V52.288C236.674 50.704 237.346 49.28 238.562 49.28C238.674 49.28 238.706 49.28 238.738 49.296C238.69 49.312 238.37 49.504 238.37 49.92C238.37 50.368 238.706 50.608 239.058 50.608C239.346 50.608 239.746 50.416 239.746 49.904Z" fill="black"/>
<path d="M124.756 51.8388C124.637 51.7955 124.58 51.7219 124.481 51.5847C124.224 51.2297 123.95 51.0074 123.662 50.9197C123.897 50.7324 124.071 50.4248 124.179 50.0001C124.209 49.8793 124.324 49.6804 124.365 49.614C124.381 49.5889 124.39 49.5599 124.39 49.5303C124.391 49.5006 124.383 49.4714 124.369 49.4456C124.354 49.4198 124.332 49.3986 124.307 49.384C124.281 49.3694 124.251 49.3622 124.222 49.363C124.096 49.3661 124.015 49.3189 123.873 49.2278C123.407 48.9303 122.992 48.8391 122.639 48.9559C122.884 48.6753 122.964 48.2568 122.876 47.711C122.856 47.588 122.883 47.36 122.894 47.2826C122.899 47.2533 122.895 47.2233 122.884 47.1958C122.873 47.1684 122.854 47.1445 122.831 47.1267C122.807 47.1089 122.779 47.0978 122.749 47.0948C122.72 47.0917 122.69 47.0966 122.663 47.1091C122.549 47.1622 122.456 47.1507 122.289 47.1237C121.831 47.0498 121.464 47.0952 121.193 47.2574C121.242 46.946 121.147 46.5889 120.906 46.1925C120.842 46.0859 120.78 45.8649 120.762 45.7888C120.755 45.76 120.74 45.7335 120.72 45.7123C120.699 45.6911 120.673 45.6759 120.644 45.6683C120.616 45.6607 120.585 45.661 120.557 45.6693C120.528 45.6775 120.503 45.6933 120.482 45.715C120.396 45.8072 120.306 45.8312 120.141 45.8691C119.635 45.9851 119.291 46.1972 119.115 46.4993C119.071 46.1525 118.836 45.8231 118.415 45.5191C118.314 45.4462 118.172 45.2665 118.125 45.2035C118.107 45.1796 118.084 45.1609 118.056 45.1495C118.029 45.138 117.999 45.1342 117.97 45.1384C117.94 45.1426 117.913 45.1547 117.89 45.1734C117.867 45.1921 117.849 45.2167 117.839 45.2445C117.796 45.363 117.722 45.4202 117.585 45.5192C117.182 45.8102 116.949 46.1246 116.892 46.4555C116.711 46.1724 116.376 45.9715 115.892 45.8576C115.77 45.8291 115.57 45.7181 115.503 45.6778C115.477 45.6625 115.448 45.6544 115.418 45.6543C115.389 45.6542 115.36 45.6622 115.334 45.6773C115.309 45.6925 115.288 45.7143 115.274 45.7403C115.259 45.7664 115.253 45.7958 115.254 45.8255C115.259 45.9514 115.214 46.0326 115.125 46.1768C114.873 46.587 114.777 46.9561 114.838 47.2767C114.564 47.0987 114.186 47.047 113.711 47.1235C113.588 47.1434 113.36 47.1173 113.283 47.1056C113.253 47.1011 113.223 47.1047 113.196 47.1159C113.168 47.1272 113.144 47.1456 113.127 47.1694C113.109 47.1931 113.098 47.2212 113.095 47.2507C113.092 47.2802 113.097 47.31 113.109 47.3369C113.162 47.4512 113.151 47.5438 113.124 47.7109C113.054 48.1417 113.09 48.4924 113.23 48.7581C112.932 48.7262 112.592 48.8218 112.217 49.0453C112.11 49.109 111.888 49.1687 111.812 49.1863C111.783 49.1929 111.757 49.2073 111.735 49.2278C111.714 49.2484 111.698 49.2744 111.691 49.303C111.683 49.3316 111.683 49.3618 111.691 49.3903C111.699 49.4189 111.714 49.4448 111.736 49.4652C111.827 49.552 111.851 49.6423 111.887 49.8076C112.007 50.3525 112.24 50.7119 112.578 50.8756C112.58 50.8769 112.583 50.8779 112.585 50.8791C112.582 50.8791 112.58 50.8791 112.577 50.8793C112.201 50.8952 111.846 51.1325 111.519 51.5847C111.446 51.6859 111.267 51.8286 111.204 51.875C111.18 51.8926 111.161 51.9164 111.15 51.9437C111.138 51.9711 111.134 52.001 111.138 52.0304C111.143 52.0598 111.155 52.0874 111.173 52.1105C111.192 52.1335 111.217 52.1511 111.245 52.1612C111.363 52.2046 111.42 52.2782 111.519 52.4155C111.777 52.7719 112.052 52.9943 112.341 53.0806C112.104 53.2666 111.93 53.5742 111.822 54.0001C111.791 54.1209 111.677 54.3198 111.635 54.3862C111.619 54.4113 111.611 54.4403 111.61 54.4699C111.609 54.4996 111.617 54.5288 111.632 54.5546C111.646 54.5804 111.668 54.6016 111.694 54.6162C111.719 54.6308 111.749 54.638 111.778 54.6372C111.904 54.6342 111.985 54.6813 112.127 54.7724C112.462 54.9859 112.77 55.0931 113.048 55.093C113.158 55.0935 113.268 55.0755 113.372 55.0398C113.373 55.0395 113.373 55.0391 113.374 55.0389C113.374 55.0395 113.373 55.0402 113.372 55.0409C113.118 55.3178 113.035 55.7377 113.124 56.289C113.143 56.412 113.117 56.64 113.106 56.7174C113.101 56.7467 113.105 56.7767 113.116 56.8041C113.127 56.8316 113.146 56.8555 113.169 56.8733C113.193 56.8911 113.221 56.9021 113.251 56.9052C113.28 56.9083 113.31 56.9034 113.337 56.8909C113.451 56.8378 113.544 56.8493 113.711 56.8763C113.843 56.8984 113.977 56.9098 114.111 56.9106C114.388 56.9106 114.62 56.8536 114.806 56.7406C114.757 57.0526 114.853 57.4105 115.094 57.8075C115.158 57.9141 115.22 58.1351 115.238 58.2112C115.245 58.24 115.259 58.2665 115.28 58.2877C115.301 58.3089 115.327 58.3241 115.356 58.3317C115.384 58.3393 115.415 58.3389 115.443 58.3307C115.472 58.3225 115.497 58.3067 115.517 58.285C115.603 58.1928 115.694 58.1688 115.859 58.1309C116.367 58.0144 116.712 57.8012 116.885 57.497C116.927 57.845 117.162 58.1756 117.585 58.4808C117.686 58.5538 117.828 58.7334 117.875 58.7965C117.89 58.8172 117.91 58.834 117.933 58.8456C117.956 58.8572 117.981 58.8633 118.007 58.8633C118.015 58.8633 118.023 58.8627 118.03 58.8616C118.06 58.8574 118.087 58.8454 118.11 58.8267C118.133 58.808 118.151 58.7834 118.161 58.7556C118.204 58.6371 118.278 58.5799 118.415 58.4808C118.819 58.1895 119.051 57.8749 119.109 57.544C119.289 57.8274 119.624 58.0286 120.108 58.1424C120.23 58.1709 120.431 58.2819 120.498 58.3222C120.523 58.3375 120.552 58.3456 120.582 58.3457C120.611 58.3457 120.641 58.3378 120.666 58.3226C120.692 58.3075 120.712 58.2857 120.727 58.2596C120.741 58.2336 120.747 58.2041 120.746 58.1745C120.741 58.0485 120.787 57.9674 120.875 57.8232C121.128 57.4118 121.224 57.042 121.162 56.721C121.353 56.8473 121.597 56.9108 121.89 56.9108C122.023 56.9099 122.157 56.8985 122.289 56.8764C122.412 56.8565 122.64 56.8826 122.718 56.8943C122.747 56.8988 122.777 56.8952 122.804 56.884C122.832 56.8727 122.856 56.8543 122.874 56.8306C122.891 56.8068 122.902 56.7787 122.905 56.7492C122.909 56.7197 122.904 56.6899 122.891 56.663C122.838 56.5487 122.85 56.4562 122.877 56.2891C122.946 55.857 122.91 55.5058 122.769 55.2401C122.809 55.2446 122.848 55.2469 122.888 55.247C123.157 55.247 123.456 55.1493 123.783 54.9548C123.89 54.8911 124.112 54.8314 124.188 54.8138C124.217 54.8072 124.244 54.7928 124.265 54.7722C124.286 54.7517 124.302 54.7257 124.31 54.6971C124.317 54.6685 124.317 54.6383 124.309 54.6097C124.301 54.5812 124.286 54.5553 124.264 54.5349C124.173 54.4481 124.149 54.3578 124.113 54.1925C123.993 53.6472 123.76 53.2876 123.422 53.1237C123.421 53.123 123.42 53.1224 123.418 53.1217H123.423C123.798 53.1056 124.154 52.868 124.481 52.4155C124.554 52.3144 124.734 52.1717 124.797 52.1253C124.821 52.1077 124.839 52.0839 124.851 52.0566C124.862 52.0292 124.866 51.9992 124.862 51.9699C124.858 51.9405 124.846 51.9128 124.827 51.8898C124.808 51.8668 124.784 51.8492 124.756 51.839L124.756 51.8388ZM122.734 49.2697C122.99 49.1812 123.314 49.2602 123.696 49.5044C123.781 49.5632 123.873 49.612 123.969 49.6499C123.924 49.7357 123.887 49.8261 123.86 49.9194C123.749 50.3569 123.569 50.6352 123.323 50.7465C123.106 50.8449 122.882 50.7885 122.776 50.7505C122.675 50.3641 122.527 49.9915 122.335 49.641C122.385 49.5429 122.509 49.3475 122.734 49.2697V49.2697ZM118 56.6093C115.459 56.6093 113.392 54.542 113.392 52.0009C113.392 49.4598 115.459 47.3926 118 47.3926C120.541 47.3926 122.608 49.4598 122.608 52.0009C122.608 54.542 120.541 56.6093 118 56.6093V56.6093ZM121.261 47.6124C121.462 47.4311 121.79 47.3757 122.237 47.4476C122.338 47.4678 122.442 47.4763 122.545 47.4728C122.537 47.5696 122.54 47.6669 122.552 47.7633C122.625 48.2117 122.569 48.5422 122.387 48.7456C122.23 48.9222 122.006 48.9629 121.895 48.972C121.645 48.6513 121.357 48.3625 121.037 48.1119C121.045 47.9999 121.084 47.7723 121.261 47.6124V47.6124ZM119.374 46.7099C119.49 46.4654 119.773 46.2902 120.215 46.1889C120.316 46.1695 120.415 46.1384 120.51 46.0963C120.539 46.1889 120.578 46.2782 120.626 46.3627C120.86 46.7483 120.931 47.0721 120.839 47.3252C120.756 47.5502 120.557 47.6708 120.455 47.7195C120.11 47.5204 119.741 47.3642 119.358 47.2543C119.323 47.1477 119.272 46.9234 119.374 46.7099V46.7099ZM117.205 46.5925C117.218 46.3218 117.41 46.0502 117.777 45.7852C117.863 45.7277 117.942 45.6606 118.013 45.585C118.076 45.6588 118.146 45.7259 118.223 45.7852C118.588 46.049 118.78 46.3194 118.794 46.5886C118.805 46.8268 118.67 47.0151 118.595 47.1004C118.199 47.0522 117.798 47.0523 117.402 47.1006C117.328 47.0156 117.195 46.8286 117.205 46.5925V46.5925ZM115.405 46.3486C115.462 46.2625 115.509 46.1701 115.545 46.0732C115.632 46.1171 115.723 46.1519 115.817 46.1771C116.256 46.2803 116.537 46.456 116.653 46.6994C116.755 46.9152 116.702 47.1412 116.666 47.2476C116.282 47.3557 115.912 47.5104 115.565 47.7081C115.464 47.6584 115.267 47.5363 115.186 47.3114C115.095 47.0572 115.168 46.7333 115.405 46.3486V46.3486ZM113.448 47.7633C113.468 47.6618 113.476 47.5584 113.473 47.455C113.57 47.4625 113.667 47.46 113.763 47.4476C114.21 47.3756 114.538 47.4312 114.739 47.6125C114.916 47.7722 114.955 47.9995 114.963 48.1117C114.646 48.3599 114.36 48.6456 114.112 48.9627C114.001 48.9549 113.774 48.9169 113.614 48.7414C113.431 48.5406 113.375 48.2115 113.448 47.7633ZM112.208 49.7369C112.189 49.6351 112.159 49.5358 112.117 49.441C112.21 49.4124 112.3 49.3742 112.385 49.3272C112.774 49.0956 113.099 49.0262 113.353 49.1208C113.577 49.2044 113.696 49.4028 113.744 49.5028C113.54 49.8475 113.38 50.2156 113.266 50.5991C113.159 50.6341 112.932 50.6843 112.718 50.579C112.476 50.4605 112.305 50.1771 112.208 49.7369V49.7369ZM111.785 52.2232C111.728 52.1372 111.661 52.058 111.585 51.9874C111.659 51.9243 111.726 51.8538 111.785 51.7769C112.049 51.4117 112.319 51.2201 112.587 51.2074C112.826 51.1959 113.015 51.3329 113.099 51.4078C113.052 51.8013 113.052 52.1991 113.099 52.5927C113.016 52.6668 112.828 52.8037 112.591 52.7933C112.321 52.7818 112.05 52.59 111.785 52.2232V52.2232ZM113.264 54.7297C113.009 54.8182 112.686 54.7394 112.304 54.4956C112.219 54.4368 112.127 54.3879 112.031 54.3501C112.076 54.2642 112.113 54.1739 112.139 54.0806C112.25 53.6447 112.43 53.3679 112.674 53.2581C112.893 53.1596 113.12 53.2191 113.226 53.2581C113.327 53.6412 113.474 54.0108 113.664 54.3586C113.613 54.458 113.489 54.6522 113.265 54.7297H113.264ZM114.733 56.3879C114.534 56.5688 114.208 56.6241 113.763 56.5523C113.662 56.5321 113.558 56.5237 113.455 56.5272C113.462 56.4304 113.46 56.333 113.448 56.2367C113.376 55.7913 113.431 55.4643 113.612 55.2649C113.773 55.0872 114.004 55.0508 114.115 55.0441C114.36 55.356 114.642 55.6376 114.954 55.8828C114.947 55.9949 114.911 56.2262 114.733 56.3879H114.733ZM116.623 57.2918C116.508 57.5353 116.226 57.7101 115.785 57.8111C115.684 57.8305 115.585 57.8616 115.49 57.9037C115.461 57.8111 115.422 57.7218 115.374 57.6373C115.14 57.2509 115.068 56.9263 115.16 56.6729C115.242 56.449 115.439 56.3286 115.54 56.2796C115.885 56.4787 116.252 56.6351 116.635 56.7454C116.671 56.8513 116.724 57.0771 116.623 57.2918H116.623ZM118.795 57.4072C118.783 57.6777 118.591 57.9494 118.223 58.2148C118.137 58.2723 118.058 58.3394 117.987 58.415C117.924 58.3412 117.854 58.2741 117.777 58.2148C117.412 57.9511 117.22 57.6813 117.207 57.4129C117.196 57.1745 117.333 56.9863 117.408 56.9018C117.803 56.9496 118.203 56.9493 118.599 56.901C118.673 56.9855 118.806 57.1717 118.795 57.4072H118.795ZM120.595 57.6514C120.538 57.7375 120.491 57.8299 120.455 57.9268C120.368 57.8829 120.277 57.8481 120.183 57.8229C119.744 57.7198 119.464 57.5442 119.349 57.3012C119.247 57.0858 119.3 56.8601 119.336 56.7534C119.721 56.645 120.091 56.4902 120.437 56.2923C120.538 56.3419 120.734 56.4635 120.814 56.6877C120.906 56.942 120.832 57.2662 120.595 57.6514H120.595ZM122.552 56.2367C122.532 56.3382 122.524 56.4416 122.527 56.545C122.43 56.5374 122.333 56.5399 122.237 56.5523C121.792 56.6241 121.465 56.5687 121.266 56.3879C121.089 56.2263 121.053 55.9952 121.046 55.8831C121.359 55.6365 121.642 55.353 121.888 55.0389C121.999 55.0465 122.226 55.0844 122.385 55.2594C122.569 55.4599 122.625 55.7887 122.552 56.2367H122.552ZM123.792 54.2631C123.811 54.3649 123.841 54.4641 123.883 54.559C123.79 54.5876 123.7 54.6257 123.615 54.6728C123.228 54.9035 122.904 54.9723 122.652 54.8773C122.427 54.7928 122.309 54.5921 122.261 54.4905C122.462 54.1474 122.621 53.7812 122.734 53.3998C122.84 53.3653 123.066 53.3154 123.279 53.4189C123.522 53.5367 123.695 53.8208 123.792 54.2631H123.792ZM124.215 52.2233C123.951 52.5888 123.681 52.7807 123.412 52.7936C123.173 52.8051 122.985 52.669 122.901 52.5945C122.949 52.1986 122.948 51.7984 122.9 51.4025C122.984 51.3285 123.171 51.1944 123.408 51.2056C123.678 51.2176 123.949 51.4098 124.215 51.7771C124.272 51.8631 124.339 51.9423 124.415 52.0129C124.341 52.0759 124.274 52.1464 124.215 52.2232L124.215 52.2233Z" fill="black"/>
<path d="M117.988 50.7888C117.744 50.7888 117.505 50.8612 117.302 50.9968C117.099 51.1324 116.941 51.3252 116.847 51.5507C116.754 51.7762 116.73 52.0244 116.777 52.2638C116.825 52.5032 116.942 52.7231 117.115 52.8957C117.288 53.0684 117.507 53.1859 117.747 53.2335C117.986 53.2812 118.234 53.2567 118.46 53.1633C118.685 53.0699 118.878 52.9117 119.014 52.7087C119.149 52.5058 119.222 52.2672 119.222 52.0231C119.221 51.6958 119.091 51.3821 118.86 51.1507C118.629 50.9193 118.315 50.7892 117.988 50.7888V50.7888ZM117.988 52.9291C117.808 52.9291 117.633 52.876 117.484 52.7764C117.335 52.6769 117.219 52.5353 117.151 52.3698C117.082 52.2042 117.064 52.022 117.099 51.8463C117.134 51.6705 117.22 51.509 117.347 51.3823C117.474 51.2556 117.635 51.1693 117.811 51.1344C117.987 51.0994 118.169 51.1173 118.334 51.1859C118.5 51.2545 118.641 51.3706 118.741 51.5197C118.841 51.6687 118.894 51.8439 118.894 52.0231C118.893 52.2633 118.798 52.4936 118.628 52.6634C118.458 52.8333 118.228 52.9289 117.988 52.9291V52.9291Z" fill="black"/>
<path d="M122.282 51.8757C122.218 49.6157 120.373 47.7887 118.112 47.7442C115.948 47.7017 114.138 49.2832 113.82 51.3502C113.817 51.3736 113.818 51.3976 113.825 51.4204C113.831 51.4432 113.842 51.4643 113.858 51.4824C113.873 51.5004 113.892 51.5148 113.914 51.5248C113.935 51.5347 113.959 51.5399 113.982 51.5399H113.983C114.022 51.5399 114.06 51.5258 114.089 51.5002C114.119 51.4746 114.139 51.4392 114.145 51.4005C114.197 51.0575 114.296 50.7232 114.437 50.4064L115.401 52.0224L114.438 53.5964C114.276 53.2332 114.17 52.8472 114.124 52.4519C114.119 52.4097 114.097 52.3713 114.063 52.345C114.029 52.3187 113.987 52.3066 113.945 52.3111C113.902 52.3156 113.863 52.3365 113.836 52.3692C113.809 52.402 113.795 52.4441 113.798 52.4867C114.04 54.6058 115.845 56.2571 118.027 56.2571C120.416 56.257 122.351 54.2795 122.282 51.8757V51.8757ZM121.448 50.0728H119.462L118.273 48.0794C118.926 48.1216 119.558 48.3259 120.113 48.674C120.667 49.022 121.126 49.5028 121.448 50.0728V50.0728ZM120.405 52.2954L121.184 53.6006H119.607L120.405 52.2954ZM119.222 53.6006H116.725L115.784 52.0245L116.778 50.401H119.275L120.216 51.9772L119.222 53.6006ZM119.658 50.4009H121.18L120.409 51.6609L119.658 50.4009ZM118.043 48.334L119.08 50.0728H116.979L118.043 48.334ZM117.815 48.0774L116.594 50.0728H114.605C114.93 49.4974 115.394 49.0129 115.955 48.6642C116.516 48.3155 117.155 48.1137 117.815 48.0774ZM114.816 50.4009H116.393L115.595 51.7061L114.816 50.4009ZM115.591 52.3406L116.343 53.6006H114.82L115.591 52.3406ZM114.606 53.9287H116.538L117.724 55.9171C117.081 55.8667 116.461 55.659 115.917 55.3122C115.373 54.9655 114.923 54.4904 114.606 53.9287H114.606ZM117.957 55.6675L116.92 53.9287H119.021L117.957 55.6675ZM118.184 55.9255L119.406 53.9287H121.449C121.12 54.5121 120.647 55.0017 120.076 55.3511C119.505 55.7006 118.853 55.8983 118.184 55.9255V55.9255ZM121.594 53.647L120.599 51.9793L121.593 50.3551C121.832 50.8709 121.956 51.4325 121.956 52.0011C121.956 52.5696 121.833 53.1313 121.594 53.6472V53.647Z" fill="black"/>
</svg>
