<svg width="377" height="40" viewBox="0 0 377 40" fill="none" xmlns="http://www.w3.org/2000/svg">
<path d="M173.667 19.3333C174.027 19.3333 174.31 18.9433 174.778 18.2527C175.257 17.4619 175.884 16.7707 176.624 16.2167C176.856 16.0593 177.101 15.923 177.357 15.8093C177.191 15.5819 177.047 15.3398 176.925 15.086C176.561 14.2357 176.365 13.3233 176.346 12.3987C176.286 11.5687 176.237 11.09 175.927 10.9107C175.719 10.7924 175.59 10.5718 175.59 10.3326C175.589 10.0934 175.717 9.87219 175.924 9.75303C176.132 9.63388 176.387 9.63501 176.593 9.756C176.904 9.936 177.343 9.73933 178.092 9.376C178.9 8.93129 179.785 8.64526 180.7 8.53333C180.983 8.50994 181.267 8.51352 181.549 8.544C181.519 8.26496 181.515 7.98384 181.535 7.704C181.646 6.78675 181.931 5.89919 182.376 5.08933C182.739 4.34067 182.936 3.902 182.756 3.59133C182.635 3.38495 182.634 3.12957 182.753 2.92212C182.872 2.71468 183.093 2.58698 183.333 2.58751C183.572 2.58803 183.792 2.7167 183.911 2.92467C184.09 3.23533 184.569 3.284 185.399 3.344C186.323 3.36251 187.236 3.55898 188.086 3.92267C188.34 4.04491 188.582 4.18971 188.809 4.35533C188.924 4.0994 189.061 3.85401 189.218 3.622C189.772 2.88314 190.463 2.2574 191.253 1.77867C191.943 1.30933 192.333 1.02733 192.333 0.666667C192.333 0.298477 192.632 0 193 0C193.368 0 193.667 0.298477 193.667 0.666667C193.667 1.02733 194.057 1.30933 194.747 1.778C195.538 2.2572 196.229 2.88364 196.783 3.62333C196.94 3.85532 197.077 4.10072 197.191 4.35667C197.418 4.19076 197.66 4.04594 197.914 3.924C198.764 3.56071 199.676 3.36447 200.6 3.346C201.43 3.286 201.909 3.23733 202.088 2.92667C202.273 2.61052 202.679 2.50325 202.996 2.68648C203.314 2.86972 203.424 3.27476 203.243 3.59333C203.063 3.904 203.259 4.34267 203.623 5.09133C204.066 5.89894 204.351 6.78395 204.463 7.69867C204.487 7.98122 204.483 8.26542 204.453 8.54733C204.732 8.51844 205.013 8.5142 205.293 8.53467C206.21 8.6454 207.097 8.93077 207.907 9.37533C208.656 9.73867 209.095 9.93533 209.405 9.75533C209.612 9.63434 209.867 9.63321 210.075 9.75237C210.282 9.87152 210.41 10.0927 210.409 10.3319C210.409 10.5712 210.28 10.7918 210.072 10.91C209.762 11.0893 209.713 11.568 209.653 12.398C209.634 13.3226 209.438 14.235 209.074 15.0853C208.952 15.3389 208.807 15.581 208.641 15.8087C208.897 15.9232 209.143 16.0599 209.375 16.2173C210.114 16.7713 210.739 17.4621 211.218 18.252C211.69 18.9433 211.973 19.3333 212.333 19.3333C212.702 19.3333 213 19.6318 213 20C213 20.3682 212.702 20.6667 212.333 20.6667C211.973 20.6667 211.69 21.0567 211.222 21.7473C210.743 22.5381 210.116 23.2293 209.376 23.7833C209.144 23.9407 208.899 24.077 208.643 24.1907C208.809 24.4181 208.953 24.6602 209.075 24.914C209.439 25.7639 209.635 26.6758 209.654 27.6C209.714 28.43 209.763 28.9087 210.073 29.088C210.281 29.2062 210.41 29.4268 210.41 29.6661C210.411 29.9053 210.283 30.1265 210.076 30.2456C209.868 30.3648 209.613 30.3637 209.407 30.2427C209.096 30.0633 208.657 30.2593 207.908 30.6227C207.1 31.0678 206.215 31.3543 205.3 31.4667C205.172 31.478 205.042 31.484 204.912 31.484C204.758 31.479 204.604 31.4661 204.451 31.4453C204.481 31.727 204.487 32.0108 204.467 32.2933C204.356 33.2106 204.071 34.0981 203.626 34.908C203.263 35.6567 203.066 36.0953 203.246 36.406C203.367 36.6124 203.368 36.8678 203.249 37.0752C203.13 37.2827 202.909 37.4104 202.669 37.4098C202.43 37.4093 202.21 37.2806 202.091 37.0727C201.912 36.762 201.433 36.7133 200.603 36.6533C199.679 36.6348 198.766 36.4384 197.916 36.0747C197.662 35.9524 197.42 35.8076 197.193 35.642C197.078 35.8979 196.941 36.1433 196.784 36.3753C196.23 37.1142 195.539 37.7399 194.749 38.2187C194.057 38.6907 193.667 38.9727 193.667 39.3333C193.667 39.7015 193.368 40 193 40C192.632 40 192.333 39.7015 192.333 39.3333C192.333 38.9727 191.943 38.6907 191.253 38.222C190.462 37.7428 189.771 37.1164 189.217 36.3767C189.06 36.1447 188.923 35.8993 188.809 35.6433C188.582 35.8092 188.34 35.9541 188.086 36.076C187.236 36.4397 186.323 36.6362 185.399 36.6547C184.569 36.7147 184.09 36.7633 183.911 37.074C183.725 37.3901 183.32 37.4974 183.002 37.3142C182.685 37.1309 182.575 36.7259 182.756 36.4073C182.936 36.0967 182.739 35.658 182.376 34.9093C181.932 34.1017 181.647 33.2167 181.536 32.302C181.512 32.0156 181.516 31.7276 181.547 31.442C181.391 31.4573 181.235 31.4807 181.081 31.4807C180.957 31.4807 180.833 31.4753 180.709 31.466C179.792 31.3553 178.904 31.0699 178.095 30.6253C177.346 30.262 176.907 30.066 176.596 30.2453C176.39 30.3663 176.134 30.3675 175.927 30.2483C175.719 30.1291 175.592 29.908 175.592 29.6687C175.593 29.4295 175.721 29.2089 175.929 29.0907C176.239 28.9113 176.289 28.4327 176.349 27.6027C176.367 26.678 176.564 25.7656 176.927 24.9153C177.05 24.6617 177.194 24.4196 177.36 24.192C177.104 24.0775 176.859 23.9408 176.627 23.7833C175.888 23.2293 175.262 22.5386 174.783 21.7487C174.31 21.0567 174.027 20.6667 173.667 20.6667C173.298 20.6667 173 20.3682 173 20C173 19.6318 173.298 19.3333 173.667 19.3333ZM180.814 9.86667C180.062 9.96609 179.336 10.2077 178.674 10.5787C178.302 10.7725 177.915 10.9342 177.515 11.062C177.604 11.4713 177.658 11.8875 177.676 12.306C177.684 13.065 177.838 13.8154 178.129 14.5167C178.294 14.8447 178.508 15.1452 178.765 15.4073C178.871 15.392 178.979 15.3773 179.089 15.3673C179.749 13.3939 180.821 11.5833 182.234 10.056L182.199 10.0427C181.754 9.88862 181.283 9.82869 180.814 9.86667ZM191.845 33.2747L189.333 28.6667H182.891C185.156 31.3166 188.372 32.9712 191.845 33.2747ZM203.112 28.6667H196.667L194.153 33.2747C197.628 32.9726 200.845 31.3178 203.112 28.6667ZM204.786 13.7833L201.395 20L204.786 26.2193C206.849 22.3316 206.849 17.6737 204.786 13.786V13.7833ZM194.155 6.72533L196.667 11.3333H203.112C200.846 8.68283 197.629 7.0281 194.155 6.72533ZM182.888 11.3333H189.333L191.847 6.72533C188.372 7.02759 185.155 8.68237 182.888 11.3333ZM203.877 27.3333L193 7.392L182.123 27.3333H203.877ZM190.85 28.6667L193 32.608L195.15 28.6667H190.85ZM200.635 18.6053L203.877 12.6667H197.396L200.635 18.6053ZM188.604 12.6667H182.123L185.365 18.6053L188.604 12.6667ZM181.214 26.2167L184.605 20L181.214 13.786C179.151 17.6737 179.151 22.3316 181.214 26.2193V26.2167ZM187.514 5.12867C186.812 4.83807 186.062 4.6842 185.303 4.67533C184.884 4.65782 184.468 4.60452 184.059 4.516C183.932 4.91496 183.77 5.30218 183.576 5.67333C183.206 6.33479 182.965 7.06058 182.867 7.812C182.844 8.18123 182.881 8.5517 182.975 8.90933C183.077 8.94933 183.175 8.99 183.275 9.03533C184.83 7.65148 186.662 6.6143 188.649 5.99267C188.642 5.98533 188.636 5.97667 188.629 5.96933C188.316 5.61937 187.937 5.33383 187.514 5.12867ZM195.684 4.37867C195.223 3.77692 194.652 3.26872 194 2.88133C193.646 2.65611 193.311 2.40095 193 2.11867C192.689 2.40095 192.354 2.65611 192 2.88133C191.349 3.26814 190.777 3.77566 190.316 4.37667C190.114 4.68459 189.96 5.02188 189.86 5.37667C189.927 5.46067 189.993 5.544 190.052 5.62933C192.094 5.21154 194.201 5.23427 196.233 5.696C196.233 5.68467 196.233 5.67333 196.228 5.662C196.131 5.2032 195.946 4.76746 195.684 4.37867ZM203.133 7.814C203.035 7.06188 202.794 6.33537 202.424 5.67333C202.23 5.30218 202.068 4.91496 201.941 4.516C201.532 4.60452 201.116 4.65782 200.697 4.67533C199.938 4.6842 199.188 4.83807 198.486 5.12867C198.158 5.29338 197.857 5.50817 197.595 5.76533C197.611 5.87133 197.625 5.97933 197.635 6.08867C199.609 6.74841 201.419 7.82061 202.946 9.234C202.95 9.22133 202.956 9.21067 202.959 9.198C203.114 8.75397 203.173 8.28243 203.133 7.814ZM207.326 10.576C206.665 10.206 205.939 9.96524 205.188 9.86667C204.819 9.8431 204.448 9.87981 204.091 9.97533C204.051 10.0767 204.01 10.1753 203.965 10.2753C205.348 11.8295 206.385 13.6606 207.007 15.6467C207.015 15.64 207.023 15.6347 207.03 15.628C207.38 15.3148 207.666 14.9364 207.871 14.514C208.162 13.8128 208.316 13.0624 208.324 12.3033C208.342 11.8848 208.396 11.4686 208.485 11.0593C208.085 10.9315 207.698 10.7698 207.326 10.576ZM210.119 21C210.344 20.6455 210.599 20.311 210.881 20C210.599 19.689 210.344 19.3545 210.119 19C209.732 18.3486 209.225 17.7769 208.624 17.3153C208.316 17.1133 207.979 16.9597 207.624 16.86C207.541 16.9267 207.457 16.9933 207.372 17.052C207.79 19.0935 207.767 21.2007 207.305 23.2327C207.316 23.2327 207.328 23.2327 207.339 23.2273C207.798 23.1304 208.235 22.9457 208.624 22.6833C209.225 22.2223 209.732 21.651 210.119 21ZM205.185 30.1373C205.937 30.0379 206.664 29.7963 207.325 29.4253C207.697 29.2315 208.085 29.0698 208.484 28.942C208.395 28.5327 208.341 28.1165 208.323 27.698C208.315 26.939 208.161 26.1886 207.871 25.4873C207.706 25.1593 207.491 24.8588 207.234 24.5967C207.128 24.612 207.02 24.6267 206.911 24.6367C206.251 26.6102 205.179 28.4207 203.765 29.948L203.801 29.9613C204.245 30.1149 204.717 30.1735 205.186 30.1333L205.185 30.1373ZM198.485 34.8707C199.187 35.1613 199.937 35.3151 200.697 35.324C201.115 35.3415 201.531 35.3948 201.94 35.4833C202.068 35.0844 202.229 34.6972 202.423 34.326C202.793 33.6648 203.034 32.9392 203.133 32.188C203.156 31.8188 203.119 31.4483 203.025 31.0907C202.923 31.0507 202.825 31.01 202.725 30.9647C201.17 32.3485 199.338 33.3857 197.351 34.0073C197.358 34.0147 197.364 34.0233 197.371 34.0307C197.684 34.3806 198.063 34.6662 198.486 34.8713L198.485 34.8707ZM190.315 35.6207C190.776 36.2227 191.348 36.7312 192 37.1187C192.354 37.3439 192.689 37.599 193 37.8813C193.311 37.599 193.646 37.3439 194 37.1187C194.651 36.7319 195.223 36.2243 195.684 35.6233C195.886 35.3154 196.04 34.9781 196.14 34.6233C196.073 34.5393 196.007 34.456 195.948 34.3707C193.906 34.7885 191.799 34.7657 189.767 34.304C189.767 34.3153 189.767 34.3267 189.772 34.338C189.869 34.7968 190.054 35.2325 190.316 35.6213L190.315 35.6207ZM182.867 32.186C182.966 32.9383 183.207 33.6648 183.578 34.3267C183.772 34.6978 183.934 35.085 184.061 35.484C184.47 35.3955 184.886 35.3422 185.305 35.3247C186.064 35.3158 186.814 35.1619 187.516 34.8713C187.844 34.7066 188.145 34.4918 188.407 34.2347C188.391 34.1287 188.377 34.0207 188.367 33.9113C186.393 33.2516 184.583 32.1794 183.056 30.766C183.052 30.7787 183.046 30.7893 183.043 30.802C182.888 31.2459 182.828 31.7174 182.867 32.186ZM178.676 29.424C179.337 29.7938 180.061 30.0345 180.812 30.1333C181.181 30.1576 181.552 30.1209 181.909 30.0247C181.949 29.9233 181.99 29.8247 182.035 29.7247C180.651 28.1699 179.614 26.3381 178.993 24.3513C178.985 24.358 178.977 24.3633 178.97 24.37C178.62 24.6832 178.334 25.0616 178.129 25.484C177.838 26.1852 177.684 26.9356 177.676 27.6947C177.658 28.1132 177.604 28.5294 177.515 28.9387C177.915 29.0671 178.302 29.2295 178.674 29.424H178.676ZM175.881 21C176.268 21.6514 176.775 22.2231 177.376 22.6847C177.684 22.8867 178.021 23.0403 178.376 23.14C178.459 23.0733 178.543 23.0067 178.628 22.948C178.21 20.9065 178.233 18.7993 178.695 16.7673C178.684 16.7673 178.672 16.7673 178.661 16.7727C178.202 16.8696 177.765 17.0543 177.376 17.3167C176.775 17.7777 176.268 18.349 175.881 19C175.656 19.3545 175.401 19.689 175.119 20C175.401 20.311 175.656 20.6455 175.881 21Z" fill="black"/>
<line x1="238" y1="19.5" x2="377" y2="19.5" stroke="black"/>
<line y1="19.5" x2="139" y2="19.5" stroke="black"/>
</svg>
