<svg width="20" height="23" viewBox="0 0 20 23" fill="none" xmlns="http://www.w3.org/2000/svg">
<path d="M18 2.45117C18.5304 2.45117 19.0391 2.68885 19.4142 3.11193C19.7893 3.535 20 4.10882 20 4.70714V18.2429C20 18.8412 19.7893 19.4151 19.4142 19.8381C19.0391 20.2612 18.5304 20.4989 18 20.4989H2C1.46957 20.4989 0.960859 20.2612 0.585786 19.8381C0.210714 19.4151 0 18.8412 0 18.2429V4.70714C0 3.46636 0.9 2.45117 2 2.45117H18ZM13.63 12.7158L20 18.2429V15.987L14.88 11.5878L20 6.9631V4.70714L10 13.731L0 4.70714V6.9631L5.12 11.5878L0 15.987V18.2429L6.37 12.7158L10 15.987L13.63 12.7158Z" fill="#B29702"/>
</svg>
