<svg width="14" height="14" viewBox="0 0 14 14" fill="none" xmlns="http://www.w3.org/2000/svg">
<path d="M13.7556 6.83883C13.6372 6.79552 13.5799 6.72191 13.4809 6.58467C13.2244 6.22966 12.9499 6.00739 12.6622 5.91975C12.8974 5.73245 13.0708 5.42483 13.1785 5.0001C13.2092 4.87927 13.3237 4.68042 13.3651 4.61403C13.3809 4.58889 13.3895 4.55995 13.3901 4.53029C13.3907 4.50063 13.3833 4.47136 13.3685 4.4456C13.3538 4.41984 13.3324 4.39855 13.3066 4.384C13.2807 4.36945 13.2514 4.36218 13.2217 4.36296C13.096 4.36613 13.0154 4.31891 12.8727 4.22783C12.4067 3.93027 11.9917 3.83911 11.6388 3.95595C11.8842 3.67532 11.9642 3.25677 11.8763 2.71102C11.8564 2.58797 11.8825 2.36 11.8943 2.28262C11.8987 2.25329 11.8952 2.2233 11.8839 2.19584C11.8727 2.16838 11.8542 2.14448 11.8305 2.12668C11.8068 2.10888 11.7787 2.09784 11.7492 2.09475C11.7197 2.09166 11.6899 2.09663 11.663 2.10912C11.5486 2.16223 11.4561 2.15069 11.289 2.12367C10.8314 2.04984 10.464 2.09515 10.193 2.25744C10.2424 1.94596 10.1468 1.58886 9.90639 1.19251C9.84173 1.08587 9.7802 0.864902 9.76196 0.788804C9.75508 0.759952 9.7405 0.733507 9.71977 0.712283C9.69905 0.691059 9.67296 0.675851 9.64428 0.668276C9.6156 0.660702 9.5854 0.661044 9.5569 0.669268C9.5284 0.677491 9.50267 0.693288 9.48243 0.714976C9.39643 0.807179 9.30634 0.831187 9.14132 0.869058C8.63524 0.985133 8.29052 1.19718 8.11475 1.49933C8.071 1.15248 7.83614 0.823066 7.41532 0.51914C7.31415 0.44616 7.1715 0.266539 7.12507 0.203511C7.10748 0.179619 7.08374 0.160943 7.05638 0.149474C7.02901 0.138004 6.99905 0.134169 6.96968 0.138378C6.94031 0.142586 6.91263 0.15468 6.88959 0.173373C6.86655 0.192065 6.84901 0.216656 6.83884 0.244527C6.79552 0.362953 6.72191 0.420156 6.58468 0.51925C6.18171 0.810187 5.94943 1.12464 5.89154 1.45547C5.71132 1.17241 5.376 0.971488 4.8918 0.857574C4.77045 0.829054 4.56961 0.718121 4.5025 0.677816C4.4771 0.662528 4.44802 0.654411 4.41837 0.654328C4.38872 0.654245 4.3596 0.6622 4.33411 0.677347C4.30862 0.692494 4.28771 0.714266 4.2736 0.740348C4.2595 0.766431 4.25272 0.795848 4.254 0.825472C4.25947 0.951445 4.21359 1.0326 4.12502 1.17681C3.87308 1.58697 3.77724 1.95611 3.83813 2.27666C3.56431 2.09868 3.18631 2.04697 2.71102 2.12353C2.58798 2.14344 2.36001 2.11733 2.2826 2.1056C2.25328 2.10114 2.2233 2.10471 2.19584 2.11594C2.16839 2.12717 2.1445 2.14563 2.1267 2.16935C2.1089 2.19308 2.09787 2.22119 2.09478 2.25069C2.09169 2.28018 2.09665 2.30997 2.10913 2.33687C2.16224 2.45125 2.15064 2.54378 2.12371 2.71088C2.0542 3.14171 2.09035 3.49236 2.23005 3.75814C1.93162 3.72623 1.5922 3.82177 1.21699 4.04525C1.10988 4.10899 0.888317 4.16868 0.812055 4.18629C0.783148 4.19294 0.756583 4.2073 0.735188 4.22785C0.713794 4.24839 0.698369 4.27435 0.690556 4.30297C0.682743 4.33158 0.682834 4.36178 0.690819 4.39035C0.698804 4.41892 0.714385 4.44478 0.735903 4.4652C0.827395 4.55202 0.850747 4.64228 0.887141 4.80757C1.00745 5.3525 1.23968 5.71186 1.57765 5.87564C1.58025 5.8769 1.58285 5.87789 1.58545 5.87912C1.58244 5.87912 1.57951 5.87912 1.57653 5.87928C1.20148 5.89517 0.845743 6.13246 0.519176 6.58475C0.446169 6.68592 0.266548 6.82857 0.203548 6.87503C0.179662 6.89262 0.160993 6.91636 0.149528 6.94372C0.138063 6.97108 0.134231 7.00104 0.138439 7.0304C0.142647 7.05977 0.154739 7.08744 0.173426 7.11048C0.192114 7.13352 0.216698 7.15106 0.244563 7.16124C0.362962 7.20455 0.420192 7.27816 0.519313 7.41553C0.776673 7.77188 1.05216 7.99426 1.34077 8.08062C1.104 8.26655 0.929661 8.57417 0.821626 9.0001C0.790973 9.12094 0.676512 9.31978 0.635005 9.38617C0.619262 9.41131 0.610631 9.44026 0.61003 9.46991C0.60943 9.49957 0.616882 9.52884 0.631594 9.5546C0.646306 9.58036 0.667727 9.60165 0.693578 9.6162C0.719428 9.63075 0.74874 9.63803 0.778395 9.63724C0.904313 9.63418 0.984758 9.68129 1.12744 9.77238C1.46188 9.98593 1.77018 10.0931 2.04805 10.093C2.15819 10.0935 2.26763 10.0755 2.3718 10.0398C2.37262 10.0395 2.37341 10.0391 2.37423 10.0389C2.37357 10.0395 2.37292 10.0402 2.37229 10.0409C2.11835 10.3178 2.0347 10.7377 2.12363 11.289C2.14345 11.412 2.11739 11.64 2.10566 11.7174C2.10119 11.7467 2.10476 11.7767 2.11599 11.8041C2.12722 11.8316 2.14568 11.8555 2.16941 11.8733C2.19314 11.8911 2.22126 11.9021 2.25076 11.9052C2.28026 11.9083 2.31006 11.9034 2.33696 11.8909C2.45129 11.8378 2.54382 11.8493 2.71094 11.8763C2.84302 11.8984 2.97664 11.9098 3.11054 11.9106C3.38754 11.9106 3.62001 11.8536 3.80617 11.7406C3.75679 12.0526 3.85265 12.4105 4.09352 12.8075C4.15819 12.9141 4.21972 13.1351 4.23795 13.2112C4.24484 13.24 4.25942 13.2665 4.28015 13.2877C4.30087 13.3089 4.32696 13.3241 4.35564 13.3317C4.38432 13.3393 4.41451 13.3389 4.44301 13.3307C4.47151 13.3225 4.49725 13.3067 4.51749 13.285C4.60348 13.1928 4.69358 13.1688 4.8586 13.1309C5.36681 13.0144 5.71173 12.8012 5.88544 12.497C5.92725 12.845 6.16202 13.1756 6.58459 13.4808C6.68577 13.5538 6.82842 13.7334 6.87485 13.7965C6.8901 13.8172 6.91002 13.834 6.93298 13.8456C6.95595 13.8572 6.98132 13.8633 7.00705 13.8633C7.01482 13.8633 7.02258 13.8627 7.03027 13.8616C7.05964 13.8574 7.08732 13.8454 7.11037 13.8267C7.13342 13.808 7.15097 13.7834 7.16116 13.7556C7.20448 13.6371 7.27809 13.5799 7.41546 13.4808C7.81886 13.1895 8.05134 12.8749 8.1092 12.544C8.28882 12.8274 8.62389 13.0286 9.10834 13.1424C9.22969 13.1709 9.43053 13.2819 9.49763 13.3222C9.52304 13.3375 9.55211 13.3456 9.58177 13.3457C9.61142 13.3457 9.64054 13.3378 9.66603 13.3226C9.69152 13.3075 9.71243 13.2857 9.72653 13.2596C9.74064 13.2336 9.74741 13.2041 9.74613 13.1745C9.74066 13.0485 9.78655 12.9674 9.87511 12.8232C10.1277 12.4118 10.2237 12.042 10.1622 11.721C10.3534 11.8473 10.5966 11.9108 10.8896 11.9108C11.0235 11.9099 11.1571 11.8985 11.2892 11.8764C11.4122 11.8565 11.6402 11.8826 11.7176 11.8943C11.747 11.8988 11.777 11.8952 11.8044 11.884C11.8319 11.8727 11.8557 11.8543 11.8735 11.8306C11.8913 11.8068 11.9024 11.7787 11.9055 11.7492C11.9085 11.7197 11.9036 11.6899 11.8911 11.663C11.838 11.5487 11.8496 11.4562 11.8765 11.2891C11.9462 10.857 11.9096 10.5058 11.7689 10.2401C11.8085 10.2446 11.8483 10.2469 11.8882 10.247C12.1569 10.247 12.4565 10.1493 12.7832 9.95484C12.8903 9.8911 13.1119 9.83141 13.1882 9.8138C13.2171 9.80715 13.2436 9.79279 13.265 9.77225C13.2864 9.7517 13.3018 9.72574 13.3097 9.69713C13.3175 9.66851 13.3174 9.63831 13.3094 9.60975C13.3014 9.58118 13.2858 9.55531 13.2643 9.53489C13.1728 9.44808 13.1495 9.35782 13.1131 9.19252C12.9928 8.64721 12.7603 8.28761 12.4224 8.12371C12.421 8.123 12.4195 8.12243 12.4181 8.12174H12.4231C12.7983 8.10561 13.1543 7.86799 13.4811 7.41553C13.5541 7.31436 13.7337 7.17171 13.7967 7.12525C13.8206 7.10766 13.8393 7.08392 13.8507 7.05656C13.8622 7.0292 13.866 6.99925 13.8618 6.96988C13.8576 6.94052 13.8455 6.91284 13.8268 6.8898C13.8081 6.86676 13.7835 6.84922 13.7557 6.83905L13.7556 6.83883ZM11.7342 4.26966C11.9901 4.18118 12.3137 4.2602 12.6961 4.50436C12.7812 4.56321 12.8728 4.61204 12.9691 4.64988C12.9237 4.73574 12.8873 4.82606 12.8605 4.91941C12.7495 5.35691 12.5688 5.63516 12.3233 5.7465C12.1062 5.84494 11.8818 5.78847 11.776 5.75055C11.6747 5.36413 11.5266 4.99153 11.335 4.64102C11.3849 4.54291 11.509 4.34746 11.7342 4.26966ZM7 11.6093C4.45889 11.6093 2.39157 9.54198 2.39157 7.00087C2.39157 4.45976 4.45889 2.39257 7 2.39257C9.54111 2.39257 11.6084 4.45976 11.6084 7.00087C11.6084 9.54198 9.54111 11.6093 7 11.6093ZM10.2611 2.61244C10.4623 2.4311 10.7905 2.37567 11.2367 2.44764C11.3382 2.46784 11.4416 2.47627 11.545 2.47277C11.5374 2.5696 11.5399 2.66695 11.5524 2.76327C11.6247 3.21171 11.5692 3.54224 11.3875 3.74557C11.2296 3.92223 11.0062 3.96289 10.8953 3.97197C10.6454 3.65134 10.3572 3.36251 10.0372 3.11193C10.0452 2.99993 10.0838 2.77235 10.2611 2.61244ZM8.37405 1.70985C8.4904 1.46543 8.77327 1.29015 9.21468 1.18887C9.31629 1.16947 9.41531 1.13841 9.5098 1.09631C9.5392 1.18888 9.57808 1.27816 9.62585 1.36272C9.85975 1.74827 9.93133 2.07207 9.83861 2.32522C9.75625 2.55021 9.55664 2.67085 9.45547 2.71949C9.10986 2.52042 8.74127 2.36421 8.35786 2.25432C8.32281 2.14773 8.27239 1.92343 8.37405 1.70985ZM6.20547 1.59246C6.21753 1.32176 6.40976 1.05024 6.77679 0.785168C6.86281 0.727727 6.94192 0.660555 7.01255 0.584984C7.07565 0.658786 7.14621 0.72587 7.2231 0.785168C7.58846 1.04903 7.78039 1.31936 7.79357 1.58858C7.80522 1.82683 7.67025 2.01514 7.59547 2.10037C7.19913 2.05224 6.79842 2.05232 6.4021 2.10062C6.32816 2.01564 6.19492 1.82863 6.20547 1.59246ZM4.40461 1.34861C4.46198 1.26254 4.50918 1.17011 4.5453 1.07318C4.63195 1.11707 4.7229 1.15189 4.81671 1.17709C5.25591 1.28031 5.53719 1.45599 5.65275 1.69935C5.75526 1.91523 5.70216 2.14123 5.66601 2.24759C5.28153 2.35572 4.91169 2.51037 4.56468 2.70812C4.46351 2.65835 4.26686 2.53626 4.18616 2.31139C4.09495 2.05717 4.16845 1.73326 4.40461 1.34861ZM2.44762 2.76327C2.46786 2.66182 2.4763 2.55838 2.47278 2.455C2.56961 2.4625 2.66695 2.46004 2.76328 2.44764C3.20953 2.37562 3.53779 2.43123 3.73899 2.61247C3.91623 2.77221 3.955 2.99946 3.9632 3.11166C3.646 3.35985 3.36008 3.64562 3.11172 3.9627C3.001 3.95494 2.7743 3.91687 2.61445 3.74144C2.43149 3.54057 2.37532 3.21149 2.44762 2.76327ZM1.20756 4.73686C1.18897 4.6351 1.15869 4.53583 1.11732 4.44103C1.21013 4.4124 1.29973 4.37425 1.38469 4.3272C1.77368 4.09565 2.09945 4.0262 2.35293 4.1208C2.57715 4.20442 2.69604 4.4028 2.74362 4.50282C2.54047 4.84746 2.38019 5.21563 2.26636 5.59914C2.15915 5.63409 1.9323 5.68429 1.71784 5.57899C1.4764 5.46054 1.30468 5.17707 1.20756 4.73686ZM0.785177 7.2232C0.727738 7.13717 0.660566 7.05805 0.584993 6.98741C0.658795 6.92431 0.72588 6.85376 0.785177 6.77687C1.04891 6.41166 1.31882 6.22007 1.58736 6.20735C1.82626 6.19587 2.01477 6.33286 2.09921 6.40775C2.05157 6.80129 2.05152 7.19914 2.09904 7.59269C2.01575 7.66677 1.82834 7.80371 1.59059 7.79326C1.32109 7.7818 1.05 7.59001 0.785177 7.2232ZM2.26447 9.72969C2.00881 9.81818 1.68558 9.73943 1.30378 9.49563C1.21871 9.43677 1.12712 9.38793 1.03083 9.3501C1.07623 9.26425 1.11262 9.17393 1.13941 9.08058C1.24999 8.64469 1.43 8.36794 1.67445 8.25805C1.89301 8.15961 2.11958 8.21906 2.22581 8.25805C2.32683 8.64125 2.47391 9.01079 2.66383 9.35861C2.61297 9.45798 2.48861 9.65217 2.26458 9.72969H2.26447ZM3.73324 11.3879C3.53432 11.5688 3.20791 11.6241 2.76317 11.5523C2.66172 11.5321 2.55828 11.5237 2.4549 11.5272C2.46246 11.4304 2.45999 11.333 2.44751 11.2367C2.37568 10.7913 2.43111 10.4643 2.61201 10.2649C2.77334 10.0872 3.00401 10.0508 3.11547 10.0441C3.36047 10.356 3.64187 10.6376 3.95369 10.8828C3.9471 10.9949 3.91106 11.2262 3.73335 11.3879H3.73324ZM5.6227 12.2918C5.50763 12.5353 5.22586 12.7101 4.78518 12.8111C4.68358 12.8305 4.58455 12.8616 4.49006 12.9037C4.46067 12.8111 4.42178 12.7218 4.37402 12.6373C4.13965 12.2509 4.06777 11.9263 4.16038 11.6729C4.24214 11.449 4.43901 11.3286 4.53983 11.2796C4.88468 11.4787 5.25246 11.6351 5.63508 11.7454C5.67109 11.8513 5.72422 12.0771 5.62283 12.2918H5.6227ZM7.79496 12.4072C7.78296 12.6777 7.59054 12.9494 7.22307 13.2148C7.13705 13.2723 7.05794 13.3394 6.98731 13.415C6.92421 13.3412 6.85366 13.2741 6.77677 13.2148C6.41162 12.9511 6.22005 12.6813 6.20741 12.4129C6.1962 12.1745 6.33265 11.9863 6.40763 11.9018C6.80332 11.9496 7.20335 11.9493 7.59899 11.901C7.67266 11.9855 7.80557 12.1717 7.7951 12.4072H7.79496ZM9.59525 12.6514C9.53789 12.7375 9.49068 12.8299 9.45454 12.9268C9.3679 12.8829 9.27695 12.8481 9.18315 12.8229C8.74434 12.7198 8.46352 12.5442 8.34851 12.3012C8.24655 12.0858 8.29989 11.8601 8.3364 11.7534C8.72081 11.645 9.09056 11.4902 9.43745 11.2923C9.53799 11.3419 9.7338 11.4635 9.81419 11.6877C9.90555 11.942 9.83185 12.2662 9.59539 12.6514H9.59525ZM11.5522 11.2367C11.532 11.3382 11.5236 11.4416 11.5271 11.545C11.4303 11.5374 11.3329 11.5399 11.2366 11.5523C10.7918 11.6241 10.4655 11.5687 10.2663 11.3879C10.0886 11.2263 10.0525 10.9952 10.0459 10.8831C10.3594 10.6365 10.6422 10.353 10.8881 10.0389C10.9989 10.0465 11.2256 10.0844 11.3853 10.2594C11.5685 10.4599 11.6246 10.7887 11.5524 11.2367H11.5522ZM12.7923 9.26312C12.8109 9.36487 12.8412 9.46414 12.8825 9.55896C12.7897 9.58759 12.7001 9.62573 12.6151 9.67279C12.2277 9.90346 11.9036 9.97226 11.6517 9.87735C11.4275 9.79283 11.3087 9.59207 11.2612 9.49049C11.4625 9.14742 11.6213 8.78117 11.7343 8.3998C11.8403 8.36535 12.0656 8.31539 12.2789 8.41894C12.5221 8.53671 12.6949 8.82078 12.7924 9.26312H12.7923ZM13.2147 7.22328C12.9507 7.58881 12.6806 7.78071 12.4117 7.79362C12.173 7.8051 11.985 7.66904 11.9006 7.5945C11.9485 7.1986 11.9484 6.79836 11.9001 6.4025C11.9844 6.32846 12.1711 6.19439 12.4076 6.20563C12.6779 6.21755 12.9495 6.4098 13.2147 6.77711C13.2721 6.86314 13.3393 6.94226 13.4149 7.0129C13.3411 7.07592 13.2741 7.14639 13.2148 7.2232L13.2147 7.22328Z" fill="black"/>
<path d="M6.98764 5.78882C6.74353 5.78882 6.50491 5.8612 6.30194 5.99682C6.09898 6.13244 5.94079 6.32519 5.84737 6.55071C5.75395 6.77623 5.72951 7.02439 5.77713 7.26381C5.82475 7.50322 5.9423 7.72314 6.1149 7.89574C6.28751 8.06835 6.50742 8.1859 6.74683 8.23353C6.98625 8.28115 7.23441 8.25672 7.45993 8.16331C7.68545 8.0699 7.87821 7.91171 8.01384 7.70875C8.14946 7.50578 8.22185 7.26716 8.22185 7.02306C8.22149 6.69583 8.09134 6.38212 7.85996 6.15073C7.62858 5.91934 7.31486 5.78919 6.98764 5.78882ZM6.98764 7.92912C6.80843 7.92912 6.63324 7.87598 6.48423 7.77642C6.33523 7.67685 6.21909 7.53534 6.15051 7.36977C6.08193 7.2042 6.06399 7.02202 6.09896 6.84625C6.13392 6.67049 6.22022 6.50904 6.34694 6.38232C6.47366 6.2556 6.63512 6.16931 6.81088 6.13435C6.98665 6.09939 7.16883 6.11734 7.3344 6.18592C7.49997 6.25451 7.64148 6.37065 7.74104 6.51966C7.8406 6.66867 7.89373 6.84385 7.89373 7.02306C7.89345 7.26328 7.7979 7.49359 7.62803 7.66345C7.45817 7.83331 7.22786 7.92885 6.98764 7.92912Z" fill="black"/>
<path d="M11.2824 6.87572C11.2175 4.61571 9.37308 2.78865 7.11246 2.74425C4.94839 2.7017 3.13829 4.28323 2.82023 6.3502C2.81658 6.37363 2.81803 6.39757 2.8245 6.42038C2.83097 6.44319 2.8423 6.46433 2.85771 6.48235C2.87312 6.50037 2.89224 6.51485 2.91377 6.52479C2.9353 6.53472 2.95872 6.53988 2.98243 6.53991H2.98259C3.0218 6.53986 3.05969 6.52576 3.0894 6.50018C3.1191 6.4746 3.13867 6.43922 3.14455 6.40046C3.19738 6.05754 3.29577 5.72322 3.43713 5.40635L4.40097 7.02237L3.43776 8.59644C3.27551 8.23316 3.16985 7.84718 3.12445 7.45191C3.11866 7.40965 3.09663 7.37131 3.06304 7.34502C3.02945 7.31873 2.98694 7.30655 2.94453 7.31107C2.90212 7.31559 2.86313 7.33645 2.83584 7.36923C2.80854 7.40201 2.79509 7.44413 2.79833 7.48666C3.0404 9.60581 4.84454 11.2571 7.02731 11.2571C9.41592 11.257 11.3513 9.27951 11.2824 6.87572ZM10.4478 5.07279H8.46179L7.2728 3.07943C7.92601 3.1216 8.5584 3.32595 9.11277 3.674C9.66714 4.02204 10.126 4.5028 10.4478 5.07279ZM9.40548 7.29545L10.184 8.60059H8.60682L9.40548 7.29545ZM8.22226 8.60059H5.72454L4.78438 7.02447L5.77786 5.40097H8.27547L9.2156 6.97717L8.22226 8.60059ZM8.65763 5.40091H10.1801L9.40898 6.66094L8.65763 5.40091ZM7.04265 3.33402L8.07974 5.07279H5.97865L7.04265 3.33402ZM6.81501 3.0774L5.59395 5.07279H3.6051C3.92951 4.49737 4.39363 4.01294 4.95464 3.66421C5.51564 3.31547 6.15545 3.11366 6.81501 3.0774ZM3.81603 5.40091H5.39317L4.59451 6.70606L3.81603 5.40091ZM4.59101 7.34057L5.34255 8.60059H3.81992L4.59101 7.34057ZM3.60576 8.92872H5.5382L6.7242 10.9171C6.08123 10.8667 5.46051 10.659 4.91671 10.3122C4.3729 9.9655 3.92267 9.49039 3.60568 8.92872H3.60576ZM6.95737 10.6675L5.92024 8.92872H8.02137L6.95737 10.6675ZM7.18415 10.9255L8.40604 8.92872H10.4492C10.1201 9.51206 9.64739 10.0017 9.07599 10.3511C8.50458 10.7006 7.85339 10.8983 7.18415 10.9255ZM10.5937 8.64702L9.59896 6.97927L10.5929 5.35506C10.832 5.87086 10.956 6.43254 10.9561 7.00106C10.9562 7.56959 10.8326 8.13133 10.5937 8.64724V8.64702Z" fill="black"/>
<path d="M2.77474 7.11872C2.83452 9.37887 4.67489 11.2101 6.93541 11.2595C9.09937 11.3069 10.913 9.72943 11.2357 7.66318C11.2394 7.63976 11.238 7.61582 11.2316 7.593C11.2252 7.57017 11.2139 7.549 11.1985 7.53095C11.1831 7.51289 11.1641 7.49838 11.1425 7.48839C11.121 7.47841 11.0976 7.4732 11.0739 7.47311C11.0347 7.47308 10.9966 7.48709 10.9669 7.51261C10.9371 7.53812 10.9175 7.57345 10.9115 7.6122C10.8579 7.955 10.7588 8.2891 10.6167 8.60565L9.65647 6.98748L10.6232 5.41557C10.7846 5.77921 10.8894 6.16543 10.9339 6.5608C10.9396 6.60307 10.9616 6.64146 10.9951 6.66782C11.0286 6.69419 11.0711 6.70646 11.1135 6.70204C11.156 6.69761 11.195 6.67684 11.2224 6.64412C11.2497 6.6114 11.2633 6.56931 11.2601 6.52677C11.0228 4.4071 9.22238 2.75172 7.03961 2.74683C4.65101 2.74162 2.71117 4.71478 2.77474 7.11872ZM3.60526 8.92352L5.59129 8.92797L6.77581 10.924C6.1227 10.8803 5.49077 10.6746 4.93718 10.3253C4.3836 9.97601 3.92582 9.49422 3.60526 8.92352ZM4.65258 6.70319L3.87703 5.39631L5.45416 5.39984L4.65258 6.70319ZM5.83872 5.4007L8.33643 5.4063L9.27306 6.98452L8.27594 8.6058L5.77834 8.6002L4.84174 7.0219L5.83872 5.4007ZM5.39619 8.5994L3.87375 8.59599L4.64766 7.3377L5.39619 8.5994ZM7.00653 10.6699L5.97334 8.92882L8.07443 8.93353L7.00653 10.6699ZM7.2336 10.927L8.45912 8.93439L10.448 8.93884C10.1223 9.51353 9.65706 9.99691 9.09528 10.3444C8.5335 10.6919 7.89324 10.8922 7.2336 10.927ZM10.2378 8.61024L8.66064 8.60671L9.46222 7.30336L10.2378 8.61024ZM9.46714 6.66886L8.71842 5.40715L10.2411 5.41056L9.46714 6.66886ZM10.4559 5.08292L8.52351 5.07859L7.34196 3.08753C7.98482 3.13939 8.60507 3.3485 9.1481 3.69646C9.69113 4.04441 10.1402 4.52054 10.4559 5.08292ZM7.10824 3.33665L8.14147 5.07773L6.04035 5.07303L7.10824 3.33665ZM6.88203 3.07813L5.65568 5.07217L3.6125 5.06759C3.94295 4.48499 4.41673 3.99645 4.98892 3.64828C5.5611 3.30012 6.21273 3.10386 6.88203 3.07813ZM3.46739 5.34896L4.45839 7.01894L3.46078 8.64093C3.22284 8.12459 3.10018 7.56263 3.10132 6.99411C3.10246 6.42558 3.22738 5.86434 3.46739 5.34896Z" fill="black"/>
<div>Icons made by <a href="" title="Icongeek26">Icongeek26</a> from <a href="https://www.flaticon.com/" title="Flaticon">www.flaticon.com</a></div>
</svg>
