<svg width="377" height="40" viewBox="0 0 377 40" fill="none" xmlns="http://www.w3.org/2000/svg">
<line x1="238" y1="19.5" x2="377" y2="19.5" stroke="black"/>
<line y1="19.5" x2="139" y2="19.5" stroke="black"/>
<g clip-path="url(#clip0)">
<path d="M169.456 20.6327C170.435 20.9587 170.643 21.5867 170.959 22.5373C171.146 23.1832 171.422 23.8 171.779 24.37C172.491 25.3895 173.548 26.1171 174.755 26.4187C174.851 27.3307 174.622 27.5187 174.422 27.6507C174.394 27.6653 174.366 27.6807 174.339 27.6967L174.243 27.75C174.032 27.8614 173.896 28.077 173.887 28.3157C173.877 28.5545 173.996 28.78 174.198 28.9074C174.4 29.0348 174.655 29.0447 174.867 28.9333C174.913 28.91 174.957 28.8853 175 28.86L175.081 28.816C175.287 28.7033 175.54 28.568 176.319 29.1353C175.976 30.3306 176.078 31.6096 176.606 32.7353C176.923 33.329 177.319 33.8764 177.785 34.362C178.452 35.11 178.889 35.6047 178.683 36.6127C178.628 36.891 178.755 37.1738 179 37.3173C179.101 37.3755 179.216 37.4063 179.333 37.4067C179.495 37.4066 179.652 37.3473 179.774 37.24C180.549 36.5573 181.197 36.6913 182.174 36.8913C182.828 37.052 183.501 37.1218 184.174 37.0987C185.412 36.9906 186.57 36.4387 187.434 35.5447C188.333 35.9333 188.333 36.222 188.333 36.6667C188.333 37.0349 188.632 37.3333 189 37.3333C189.368 37.3333 189.667 37.0349 189.667 36.6667C189.667 36.2247 189.667 35.9367 190.564 35.5447C191.428 36.4387 192.585 36.9906 193.824 37.0987C194.497 37.1218 195.17 37.0521 195.824 36.8913C196.805 36.6913 197.453 36.558 198.224 37.24C198.346 37.3473 198.502 37.4066 198.665 37.4067C198.782 37.4063 198.896 37.3755 198.998 37.3173C199.246 37.1738 199.375 36.8876 199.317 36.6067C199.111 35.5987 199.551 35.104 200.215 34.356C200.681 33.8701 201.078 33.3226 201.395 32.7287C201.923 31.6027 202.024 30.3239 201.682 29.1287C202.425 28.58 202.693 28.688 202.913 28.806L202.999 28.854C203.042 28.8787 203.086 28.9033 203.132 28.9267C203.456 29.0868 203.849 28.9587 204.017 28.6382C204.185 28.3177 204.067 27.9217 203.751 27.746L203.667 27.7027C203.633 27.6827 203.6 27.664 203.573 27.65C203.373 27.5167 203.147 27.3313 203.24 26.4187C204.447 26.1171 205.504 25.3898 206.217 24.3707C206.573 23.8003 206.849 23.1834 207.036 22.5373C207.352 21.5867 207.561 20.9587 208.539 20.6327C208.813 20.5427 208.998 20.2873 208.998 19.9993C208.998 19.7114 208.813 19.4559 208.539 19.366C207.561 19.04 207.352 18.412 207.036 17.4613C206.849 16.8155 206.573 16.1987 206.217 15.6287C205.504 14.6091 204.447 13.8816 203.24 13.58C203.145 12.672 203.369 12.482 203.569 12.35C203.636 12.3147 203.703 12.2787 203.769 12.2367C204.085 12.0513 204.193 11.6456 204.009 11.3282C203.826 11.0108 203.421 10.9009 203.103 11.082L202.914 11.1853C202.707 11.298 202.455 11.4333 201.676 10.866C202.018 9.67177 201.916 8.39415 201.389 7.26934C201.072 6.67563 200.675 6.12828 200.209 5.64267C199.543 4.89467 199.105 4.4 199.311 3.392C199.368 3.11129 199.24 2.82541 198.992 2.68188C198.744 2.53835 198.432 2.56926 198.217 2.75867C197.443 3.44267 196.795 3.30934 195.817 3.10734C195.163 2.9466 194.49 2.87683 193.817 2.9C192.579 3.00805 191.421 3.55993 190.557 4.454C189.67 4.06667 189.667 3.778 189.667 3.33334C189.667 2.96515 189.368 2.66667 189 2.66667C188.632 2.66667 188.333 2.96515 188.333 3.33334C188.333 3.77534 188.333 4.06334 187.436 4.45534C186.572 3.56126 185.414 3.00938 184.176 2.90134C183.503 2.87835 182.83 2.94812 182.176 3.10867C181.196 3.30867 180.548 3.442 179.776 2.76C179.561 2.57059 179.249 2.53968 179.001 2.68321C178.753 2.82674 178.625 3.11263 178.682 3.39334C178.888 4.40134 178.449 4.896 177.784 5.644C177.318 6.12988 176.921 6.67743 176.604 7.27134C176.076 8.39727 175.975 9.67612 176.317 10.8713C175.574 11.42 175.306 11.312 175.087 11.1947L174.893 11.088C174.574 10.9069 174.169 11.0168 173.986 11.3342C173.802 11.6516 173.91 12.0573 174.226 12.2427C174.301 12.2873 174.368 12.3253 174.426 12.3553C174.626 12.4887 174.85 12.6753 174.756 13.586C173.549 13.8876 172.492 14.6149 171.779 15.634C171.423 16.2043 171.147 16.8213 170.96 17.4673C170.644 18.418 170.435 19.046 169.457 19.372C169.183 19.4619 168.998 19.7174 168.998 20.0053C168.998 20.2933 169.183 20.5487 169.457 20.6387L169.456 20.6327ZM176.301 18.6667C176.443 18.4487 176.589 18.2253 176.747 18.0073C177.147 17.3195 177.827 16.8411 178.61 16.698L178.613 16.7333C178.633 17.8726 178.919 18.9915 179.449 20C178.917 21.0132 178.631 22.1372 178.614 23.2813L178.61 23.3247C177.82 23.1828 177.133 22.6995 176.733 22.004C176.579 21.7893 176.435 21.5673 176.294 21.3507C176.005 20.8649 175.66 20.4147 175.267 20.0093C175.663 19.6043 176.01 19.1536 176.301 18.6667ZM181.133 10.3787C181.243 10.1327 181.365 9.89267 181.483 9.65867C181.756 9.16837 181.971 8.64769 182.122 8.10734C182.671 8.24901 183.236 8.3251 183.803 8.334C184.062 8.348 184.326 8.36267 184.591 8.39C185.388 8.39085 186.145 8.74334 186.658 9.35334L186.634 9.37067C185.654 9.95517 184.827 10.7632 184.22 11.7287C183.083 11.7713 181.972 12.0815 180.977 12.634L180.915 12.662C180.648 11.9058 180.728 11.0706 181.133 10.3787ZM193.4 8.37C193.667 8.34467 193.929 8.33134 194.187 8.318C194.753 8.31197 195.315 8.23879 195.863 8.1C196.014 8.64367 196.23 9.16754 196.504 9.66067C196.622 9.894 196.743 10.1333 196.853 10.3793C197.242 11.0734 197.315 11.9013 197.053 12.6527L197.015 12.636C196.02 12.0864 194.911 11.7773 193.776 11.7333C193.164 10.763 192.331 9.95056 191.347 9.362L191.311 9.33334C191.833 8.72162 192.596 8.36947 193.4 8.37ZM199.387 16.718L199.392 16.6733C200.183 16.8126 200.87 17.2976 201.267 17.996C201.421 18.2107 201.565 18.4327 201.706 18.6493C201.995 19.1351 202.339 19.5853 202.733 19.9907C202.337 20.3957 201.99 20.8464 201.699 21.3333C201.557 21.5513 201.411 21.7747 201.253 21.9927C200.853 22.6805 200.172 23.1589 199.39 23.302L199.387 23.2667C199.367 22.1274 199.081 21.0085 198.551 20C199.082 18.9866 199.369 17.8624 199.386 16.718H199.387ZM196.867 29.6213C196.757 29.8673 196.635 30.1073 196.517 30.3413C196.244 30.8316 196.029 31.3523 195.878 31.8927C195.328 31.751 194.764 31.6749 194.197 31.666C193.938 31.652 193.674 31.6373 193.409 31.61C192.611 31.6092 191.855 31.2567 191.342 30.6467L191.366 30.6293C192.345 30.0435 193.172 29.2338 193.778 28.2667C193.809 28.2667 193.841 28.2733 193.872 28.2733C194.971 28.2073 196.041 27.8966 197.005 27.364L197.079 27.3333C197.349 28.09 197.271 28.9274 196.867 29.6213ZM184.6 31.63C184.333 31.6553 184.071 31.6687 183.813 31.682C183.247 31.688 182.685 31.7612 182.137 31.9C181.985 31.3563 181.77 30.8325 181.496 30.3393C181.378 30.106 181.257 29.8667 181.147 29.6207C180.758 28.9266 180.685 28.0987 180.947 27.3473L180.985 27.364C181.954 27.8975 183.029 28.208 184.133 28.2727C184.163 28.2727 184.194 28.2673 184.223 28.2667C184.835 29.2382 185.668 30.0515 186.654 30.6407L186.689 30.666C186.168 31.2781 185.404 31.6306 184.6 31.63ZM179.874 24.0967C179.9 23.87 179.921 23.6367 179.941 23.3987C179.927 22.3422 180.218 21.3042 180.779 20.4087C181.062 20.055 181.411 19.7594 181.806 19.538C182.208 19.2975 182.64 19.1117 183.091 18.9853C182.581 21.8347 184.198 24.6369 186.919 25.6227C186.586 25.9501 186.211 26.2327 185.805 26.4633C185.418 26.6972 184.987 26.8505 184.539 26.914C183.49 26.952 182.453 26.6892 181.55 26.1567C181.336 26.0567 181.125 25.9567 180.921 25.8707C180.494 25.6725 180.044 25.5266 179.583 25.436C179.734 25.0026 179.832 24.5524 179.875 24.0953L179.874 24.0967ZM189 15.3333C191.577 15.3333 193.667 17.4227 193.667 20C193.667 22.5773 191.577 24.6667 189 24.6667C186.423 24.6667 184.333 22.5773 184.333 20C184.336 17.4239 186.424 15.3363 189 15.3333ZM187.983 29.9507C187.801 29.8173 187.611 29.684 187.417 29.5507C186.747 29.1338 186.146 28.6139 185.638 28.01C185.927 27.9048 186.207 27.7743 186.473 27.62C187.217 27.2115 187.864 26.6487 188.372 25.9693C188.789 26.0138 189.21 26.0138 189.628 25.9693C190.136 26.6492 190.784 27.2123 191.528 27.6207C191.794 27.775 192.074 27.9055 192.363 28.0107C191.859 28.608 191.264 29.1219 190.6 29.5333C190.411 29.6667 190.224 29.796 190.044 29.9287C189.659 30.2008 189.309 30.5182 189 30.874C188.698 30.5271 188.357 30.2172 187.983 29.9507ZM197.11 25.8547C196.892 25.948 196.67 26.0547 196.443 26.156C195.541 26.6911 194.503 26.9536 193.455 26.912C193.008 26.8485 192.579 26.6957 192.193 26.4627C191.786 26.232 191.411 25.9491 191.077 25.6213C193.799 24.6355 195.415 21.8334 194.906 18.984C195.356 19.1105 195.788 19.2961 196.19 19.536C196.585 19.7576 196.934 20.0535 197.218 20.4073C197.777 21.2976 198.068 22.33 198.057 23.3813C198.077 23.6133 198.097 23.8413 198.123 24.0573C198.163 24.5279 198.26 24.9918 198.413 25.4387C197.963 25.5242 197.526 25.6638 197.11 25.8547ZM198.125 15.9047C198.099 16.1313 198.078 16.3647 198.058 16.6027C198.032 17.391 197.883 18.1703 197.615 18.912C197.379 18.7145 197.127 18.5377 196.862 18.3833C196.136 17.941 195.323 17.6612 194.479 17.5633C194.307 17.1811 194.096 16.8178 193.849 16.4793C194.188 15.6978 194.353 14.8518 194.333 14C194.334 13.6938 194.308 13.3882 194.255 13.0867C195.021 13.2239 195.762 13.4797 196.45 13.8447C196.664 13.9447 196.875 14.0447 197.079 14.1307C197.506 14.3288 197.955 14.4747 198.417 14.5653C198.266 14.9983 198.167 15.448 198.125 15.9047ZM190.017 10.0493C190.199 10.1827 190.389 10.316 190.583 10.4493C191.508 10.9679 192.263 11.7428 192.758 12.6807C192.926 13.0997 193.009 13.5484 193 14C193.006 14.4692 192.951 14.9371 192.836 15.392C190.615 13.5359 187.384 13.5359 185.164 15.392C185.049 14.9371 184.994 14.4692 185 14C184.992 13.5476 185.075 13.0982 185.244 12.6787C185.733 11.7481 186.482 10.9797 187.4 10.4667C187.589 10.3333 187.776 10.204 187.956 10.0713C188.34 9.79919 188.691 9.4818 189 9.126C189.301 9.47287 189.643 9.7828 190.017 10.0493ZM180.89 14.1387C181.105 14.0467 181.322 13.946 181.543 13.8433C182.232 13.4768 182.975 13.2204 183.743 13.0833C183.691 13.386 183.665 13.6928 183.667 14C183.647 14.8519 183.812 15.6979 184.152 16.4793C183.905 16.817 183.695 17.1794 183.523 17.5607C182.678 17.6577 181.863 17.9387 181.138 18.384C180.872 18.5381 180.621 18.7148 180.385 18.912C180.118 18.1755 179.969 17.4016 179.942 16.6187C179.921 16.3867 179.901 16.1587 179.875 15.9427C179.835 15.4719 179.736 15.008 179.58 14.562C180.032 14.4761 180.473 14.3339 180.89 14.1387ZM176.012 25.778C176 25.7 175.983 25.6167 175.953 25.4667C175.815 24.7998 175.919 24.1057 176.245 23.508C176.817 24.1329 177.59 24.5377 178.429 24.652C178.359 25.1102 178.091 25.5143 177.696 25.7567C177.389 25.9463 177.289 26.3451 177.469 26.6571C177.65 26.9691 178.045 27.0814 178.363 26.9107C178.778 26.6827 179.275 26.6558 179.713 26.8373C179.394 27.6199 179.356 28.4887 179.606 29.296C178.919 29.2859 178.258 29.0292 177.744 28.5727C177.668 28.5013 177.589 28.4345 177.505 28.3727C177.077 27.9837 176.58 27.6792 176.039 27.4753C176.136 26.9129 176.127 26.3371 176.012 25.778ZM184.091 35.768C183.537 35.781 182.983 35.7193 182.445 35.5847C181.653 35.3499 180.81 35.3427 180.013 35.564C179.806 34.7642 179.378 34.0388 178.779 33.4707C178.393 33.0722 178.063 32.6238 177.797 32.1373C177.487 31.4823 177.382 30.749 177.496 30.0333C178.17 30.4341 178.941 30.6417 179.725 30.6333C179.865 30.6333 180.006 30.626 180.149 30.614C180.203 30.722 180.254 30.8347 180.307 30.9407C180.774 31.864 181.046 32.4553 180.763 32.9467C180.642 33.153 180.64 33.4084 180.76 33.6159C180.879 33.8233 181.1 33.951 181.339 33.9505C181.578 33.95 181.799 33.8213 181.917 33.6133C182.201 33.1227 182.851 33.066 183.881 33.0133C183.999 33.0067 184.121 32.996 184.241 32.9887C184.625 33.8254 185.262 34.5201 186.063 34.974C185.5 35.431 184.813 35.7077 184.091 35.768ZM189 34.9547C188.563 34.594 188.061 34.3194 187.522 34.1453C187.455 34.1173 187.384 34.0927 187.309 34.068L187.208 34.034C186.562 33.8189 186.014 33.3816 185.66 32.8C186.485 32.6149 187.22 32.149 187.74 31.482C188.102 31.7704 188.319 32.2037 188.333 32.6667C188.333 33.0349 188.632 33.3333 189 33.3333C189.368 33.3333 189.667 33.0349 189.667 32.6667C189.678 32.1906 189.905 31.7456 190.283 31.456C190.798 32.1235 191.528 32.5911 192.35 32.7787C191.992 33.3724 191.435 33.8191 190.777 34.0387L190.69 34.068C190.615 34.0927 190.543 34.1173 190.505 34.1347C189.957 34.3114 189.446 34.5896 189 34.9547ZM200.2 32.1373C199.934 32.6238 199.604 33.0723 199.219 33.4707C198.619 34.0388 198.191 34.7642 197.984 35.564C197.187 35.3427 196.345 35.3499 195.552 35.5847C195.014 35.7192 194.461 35.7809 193.907 35.768C193.184 35.7075 192.496 35.4303 191.933 34.9727C192.738 34.5142 193.378 33.8146 193.764 32.9727C193.883 32.98 194.003 32.9913 194.121 32.998C195.159 33.056 195.809 33.116 196.094 33.612C196.213 33.8186 196.433 33.946 196.672 33.9462C196.91 33.9464 197.131 33.8193 197.25 33.6129C197.369 33.4064 197.37 33.152 197.251 32.9453C196.966 32.4493 197.224 31.8887 197.704 30.9407C197.759 30.832 197.81 30.7193 197.865 30.6073C197.998 30.618 198.137 30.6253 198.27 30.6253C199.055 30.6334 199.828 30.4259 200.503 30.0253C200.618 30.7438 200.512 31.4802 200.2 32.1373ZM202.031 25.5287C202.014 25.6167 201.997 25.7 201.987 25.768C201.868 26.3293 201.857 26.908 201.955 27.4733C201.43 27.6687 200.949 27.9629 200.536 28.34C200.438 28.4102 200.344 28.4863 200.255 28.568C199.745 29.0207 199.09 29.2771 198.407 29.2913C198.661 28.484 198.626 27.6134 198.307 26.8293C198.738 26.6595 199.223 26.6891 199.63 26.91C199.947 27.0808 200.343 26.9685 200.523 26.6564C200.703 26.3444 200.603 25.9456 200.297 25.756C199.892 25.5094 199.621 25.0926 199.56 24.6227C200.396 24.5084 201.167 24.1079 201.741 23.4893C202.081 24.1114 202.185 24.8358 202.034 25.5287H202.031ZM205.109 16.3707C205.398 16.8425 205.621 17.3513 205.773 17.8833C205.965 18.6876 206.381 19.4212 206.972 20C206.381 20.5787 205.965 21.3123 205.772 22.1167C205.62 22.6488 205.397 23.1579 205.109 23.63C204.694 24.2276 204.11 24.6863 203.431 24.946C203.44 24.0179 203.152 23.1111 202.609 22.358C202.676 22.2587 202.747 22.158 202.809 22.0607C203.378 21.194 203.755 20.6607 204.328 20.6607C204.696 20.6607 204.995 20.3622 204.995 19.994C204.995 19.6258 204.696 19.3273 204.328 19.3273C203.759 19.3273 203.383 18.794 202.817 17.9227C202.753 17.8247 202.683 17.7267 202.617 17.628C203.149 16.8758 203.431 15.9744 203.421 15.0527C204.105 15.3104 204.695 15.77 205.112 16.3707H205.109ZM201.985 14.222C201.997 14.3 202.014 14.3833 202.044 14.5333C202.182 15.2002 202.078 15.8943 201.752 16.492C201.18 15.8671 200.407 15.4623 199.568 15.348C199.637 14.8905 199.904 14.4865 200.298 14.2433C200.604 14.0537 200.705 13.6549 200.524 13.3429C200.344 13.0309 199.949 12.9186 199.631 13.0893C199.216 13.3169 198.719 13.3437 198.282 13.162C198.601 12.3795 198.639 11.5107 198.389 10.7033C199.077 10.7134 199.737 10.9701 200.251 11.4267C200.327 11.4981 200.406 11.5648 200.49 11.6267C200.918 12.0156 201.415 12.3201 201.957 12.524C201.86 13.087 201.871 13.663 201.988 14.222H201.985ZM193.909 4.232C194.463 4.21841 195.017 4.28009 195.555 4.41534C196.347 4.65012 197.19 4.65728 197.987 4.436C198.194 5.23577 198.621 5.96118 199.221 6.52934C199.607 6.92779 199.937 7.37625 200.203 7.86267C200.513 8.51984 200.618 9.25556 200.503 9.97334C199.704 9.50093 198.775 9.29566 197.851 9.38734C197.798 9.27867 197.747 9.16667 197.693 9.06C197.226 8.13667 196.954 7.54534 197.237 7.054C197.418 6.73543 197.308 6.33039 196.991 6.14715C196.674 5.96392 196.268 6.07119 196.083 6.38734C195.799 6.878 195.149 6.93467 194.119 6.98734C194.001 6.994 193.879 7.00467 193.759 7.012C193.375 6.17525 192.738 5.48058 191.937 5.02667C192.499 4.56941 193.186 4.29245 193.909 4.232ZM189 5.04534C189.437 5.406 189.939 5.68062 190.478 5.85467C190.545 5.88267 190.616 5.90734 190.691 5.932L190.792 5.966C191.438 6.18114 191.986 6.6184 192.34 7.2C191.515 7.38514 190.78 7.851 190.26 8.518C189.898 8.22959 189.68 7.79627 189.667 7.33334C189.667 6.96515 189.368 6.66667 189 6.66667C188.632 6.66667 188.333 6.96515 188.333 7.33334C188.321 7.80937 188.095 8.25445 187.717 8.544C187.202 7.87655 186.471 7.40892 185.65 7.22134C186.008 6.62763 186.565 6.18089 187.223 5.96134L187.31 5.932C187.385 5.90734 187.458 5.88267 187.495 5.86534C188.043 5.68861 188.554 5.41046 189 5.04534ZM177.8 7.86267C178.066 7.37618 178.396 6.9277 178.781 6.52934C179.381 5.96118 179.809 5.23577 180.016 4.436C180.812 4.65728 181.655 4.65012 182.448 4.41534C182.986 4.28007 183.539 4.2184 184.093 4.232C184.816 4.29253 185.504 4.56972 186.067 5.02734C185.262 5.48579 184.622 6.18537 184.236 7.02734C184.117 7.02 183.997 7.00867 183.879 7.002C182.841 6.944 182.191 6.884 181.906 6.388C181.787 6.18138 181.568 6.05368 181.329 6.05299C181.091 6.05229 180.871 6.17872 180.751 6.38465C180.631 6.59058 180.631 6.84472 180.749 7.05134C181.034 7.54734 180.776 8.108 180.296 9.056C180.241 9.16467 180.19 9.27734 180.135 9.38934C179.216 9.30168 178.293 9.50703 177.498 9.976C177.383 9.25723 177.488 8.52038 177.8 7.86267ZM175.969 14.4713C175.986 14.3833 176.003 14.3 176.013 14.232C176.132 13.6707 176.143 13.092 176.045 12.5267C176.569 12.3314 177.051 12.0371 177.464 11.66C177.562 11.5899 177.656 11.5137 177.745 11.432C178.255 10.9806 178.91 10.7256 179.592 10.7127C179.338 11.5179 179.373 12.3865 179.691 13.1687C179.258 13.3408 178.771 13.3114 178.362 13.0887C178.043 12.9046 177.635 13.014 177.451 13.333C177.267 13.652 177.376 14.0599 177.695 14.244C178.101 14.493 178.373 14.9102 178.439 15.3813C177.603 15.4962 176.833 15.8966 176.26 16.5147C175.918 15.8915 175.813 15.1656 175.966 14.4713H175.969ZM172.225 17.8833C172.377 17.351 172.601 16.8419 172.891 16.37C173.305 15.7724 173.89 15.3137 174.569 15.054C174.56 15.9821 174.848 16.8889 175.391 17.642C175.324 17.7413 175.253 17.842 175.191 17.9393C174.622 18.806 174.245 19.3393 173.672 19.3393C173.304 19.3393 173.005 19.6378 173.005 20.006C173.005 20.3742 173.304 20.6727 173.672 20.6727C174.241 20.6727 174.617 21.206 175.183 22.0773C175.25 22.1753 175.317 22.2733 175.383 22.372C174.85 23.1242 174.569 24.0256 174.579 24.9473C173.897 24.6882 173.31 24.2284 172.895 23.6287C172.605 23.1571 172.381 22.6482 172.229 22.116C172.035 21.3118 171.619 20.5785 171.028 20C171.618 19.4209 172.032 18.6873 172.225 17.8833Z" fill="black"/>
</g>
<defs>
<clipPath id="clip0">
<rect width="40" height="40" fill="white" transform="translate(169)"/>
</clipPath>
</defs>
<div>Icons made by <a href="https://www.flaticon.com/authors/smashicons" title="Smashicons">Smashicons</a> from <a href="https://www.flaticon.com/" title="Flaticon">www.flaticon.com</a></div>
</svg>