<svg width="241" height="61" viewBox="0 0 241 61" fill="none" xmlns="http://www.w3.org/2000/svg">
<path d="M26.0369 4.06154C26.0369 2.33846 25.1217 1.47692 23.2912 1.47692C21.709 1.47692 19.6458 2.21538 17.1018 3.69231C14.5888 5.16923 11.9982 7.43077 9.33012 10.4769C6.662 13.4923 4.80052 16.6615 3.74568 19.9846C3.31134 21.3077 3.09416 22.5385 3.09416 23.6769C3.09416 24.7846 3.41992 25.7538 4.07144 26.5846C5.21935 28.0615 7.09635 28.8154 9.70242 28.8462C9.88857 28.8462 10.0592 28.8462 10.2143 28.8462C13.0996 28.8462 16.2176 28.1231 19.5683 26.6769C22.9189 25.2 25.6026 23.0462 27.6192 20.2154C27.7743 20 27.9294 19.9538 28.0845 20.0769C28.2707 20.2 28.3638 20.3077 28.3638 20.4C28.3638 20.4923 28.3327 20.5692 28.2707 20.6308C25.9749 23.7385 23.1516 26.0769 19.8009 27.6462C16.4503 29.2154 13.2082 30 10.0747 30C6.7861 30 4.30413 29.0769 2.62879 27.2308C1.54293 26.0308 1 24.4615 1 22.5231C1 19.2615 2.24099 15.7538 4.72296 12C8.10465 6.89231 12.1999 3.35385 17.0087 1.38461C18.8702 0.646153 20.6541 0.276922 22.3605 0.276922C24.4702 0.276922 25.9749 0.76923 26.8746 1.75385C27.464 2.43077 27.7588 3.21538 27.7588 4.10769C27.7588 5.8 26.8591 7.53846 25.0596 9.32308C23.2602 11.1077 21.2591 12.5385 19.0564 13.6154C16.8846 14.6615 14.9921 15.2615 13.3788 15.4154C12.7273 15.4769 12.4171 15.3077 12.4481 14.9077C12.4791 14.3538 12.8669 14.0462 13.6115 13.9846C16.0935 13.7692 18.3738 13.0308 20.4525 11.7692C22.5311 10.4769 24.1289 8.76923 25.2458 6.64615C25.7732 5.81538 26.0369 4.95385 26.0369 4.06154Z" fill="#212121"/>
<path d="M29.1622 27.8308C28.6658 27.8308 28.1228 27.6769 27.5334 27.3692C26.9749 27.0923 26.494 26.6923 26.0907 26.1692C25.6874 25.6154 25.4857 25.0308 25.4857 24.4154C25.4857 23.8 25.6253 23.2154 25.9046 22.6615C26.5251 21.3692 27.5178 20.1231 28.8829 18.9231C30.279 17.6923 31.7217 16.6462 33.2109 15.7846C34.7001 14.9231 35.879 14.3846 36.7477 14.1692C37.6164 13.9538 38.454 13.8462 39.2607 13.8462C40.0983 13.8462 40.8119 14.0615 41.4014 14.4923C41.9908 14.8923 42.2856 15.3231 42.2856 15.7846C42.2856 15.9385 42.2701 16.0308 42.239 16.0615C42.208 16.0923 42.1305 16.0769 42.0064 16.0154C41.6341 15.4308 40.8584 15.1385 39.6795 15.1385C38.5316 15.1385 37.2131 15.5231 35.7239 16.2923C34.2657 17.0308 32.8851 17.9692 31.5821 19.1077C30.4962 20.1231 29.5344 21.2769 28.6968 22.5692C27.8901 23.8308 27.4868 24.7538 27.4868 25.3385C27.4868 26.4769 27.8126 27.0462 28.4641 27.0462C29.1156 27.0462 30.1084 26.5231 31.4425 25.4769C33.6452 23.6308 35.1499 22.2769 35.9566 21.4154C38.8108 18.3692 40.3465 16.8462 40.5637 16.8462C40.936 16.8462 41.3859 16.9538 41.9133 17.1692C42.4407 17.3846 42.6113 17.6462 42.4252 17.9538C40.8429 20.1692 39.9122 22.4 39.633 24.6462C39.6019 24.9231 39.5864 25.2769 39.5864 25.7077C39.5864 26.1385 39.7105 26.4923 39.9587 26.7692C40.4241 27.2615 41.0601 27.2923 41.8668 26.8615C42.6734 26.4308 43.7903 25.5692 45.2174 24.2769C46.6756 22.9846 47.839 21.7231 48.7077 20.4923C48.8318 20.3385 48.9714 20.3077 49.1265 20.4C49.2816 20.4615 49.3592 20.5231 49.3592 20.5846C49.3592 21.0462 48.6146 22.0615 47.1254 23.6308C45.6673 25.1692 44.5504 26.2154 43.7748 26.7692C42.3166 27.8462 40.967 28.3846 39.726 28.3846C38.5471 28.3846 37.756 27.8 37.3527 26.6308C37.2596 26.2615 37.2131 25.8462 37.2131 25.3846C37.2131 24 37.5078 22.5385 38.0973 21C37.9732 21.0615 37.3992 21.6769 36.3754 22.8462C35.3516 24.0154 34.1571 25.1385 32.792 26.2154C31.458 27.2923 30.248 27.8308 29.1622 27.8308Z" fill="#212121"/>
<path d="M64.2525 3.78461C64.6248 3.10769 64.8109 2.58461 64.8109 2.21538C64.8109 1.56923 64.5472 1.24615 64.0198 1.24615C63.5855 1.24615 63.0425 1.49231 62.391 1.98461C59.909 3.89231 57.5046 6.90769 55.1778 11.0308C53.3163 14.3538 51.9512 17.2 51.0825 19.5692C53.2232 18.1231 55.6121 15.7692 58.2492 12.5077C60.9173 9.24615 62.9184 6.33846 64.2525 3.78461ZM50.3845 21.4154C50.0122 22.4615 49.8105 23.1692 49.7795 23.5385C49.7485 23.8769 49.733 24.3538 49.733 24.9692C49.733 25.5538 49.8881 26.0923 50.1983 26.5846C50.7257 27.4154 51.6099 27.4769 52.8509 26.7692C53.7817 26.2769 54.9606 25.3846 56.3877 24.0923C57.8149 22.7692 58.9163 21.5692 59.6919 20.4923C59.7539 20.4 59.847 20.3538 59.9711 20.3538C60.2503 20.3538 60.3279 20.5538 60.2038 20.9538C59.7384 21.7846 58.8697 22.8462 57.5977 24.1385C56.3567 25.4308 55.2243 26.4615 54.2005 27.2308C53.1767 27.9692 52.1529 28.3385 51.1291 28.3385C48.7712 28.3385 47.5923 27.2 47.5923 24.9231C47.5923 24.8308 47.5923 24.7385 47.5923 24.6462C47.7164 22.4923 48.8177 19.2462 50.8964 14.9077C52.975 10.5385 54.852 7.24615 56.5274 5.03077L57.97 3.23077C58.3113 2.83077 58.8077 2.33846 59.4592 1.75385C60.7002 0.584615 61.9722 0 63.2752 0C64.6093 0 65.509 0.4 65.9744 1.2C66.1295 1.47692 66.2071 1.87692 66.2071 2.4C66.2071 2.92308 65.9744 3.66154 65.509 4.61538C62.3135 10.1231 57.2719 15.7231 50.3845 21.4154Z" fill="#212121"/>
<path d="M75.205 3.78461C75.5773 3.10769 75.7635 2.58461 75.7635 2.21538C75.7635 1.56923 75.4998 1.24615 74.9724 1.24615C74.538 1.24615 73.9951 1.49231 73.3436 1.98461C70.8616 3.89231 68.4572 6.90769 66.1303 11.0308C64.2689 14.3538 62.9038 17.2 62.0351 19.5692C64.1758 18.1231 66.5647 15.7692 69.2018 12.5077C71.8699 9.24615 73.871 6.33846 75.205 3.78461ZM61.337 21.4154C60.9647 22.4615 60.7631 23.1692 60.732 23.5385C60.701 23.8769 60.6855 24.3538 60.6855 24.9692C60.6855 25.5538 60.8406 26.0923 61.1509 26.5846C61.6783 27.4154 62.5625 27.4769 63.8035 26.7692C64.7342 26.2769 65.9132 25.3846 67.3403 24.0923C68.7674 22.7692 69.8688 21.5692 70.6444 20.4923C70.7065 20.4 70.7995 20.3538 70.9236 20.3538C71.2029 20.3538 71.2804 20.5538 71.1563 20.9538C70.691 21.7846 69.8223 22.8462 68.5503 24.1385C67.3093 25.4308 66.1769 26.4615 65.1531 27.2308C64.1292 27.9692 63.1054 28.3385 62.0816 28.3385C59.7237 28.3385 58.5448 27.2 58.5448 24.9231C58.5448 24.8308 58.5448 24.7385 58.5448 24.6462C58.6689 22.4923 59.7703 19.2462 61.8489 14.9077C63.9276 10.5385 65.8046 7.24615 67.4799 5.03077L68.9226 3.23077C69.2638 2.83077 69.7602 2.33846 70.4117 1.75385C71.6527 0.584615 72.9247 0 74.2278 0C75.5618 0 76.4615 0.4 76.9269 1.2C77.082 1.47692 77.1596 1.87692 77.1596 2.4C77.1596 2.92308 76.9269 3.66154 76.4615 4.61538C73.266 10.1231 68.2245 15.7231 61.337 21.4154Z" fill="#212121"/>
<path d="M72.3361 27.8308C71.8397 27.8308 71.2968 27.6769 70.7073 27.3692C70.1489 27.0923 69.668 26.6923 69.2647 26.1692C68.8614 25.6154 68.6597 25.0308 68.6597 24.4154C68.6597 23.8 68.7993 23.2154 69.0785 22.6615C69.699 21.3692 70.6918 20.1231 72.0569 18.9231C73.453 17.6923 74.8957 16.6462 76.3848 15.7846C77.874 14.9231 79.053 14.3846 79.9216 14.1692C80.7903 13.9538 81.628 13.8462 82.4346 13.8462C83.2723 13.8462 83.9859 14.0615 84.5753 14.4923C85.1648 14.8923 85.4595 15.3231 85.4595 15.7846C85.4595 15.9385 85.444 16.0308 85.413 16.0615C85.382 16.0923 85.3044 16.0769 85.1803 16.0154C84.808 15.4308 84.0324 15.1385 82.8535 15.1385C81.7056 15.1385 80.387 15.5231 78.8978 16.2923C77.4397 17.0308 76.0591 17.9692 74.756 19.1077C73.6702 20.1231 72.7084 21.2769 71.8708 22.5692C71.0641 23.8308 70.6608 24.7538 70.6608 25.3385C70.6608 26.4769 70.9865 27.0462 71.6381 27.0462C72.2896 27.0462 73.2824 26.5231 74.6164 25.4769C76.8192 23.6308 78.3239 22.2769 79.1305 21.4154C81.9848 18.3692 83.5205 16.8462 83.7377 16.8462C84.11 16.8462 84.5598 16.9538 85.0872 17.1692C85.6147 17.3846 85.7853 17.6462 85.5992 17.9538C84.0169 20.1692 83.0862 22.4 82.8069 24.6462C82.7759 24.9231 82.7604 25.2769 82.7604 25.7077C82.7604 26.1385 82.8845 26.4923 83.1327 26.7692C83.5981 27.2615 84.2341 27.2923 85.0407 26.8615C85.8474 26.4308 86.9642 25.5692 88.3914 24.2769C89.8495 22.9846 91.013 21.7231 91.8817 20.4923C92.0058 20.3385 92.1454 20.3077 92.3005 20.4C92.4556 20.4615 92.5332 20.5231 92.5332 20.5846C92.5332 21.0462 91.7886 22.0615 90.2994 23.6308C88.8412 25.1692 87.7243 26.2154 86.9487 26.7692C85.4906 27.8462 84.141 28.3846 82.9 28.3846C81.7211 28.3846 80.9299 27.8 80.5266 26.6308C80.4336 26.2615 80.387 25.8462 80.387 25.3846C80.387 24 80.6817 22.5385 81.2712 21C81.1471 21.0615 80.5732 21.6769 79.5493 22.8462C78.5255 24.0154 77.3311 25.1385 75.966 26.2154C74.6319 27.2923 73.422 27.8308 72.3361 27.8308Z" fill="#212121"/>
<path d="M97.3745 15.3231C97.3745 15.5385 97.2038 16.0154 96.8626 16.7538C96.5213 17.4615 95.544 19.9385 93.9307 24.1846C95.0476 22.8308 96.4592 21.2615 98.1656 19.4769C101.609 15.9077 103.983 14.1231 105.286 14.1231C105.565 14.1231 105.829 14.2 106.077 14.3538C106.356 14.5077 106.496 14.8615 106.496 15.4154C106.496 15.9385 106.325 16.5385 105.984 17.2154C105.643 17.8615 105.255 18.6615 104.82 19.6154C104.386 20.5692 104.091 21.1692 103.936 21.4154C106.542 19.0769 108.512 17.6615 109.846 17.1692C111.18 16.6462 112.065 16.3846 112.499 16.3846C112.933 16.3846 113.151 16.5385 113.151 16.8462C113.151 17.0308 112.918 17.4769 112.452 18.1846C111.987 18.8923 111.475 19.9385 110.917 21.3231C110.358 22.7077 110.048 23.6769 109.986 24.2308C109.924 24.7846 109.893 25.2769 109.893 25.7077C109.893 26.1385 110.017 26.4923 110.265 26.7692C110.731 27.2615 111.367 27.2923 112.173 26.8615C112.98 26.4308 114.097 25.5692 115.524 24.2769C116.982 22.9846 118.145 21.7231 119.014 20.4923C119.138 20.3385 119.278 20.3077 119.433 20.4C119.619 20.4615 119.712 20.5385 119.712 20.6308C119.712 20.6923 119.681 20.7692 119.619 20.8615C119.154 21.6923 118.316 22.7538 117.106 24.0462C115.121 26.1692 113.461 27.4769 112.127 27.9692C110.669 28.4615 109.614 28.5231 108.962 28.1538C108.311 27.7846 107.907 27.3692 107.752 26.9077C107.597 26.4462 107.52 25.9846 107.52 25.5231C107.52 24.0769 107.799 22.6308 108.357 21.1846C108.947 19.7385 109.412 18.7538 109.753 18.2308C108.574 18.7231 107.566 19.3385 106.728 20.0769C105.456 21.1846 104.433 22.1538 103.657 22.9846L102.726 24C102.447 24.6769 101.951 25.0615 101.237 25.1538C100.555 25.2462 100.229 25.0154 100.26 24.4615C100.322 23.8769 100.896 22.5692 101.982 20.5385C103.067 18.5077 103.61 17.3846 103.61 17.1692C103.61 16.9231 103.486 16.8 103.238 16.8C102.68 16.8 101.671 17.4308 100.213 18.6923C99.2515 19.5846 97.8243 21.2769 95.9318 23.7692C94.0703 26.2308 93.0155 27.5385 92.7673 27.6923C91.6504 28.2462 90.9524 28.5231 90.6731 28.5231C90.3939 28.5231 90.2543 28.4769 90.2543 28.3846C90.2543 28.2923 90.3009 28.1538 90.3939 27.9692C90.487 27.7846 91.4332 25.1077 93.2327 19.9385C92.5501 20.9846 91.9296 21.7846 91.3712 22.3385C91.123 22.6154 90.9989 22.5692 90.9989 22.2C90.9989 21.8 91.1075 21.4615 91.3247 21.1846C92.7208 19.3692 93.7446 17.8308 94.3961 16.5692C94.5823 15.4923 94.9546 14.8615 95.513 14.6769C95.8543 14.5538 96.2421 14.5538 96.6764 14.6769C97.1418 14.8 97.3745 15.0154 97.3745 15.3231Z" fill="#212121"/>
<path d="M130.543 13.0615L130.45 12.3231C130.45 10.1692 131.396 8.24615 133.289 6.55385C136.67 3.56923 142.131 1.72307 149.67 1.01538C150.818 0.923076 152.152 0.876923 153.672 0.876923C155.223 0.876923 157.178 1.10769 159.536 1.56923C161.893 2 163.832 2.81538 165.353 4.01539C167.773 5.98462 168.983 8.56923 168.983 11.7692C168.983 14.9385 168.021 17.8769 166.097 20.5846C164.205 23.2615 161.785 25.3385 158.837 26.8154C155.89 28.2923 152.741 29.0308 149.39 29.0308C146.04 29.0308 143.325 28.2462 141.246 26.6769C141.215 26.7077 141.06 26.9692 140.781 27.4615C140.533 27.9538 140.269 28.4308 139.99 28.8923C138.563 31.1385 137.291 31.4462 136.174 29.8154C135.522 28.8615 135.197 27.7231 135.197 26.4C135.197 25.0769 135.336 23.4769 135.616 21.6C135.647 21.4154 135.522 20.9846 135.243 20.3077C135.15 20 135.259 19.6923 135.569 19.3846C135.817 19.2 136.158 19.0462 136.593 18.9231C137.058 18.8 137.368 18.8 137.524 18.9231C137.71 19.0462 137.679 19.3846 137.43 19.9385C137.182 20.4615 137.058 20.9538 137.058 21.4154C137.058 21.8769 137.539 22.5692 138.501 23.4923C139.463 24.3846 140.052 24.8615 140.269 24.9231C141.014 23.1077 142.596 19.7077 145.016 14.7231C145.295 14.1692 145.435 13.7538 145.435 13.4769C145.435 13.2 145.404 12.9846 145.342 12.8308C145.497 11.9385 146.474 10.5231 148.274 8.58461C150.104 6.64615 151.578 5.67692 152.695 5.67692C153.129 5.67692 153.672 5.83077 154.323 6.13846C154.975 6.41538 155.347 6.81538 155.44 7.33846C155.44 7.52308 155.425 7.63077 155.394 7.66154C155.363 7.66154 155.285 7.63077 155.161 7.56923C155.037 7.50769 154.944 7.47692 154.882 7.47692C153.889 7.47692 152.71 8.2 151.345 9.64615C150.011 11.0615 148.677 12.9231 147.343 15.2308C144.985 19.2308 143.092 22.7692 141.665 25.8462C143.589 27.2308 145.683 27.9231 147.948 27.9231C150.895 27.9231 153.718 27.1692 156.418 25.6615C159.117 24.1538 161.288 22.4154 162.933 20.4462C165.601 17.2154 166.935 14.0308 166.935 10.8923C166.935 8.58461 166.004 6.52308 164.143 4.70769C162.312 2.89231 159.396 1.92308 155.394 1.8C155.208 1.8 155.021 1.8 154.835 1.8C151.671 1.8 148.336 2.32308 144.83 3.36923C141.324 4.38461 138.33 5.84615 135.848 7.75384C133.366 9.66154 132.125 11.6462 132.125 13.7077C132.125 14.2308 132.28 14.6923 132.591 15.0923C132.932 15.4923 133.273 15.7692 133.614 15.9231C133.987 16.0769 134.437 16.2462 134.964 16.4308C135.522 16.6154 135.879 16.7538 136.034 16.8462C136.22 16.9077 136.329 16.9846 136.36 17.0769C136.422 17.3231 136.205 17.4462 135.709 17.4462C134.561 17.3538 133.397 16.9385 132.218 16.2C131.07 15.4308 130.496 14.5385 130.496 13.5231C130.496 13.3692 130.512 13.2154 130.543 13.0615ZM136.825 23.1692C136.825 27.3231 137.12 29.4 137.71 29.4C138.144 29.4 138.765 28.3231 139.571 26.1692C139.633 26.0769 139.664 26.0154 139.664 25.9846C139.447 25.8 138.982 25.3538 138.268 24.6462C137.586 23.9077 137.105 23.4154 136.825 23.1692Z" fill="#212121"/>
<path d="M178.715 22.2462C179.274 21.1077 179.553 20.2308 179.553 19.6154C179.553 19 179.475 18.5231 179.32 18.1846C179.196 17.8154 179.258 17.5077 179.506 17.2615C179.786 17.0154 180.127 16.9231 180.53 16.9846C181.151 17.1385 181.461 17.8308 181.461 19.0615C181.461 20.2923 180.732 21.9077 179.274 23.9077C179.305 24.7385 179.739 25.1538 180.577 25.1538C181.414 25.1538 182.686 24.2615 184.393 22.4769C185.199 21.5538 185.696 20.9538 185.882 20.6769C186.099 20.4 186.285 20.3077 186.44 20.4C186.596 20.4615 186.673 20.5231 186.673 20.5846C186.673 20.8923 186.115 21.6923 184.998 22.9846C183.229 25.1385 181.663 26.2154 180.298 26.2154C179.398 26.2154 178.762 25.8308 178.39 25.0615C177.769 25.7077 177.164 26.3077 176.575 26.8615C175.365 27.8769 174.015 28.3846 172.526 28.3846C171.688 28.3846 170.99 28.1846 170.432 27.7846C169.346 27.1385 168.803 25.9846 168.803 24.3231C168.803 22.5077 169.423 20.6615 170.664 18.7846C171.378 17.6769 172.216 16.7077 173.177 15.8769C174.698 14.5538 176.14 13.8923 177.505 13.8923C177.847 13.8923 178.172 13.9385 178.483 14.0308C179.413 14.3385 179.879 14.9231 179.879 15.7846C179.879 16.4923 179.693 16.8462 179.32 16.8462C179.165 16.7846 179.088 16.5538 179.088 16.1538C179.088 15.6 178.777 15.3231 178.157 15.3231C177.071 15.3231 175.675 16.3077 173.969 18.2769C172.262 20.2462 171.238 22.2308 170.897 24.2308C170.835 24.5692 170.804 24.9538 170.804 25.3846C170.804 25.7846 170.944 26.2615 171.223 26.8154C171.502 27.3385 172.014 27.6 172.759 27.6C173.534 27.6 174.372 27.2615 175.272 26.5846C176.171 25.9077 176.978 25.0462 177.692 24L177.552 23.7231C177.428 23.2308 177.49 22.8308 177.738 22.5231C177.986 22.2154 178.312 22.1231 178.715 22.2462Z" fill="#212121"/>
<path d="M192.518 15.7846C192.083 16.1538 191.261 17.1231 190.051 18.6923C188.872 20.2308 188.05 21.6 187.585 22.8C187.15 24 186.933 24.9846 186.933 25.7538C186.933 26.5231 187.259 26.9077 187.91 26.9077C188.593 26.9077 189.539 26.4308 190.749 25.4769C192.704 23.8769 194.906 20.9077 197.357 16.5692C197.481 16.3538 197.699 16.2462 198.009 16.2462C198.35 16.2462 198.8 16.3385 199.358 16.5231C199.948 16.6769 200.243 16.8923 200.243 17.1692C200.243 17.2615 200.212 17.3538 200.15 17.4462C198.847 19.5385 198.024 21.9077 197.683 24.5538C197.559 25.4462 197.714 26.1692 198.148 26.7231C198.552 27.2769 199.374 27.2154 200.615 26.5385C202.538 25.5846 204.291 24.0923 205.874 22.0615C207.487 20.0308 208.48 18.2 208.852 16.5692C208.976 16.2308 209.038 15.8615 209.038 15.4615C209.038 13.7385 208.542 12.6923 207.549 12.3231C207.27 12.2 206.96 12.1692 206.618 12.2308C206.277 12.2615 206.075 12.2462 206.013 12.1846C205.951 12.0923 205.936 12 205.967 11.9077C206.029 11.6308 206.665 11.4923 207.875 11.4923C209.891 11.4923 210.9 12.5231 210.9 14.5846C210.9 16.6462 209.721 19.1231 207.363 22.0154C205.874 23.7692 204.121 25.3846 202.104 26.8615C200.987 27.6308 199.824 28.0154 198.614 28.0154C197.032 28.0154 196.054 27.4308 195.682 26.2615C195.465 25.7077 195.356 24.8308 195.356 23.6308C195.356 22.4308 195.511 21.4462 195.822 20.6769C194.984 22.3385 194.069 23.7385 193.076 24.8769C192.083 26.0154 191.23 26.8 190.516 27.2308C189.834 27.6308 189.136 27.8308 188.422 27.8308C187.181 27.8308 186.313 27.5077 185.816 26.8615C185.32 26.1846 185.072 25.4615 185.072 24.6923C185.072 23.6769 185.289 22.5846 185.723 21.4154C186.189 20.2154 186.638 19.2769 187.073 18.6C187.538 17.8923 188.128 17.0615 188.841 16.1077C189.586 15.1231 190.067 14.5846 190.284 14.4923C190.749 14.3692 191.183 14.3077 191.587 14.3077C192.021 14.3077 192.393 14.3692 192.704 14.4923C193.014 14.6154 193.169 14.7692 193.169 14.9538C193.2 15.1385 192.983 15.4154 192.518 15.7846Z" fill="#212121"/>
<path d="M213.031 18.9231C214.427 17.6923 215.87 16.6462 217.359 15.7846C218.848 14.9231 220.027 14.3846 220.896 14.1692C221.765 13.9538 222.618 13.8462 223.456 13.8462C224.293 13.8462 225.084 14.1231 225.829 14.6769C230.079 4.89231 234.144 0 238.022 0C239.325 0 240.209 0.369231 240.674 1.10769C240.891 1.47692 241 1.8 241 2.07692C241 2.84615 240.659 3.83077 239.976 5.03077C239.325 6.2 238.301 7.49231 236.905 8.90769C235.509 10.3231 233.508 12.0769 230.901 14.1692C228.295 16.2308 226.853 17.3846 226.574 17.6308C225.581 19.9077 224.805 22.1077 224.247 24.2308C223.688 26.3538 223.409 27.9385 223.409 28.9846C223.409 30.0308 223.595 30.8615 223.967 31.4769C224.154 31.8769 224.433 32.1077 224.805 32.1692C225.177 32.2615 225.488 32.2154 225.736 32.0308C226.015 31.8769 226.217 31.7385 226.341 31.6154C226.496 31.4923 226.667 31.3692 226.853 31.2462C227.07 31.1538 227.225 31.1385 227.318 31.2C227.411 31.2615 227.396 31.4308 227.272 31.7077C227.023 32.0154 226.791 32.2769 226.574 32.4923C226.077 32.8308 225.488 33 224.805 33C224.154 33 223.719 32.9846 223.502 32.9538C222.013 32.7077 221.268 31.6308 221.268 29.7231C221.268 27.8769 221.516 26.1692 222.013 24.6C222.695 22.4462 223.316 20.6615 223.874 19.2462C218.91 24.9692 215.389 27.8308 213.31 27.8308C212.814 27.8308 212.271 27.6769 211.682 27.3692C211.123 27.0923 210.642 26.6923 210.239 26.1692C209.836 25.6154 209.634 25.0308 209.634 24.4154C209.634 23.8 209.774 23.2154 210.053 22.6615C210.673 21.3692 211.666 20.1231 213.031 18.9231ZM225.457 15.4154C225.084 15.2308 224.433 15.1385 223.502 15.1385C222.571 15.1385 221.361 15.5231 219.872 16.2923C218.414 17.0308 217.033 17.9692 215.73 19.1077C214.645 20.1231 213.683 21.2769 212.845 22.5692C212.038 23.8308 211.635 24.7538 211.635 25.3385C211.635 26.4769 211.961 27.0462 212.612 27.0462C213.264 27.0462 214.257 26.5231 215.591 25.4769C219.035 22.6769 222.106 19.8462 224.805 16.9846L225.457 15.4154ZM239.092 3.78461C239.495 3.04615 239.697 2.43077 239.697 1.93846C239.697 1.41538 239.464 1.15385 238.999 1.15385C238.565 1.15385 237.975 1.43077 237.231 1.98461C233.818 4.56923 230.731 8.89231 227.97 14.9538C229.986 13.6615 232.096 11.9385 234.299 9.78461C236.501 7.63077 238.099 5.63077 239.092 3.78461Z" fill="#212121"/>
<path d="M11.776 56V55.504C10.912 55.504 10.576 55.44 10.096 54.736L6.4 49.296L9.28 46.528C9.408 46.4 10.256 45.584 11.552 45.568V45.072C11.136 45.12 10.624 45.12 10.192 45.12C9.616 45.12 8.704 45.12 8.16 45.072V45.568C8.8 45.584 8.896 45.952 8.896 46.096C8.896 46.352 8.736 46.512 8.608 46.624L3.6 51.408V46.32C3.6 45.744 3.632 45.568 4.864 45.568H5.248V45.072C4.688 45.12 3.504 45.12 2.896 45.12C2.288 45.12 1.088 45.12 0.528 45.072V45.568H0.912C2.144 45.568 2.176 45.744 2.176 46.32V54.752C2.176 55.328 2.144 55.504 0.912 55.504H0.528V56C1.088 55.952 2.272 55.952 2.88 55.952C3.488 55.952 4.688 55.952 5.248 56V55.504H4.864C3.632 55.504 3.6 55.328 3.6 54.752V51.952L5.456 50.192L8.352 54.48C8.448 54.624 8.592 54.832 8.592 55.024C8.592 55.504 7.968 55.504 7.648 55.504V56C8.208 55.952 9.328 55.952 9.936 55.952L11.776 56ZM16.4051 56V55.504C15.3491 55.504 15.2851 55.424 15.2851 54.8V48.928L13.0451 49.104V49.6C14.0851 49.6 14.2291 49.696 14.2291 50.48V54.784C14.2291 55.504 14.0531 55.504 12.9811 55.504V56L14.7411 55.952C15.3011 55.952 15.8611 55.984 16.4051 56ZM15.5251 46.336C15.5251 45.904 15.1571 45.488 14.6771 45.488C14.1331 45.488 13.8131 45.936 13.8131 46.336C13.8131 46.768 14.1811 47.184 14.6611 47.184C15.2051 47.184 15.5251 46.736 15.5251 46.336ZM25.4663 56V55.504C24.6343 55.504 24.2343 55.504 24.2183 55.024V51.968C24.2183 50.592 24.2183 50.096 23.7223 49.52C23.4983 49.248 22.9703 48.928 22.0423 48.928C20.8743 48.928 20.1223 49.616 19.6743 50.608V48.928L17.4183 49.104V49.6C18.5383 49.6 18.6663 49.712 18.6663 50.496V54.784C18.6663 55.504 18.4903 55.504 17.4183 55.504V56L19.2263 55.952L21.0182 56V55.504C19.9463 55.504 19.7703 55.504 19.7703 54.784V51.84C19.7703 50.176 20.9062 49.28 21.9303 49.28C22.9383 49.28 23.1143 50.144 23.1143 51.056V54.784C23.1143 55.504 22.9383 55.504 21.8663 55.504V56L23.6743 55.952L25.4663 56ZM32.4369 54.096C32.4369 53.936 32.3089 53.904 32.2289 53.904C32.0849 53.904 32.0529 54 32.0209 54.128C31.4609 55.776 30.0209 55.776 29.8609 55.776C29.0609 55.776 28.4209 55.296 28.0529 54.704C27.5729 53.936 27.5729 52.88 27.5729 52.304H32.0369C32.3889 52.304 32.4369 52.304 32.4369 51.968C32.4369 50.384 31.5729 48.832 29.5729 48.832C27.7169 48.832 26.2449 50.48 26.2449 52.48C26.2449 54.624 27.9249 56.176 29.7649 56.176C31.7169 56.176 32.4369 54.4 32.4369 54.096ZM31.3809 51.968H27.5889C27.6849 49.584 29.0289 49.184 29.5729 49.184C31.2209 49.184 31.3809 51.344 31.3809 51.968ZM38.6663 53.952C38.6663 53.104 38.1863 52.624 37.9943 52.432C37.4663 51.92 36.8423 51.792 36.1703 51.664C35.2743 51.488 34.2023 51.28 34.2023 50.352C34.2023 49.792 34.6183 49.136 35.9943 49.136C37.7543 49.136 37.8343 50.576 37.8663 51.072C37.8823 51.216 38.0583 51.216 38.0583 51.216C38.2663 51.216 38.2663 51.136 38.2663 50.832V49.216C38.2663 48.944 38.2663 48.832 38.0903 48.832C38.0103 48.832 37.9783 48.832 37.7703 49.024C37.7223 49.088 37.5623 49.232 37.4983 49.28C36.8903 48.832 36.2343 48.832 35.9943 48.832C34.0423 48.832 33.4342 49.904 33.4342 50.8C33.4342 51.36 33.6903 51.808 34.1223 52.16C34.6343 52.576 35.0823 52.672 36.2343 52.896C36.5863 52.96 37.8983 53.216 37.8983 54.368C37.8983 55.184 37.3383 55.824 36.0903 55.824C34.7463 55.824 34.1703 54.912 33.8663 53.552C33.8183 53.344 33.8023 53.28 33.6423 53.28C33.4342 53.28 33.4342 53.392 33.4342 53.68V55.792C33.4342 56.064 33.4342 56.176 33.6103 56.176C33.6903 56.176 33.7063 56.16 34.0103 55.856C34.0423 55.824 34.0423 55.792 34.3303 55.488C35.0343 56.16 35.7543 56.176 36.0903 56.176C37.9303 56.176 38.6663 55.104 38.6663 53.952ZM43.1551 56V55.504C42.0991 55.504 42.0351 55.424 42.0351 54.8V48.928L39.7951 49.104V49.6C40.8351 49.6 40.9791 49.696 40.9791 50.48V54.784C40.9791 55.504 40.8031 55.504 39.7311 55.504V56L41.4911 55.952C42.0511 55.952 42.6111 55.984 43.1551 56ZM42.2751 46.336C42.2751 45.904 41.9071 45.488 41.4271 45.488C40.8831 45.488 40.5631 45.936 40.5631 46.336C40.5631 46.768 40.9311 47.184 41.4111 47.184C41.9551 47.184 42.2751 46.736 42.2751 46.336ZM51.1923 52.576C51.1923 50.528 49.5923 48.832 47.6562 48.832C45.6562 48.832 44.1043 50.576 44.1043 52.576C44.1043 54.64 45.7682 56.176 47.6403 56.176C49.5763 56.176 51.1923 54.608 51.1923 52.576ZM49.8643 52.448C49.8643 53.024 49.8643 53.888 49.5123 54.592C49.1603 55.312 48.4563 55.776 47.6562 55.776C46.9683 55.776 46.2643 55.44 45.8323 54.704C45.4323 54 45.4323 53.024 45.4323 52.448C45.4323 51.824 45.4323 50.96 45.8163 50.256C46.2483 49.52 47.0003 49.184 47.6403 49.184C48.3443 49.184 49.0323 49.536 49.4483 50.224C49.8643 50.912 49.8643 51.84 49.8643 52.448ZM55.7363 56V55.504C54.6643 55.504 54.4883 55.504 54.4883 54.784V44.896L52.1842 45.072V45.568C53.3043 45.568 53.4323 45.68 53.4323 46.464V54.784C53.4323 55.504 53.2563 55.504 52.1842 55.504V56L53.9603 55.952L55.7363 56ZM63.6454 52.576C63.6454 50.528 62.0454 48.832 60.1094 48.832C58.1094 48.832 56.5574 50.576 56.5574 52.576C56.5574 54.64 58.2214 56.176 60.0934 56.176C62.0294 56.176 63.6454 54.608 63.6454 52.576ZM62.3174 52.448C62.3174 53.024 62.3174 53.888 61.9654 54.592C61.6134 55.312 60.9094 55.776 60.1094 55.776C59.4214 55.776 58.7174 55.44 58.2854 54.704C57.8854 54 57.8854 53.024 57.8854 52.448C57.8854 51.824 57.8854 50.96 58.2694 50.256C58.7014 49.52 59.4534 49.184 60.0934 49.184C60.7974 49.184 61.4854 49.536 61.9014 50.224C62.3174 50.912 62.3174 51.84 62.3174 52.448ZM71.8694 49.536C71.8694 49.264 71.6774 48.752 71.0534 48.752C70.7334 48.752 70.0294 48.848 69.3574 49.504C68.6854 48.976 68.0134 48.928 67.6614 48.928C66.1734 48.928 65.0694 50.032 65.0694 51.264C65.0694 51.968 65.4214 52.576 65.8214 52.912C65.6134 53.152 65.3254 53.68 65.3254 54.24C65.3254 54.736 65.5334 55.344 66.0294 55.664C65.0694 55.936 64.5574 56.624 64.5574 57.264C64.5574 58.416 66.1414 59.296 68.0934 59.296C69.9814 59.296 71.6454 58.48 71.6454 57.232C71.6454 56.672 71.4214 55.856 70.6054 55.408C69.7574 54.96 68.8294 54.96 67.8534 54.96C67.4534 54.96 66.7654 54.96 66.6534 54.944C66.1414 54.88 65.8054 54.384 65.8054 53.872C65.8054 53.808 65.8054 53.44 66.0774 53.12C66.7014 53.568 67.3574 53.616 67.6614 53.616C69.1494 53.616 70.2534 52.512 70.2534 51.28C70.2534 50.688 69.9974 50.096 69.5974 49.728C70.1734 49.184 70.7494 49.104 71.0374 49.104C71.0374 49.104 71.1494 49.104 71.1974 49.12C71.0214 49.184 70.9414 49.36 70.9414 49.552C70.9414 49.824 71.1494 50.016 71.4054 50.016C71.5654 50.016 71.8694 49.904 71.8694 49.536ZM69.0534 51.264C69.0534 51.696 69.0374 52.208 68.7974 52.608C68.6694 52.8 68.3014 53.248 67.6614 53.248C66.2694 53.248 66.2694 51.648 66.2694 51.28C66.2694 50.848 66.2854 50.336 66.5254 49.936C66.6534 49.744 67.0214 49.296 67.6614 49.296C69.0534 49.296 69.0534 50.896 69.0534 51.264ZM70.8134 57.264C70.8134 58.128 69.6774 58.928 68.1094 58.928C66.4934 58.928 65.3894 58.112 65.3894 57.264C65.3894 56.528 65.9974 55.936 66.7014 55.888H67.6454C69.0214 55.888 70.8134 55.888 70.8134 57.264ZM80.2374 49.6V49.104C79.8694 49.136 79.4054 49.152 79.0374 49.152L77.6454 49.104V49.6C78.1414 49.616 78.3974 49.888 78.3974 50.288C78.3974 50.448 78.3814 50.48 78.3014 50.672L76.6854 54.608L74.9094 50.304C74.8454 50.144 74.8134 50.08 74.8134 50.016C74.8134 49.6 75.4054 49.6 75.7094 49.6V49.104L73.9654 49.152C73.5334 49.152 72.8934 49.136 72.4134 49.104V49.6C73.1814 49.6 73.4854 49.6 73.7094 50.16L76.1094 56L75.7094 56.944C75.3574 57.824 74.9094 58.928 73.8854 58.928C73.8054 58.928 73.4374 58.928 73.1334 58.64C73.6294 58.576 73.7574 58.224 73.7574 57.968C73.7574 57.552 73.4534 57.296 73.0854 57.296C72.7654 57.296 72.4134 57.504 72.4134 57.984C72.4134 58.704 73.0854 59.28 73.8854 59.28C74.8934 59.28 75.5494 58.368 75.9334 57.456L78.7494 50.624C79.1654 49.616 79.9814 49.6 80.2374 49.6ZM133.62 51.872H133.22C132.82 54.336 132.452 55.504 129.7 55.504H127.572C126.82 55.504 126.788 55.392 126.788 54.864V50.592H128.228C129.78 50.592 129.956 51.104 129.956 52.464H130.356V48.224H129.956C129.956 49.6 129.78 50.096 128.228 50.096H126.788V46.256C126.788 45.728 126.82 45.616 127.572 45.616H129.636C132.084 45.616 132.516 46.496 132.772 48.72H133.172L132.724 45.12H123.715V45.616H124.1C125.332 45.616 125.364 45.792 125.364 46.368V54.752C125.364 55.328 125.332 55.504 124.1 55.504H123.715V56H132.948L133.62 51.872ZM142.638 56V55.504C141.806 55.504 141.406 55.504 141.39 55.024V51.968C141.39 50.592 141.39 50.096 140.894 49.52C140.67 49.248 140.142 48.928 139.214 48.928C138.046 48.928 137.294 49.616 136.846 50.608V48.928L134.59 49.104V49.6C135.71 49.6 135.838 49.712 135.838 50.496V54.784C135.838 55.504 135.662 55.504 134.59 55.504V56L136.398 55.952L138.19 56V55.504C137.118 55.504 136.942 55.504 136.942 54.784V51.84C136.942 50.176 138.078 49.28 139.102 49.28C140.11 49.28 140.286 50.144 140.286 51.056V54.784C140.286 55.504 140.11 55.504 139.038 55.504V56L140.846 55.952L142.638 56ZM149.609 54.096C149.609 53.936 149.481 53.904 149.401 53.904C149.257 53.904 149.225 54 149.193 54.128C148.633 55.776 147.193 55.776 147.033 55.776C146.233 55.776 145.593 55.296 145.225 54.704C144.745 53.936 144.745 52.88 144.745 52.304H149.209C149.561 52.304 149.609 52.304 149.609 51.968C149.609 50.384 148.745 48.832 146.745 48.832C144.889 48.832 143.417 50.48 143.417 52.48C143.417 54.624 145.097 56.176 146.937 56.176C148.889 56.176 149.609 54.4 149.609 54.096ZM148.553 51.968H144.761C144.857 49.584 146.201 49.184 146.745 49.184C148.393 49.184 148.553 51.344 148.553 51.968ZM155.902 49.904C155.902 49.392 155.406 48.928 154.718 48.928C153.55 48.928 152.974 50 152.75 50.688V48.928L150.526 49.104V49.6C151.646 49.6 151.774 49.712 151.774 50.496V54.784C151.774 55.504 151.598 55.504 150.526 55.504V56L152.35 55.952C152.99 55.952 153.742 55.952 154.382 56V55.504H154.046C152.862 55.504 152.83 55.328 152.83 54.752V52.288C152.83 50.704 153.502 49.28 154.718 49.28C154.83 49.28 154.862 49.28 154.894 49.296C154.846 49.312 154.526 49.504 154.526 49.92C154.526 50.368 154.862 50.608 155.214 50.608C155.502 50.608 155.902 50.416 155.902 49.904ZM164.104 49.536C164.104 49.264 163.912 48.752 163.288 48.752C162.968 48.752 162.264 48.848 161.592 49.504C160.92 48.976 160.248 48.928 159.896 48.928C158.408 48.928 157.304 50.032 157.304 51.264C157.304 51.968 157.656 52.576 158.056 52.912C157.848 53.152 157.56 53.68 157.56 54.24C157.56 54.736 157.768 55.344 158.264 55.664C157.304 55.936 156.792 56.624 156.792 57.264C156.792 58.416 158.376 59.296 160.328 59.296C162.216 59.296 163.88 58.48 163.88 57.232C163.88 56.672 163.656 55.856 162.84 55.408C161.992 54.96 161.064 54.96 160.088 54.96C159.688 54.96 159 54.96 158.888 54.944C158.376 54.88 158.04 54.384 158.04 53.872C158.04 53.808 158.04 53.44 158.312 53.12C158.936 53.568 159.592 53.616 159.896 53.616C161.384 53.616 162.488 52.512 162.488 51.28C162.488 50.688 162.232 50.096 161.832 49.728C162.408 49.184 162.984 49.104 163.272 49.104C163.272 49.104 163.384 49.104 163.432 49.12C163.256 49.184 163.176 49.36 163.176 49.552C163.176 49.824 163.384 50.016 163.64 50.016C163.8 50.016 164.104 49.904 164.104 49.536ZM161.288 51.264C161.288 51.696 161.272 52.208 161.032 52.608C160.904 52.8 160.536 53.248 159.896 53.248C158.504 53.248 158.504 51.648 158.504 51.28C158.504 50.848 158.52 50.336 158.76 49.936C158.888 49.744 159.256 49.296 159.896 49.296C161.288 49.296 161.288 50.896 161.288 51.264ZM163.048 57.264C163.048 58.128 161.912 58.928 160.344 58.928C158.728 58.928 157.624 58.112 157.624 57.264C157.624 56.528 158.232 55.936 158.936 55.888H159.88C161.256 55.888 163.048 55.888 163.048 57.264ZM172.472 49.6V49.104C172.104 49.136 171.64 49.152 171.272 49.152L169.88 49.104V49.6C170.376 49.616 170.632 49.888 170.632 50.288C170.632 50.448 170.616 50.48 170.536 50.672L168.92 54.608L167.144 50.304C167.08 50.144 167.048 50.08 167.048 50.016C167.048 49.6 167.64 49.6 167.944 49.6V49.104L166.2 49.152C165.768 49.152 165.128 49.136 164.648 49.104V49.6C165.416 49.6 165.72 49.6 165.944 50.16L168.344 56L167.944 56.944C167.592 57.824 167.144 58.928 166.12 58.928C166.04 58.928 165.672 58.928 165.368 58.64C165.864 58.576 165.992 58.224 165.992 57.968C165.992 57.552 165.688 57.296 165.32 57.296C165 57.296 164.648 57.504 164.648 57.984C164.648 58.704 165.32 59.28 166.12 59.28C167.128 59.28 167.784 58.368 168.168 57.456L170.984 50.624C171.4 49.616 172.216 49.6 172.472 49.6ZM189.581 56V55.504H189.197C187.965 55.504 187.933 55.328 187.933 54.752V46.32C187.933 45.744 187.965 45.568 189.197 45.568H189.581V45.072C189.021 45.12 187.837 45.12 187.229 45.12C186.621 45.12 185.421 45.12 184.861 45.072V45.568H185.245C186.477 45.568 186.509 45.744 186.509 46.32V50.064H181.725V46.32C181.725 45.744 181.757 45.568 182.989 45.568H183.373V45.072C182.813 45.12 181.629 45.12 181.021 45.12C180.413 45.12 179.213 45.12 178.653 45.072V45.568H179.037C180.269 45.568 180.301 45.744 180.301 46.32V54.752C180.301 55.328 180.269 55.504 179.037 55.504H178.653V56C179.213 55.952 180.397 55.952 181.005 55.952C181.613 55.952 182.813 55.952 183.373 56V55.504H182.989C181.757 55.504 181.725 55.328 181.725 54.752V50.56H186.509V54.752C186.509 55.328 186.477 55.504 185.245 55.504H184.861V56C185.421 55.952 186.605 55.952 187.213 55.952C187.821 55.952 189.021 55.952 189.581 56ZM196.765 54.096C196.765 53.936 196.637 53.904 196.557 53.904C196.413 53.904 196.381 54 196.349 54.128C195.789 55.776 194.349 55.776 194.189 55.776C193.389 55.776 192.749 55.296 192.381 54.704C191.901 53.936 191.901 52.88 191.901 52.304H196.365C196.717 52.304 196.765 52.304 196.765 51.968C196.765 50.384 195.901 48.832 193.901 48.832C192.045 48.832 190.573 50.48 190.573 52.48C190.573 54.624 192.253 56.176 194.093 56.176C196.045 56.176 196.765 54.4 196.765 54.096ZM195.709 51.968H191.917C192.013 49.584 193.357 49.184 193.901 49.184C195.549 49.184 195.709 51.344 195.709 51.968ZM205.122 54.576V53.68H204.722V54.576C204.722 55.504 204.322 55.6 204.146 55.6C203.618 55.6 203.554 54.88 203.554 54.8V51.6C203.554 50.928 203.554 50.304 202.978 49.712C202.354 49.088 201.554 48.832 200.786 48.832C199.474 48.832 198.37 49.584 198.37 50.64C198.37 51.12 198.69 51.392 199.106 51.392C199.554 51.392 199.842 51.072 199.842 50.656C199.842 50.464 199.762 49.936 199.026 49.92C199.458 49.36 200.242 49.184 200.754 49.184C201.538 49.184 202.45 49.808 202.45 51.232V51.824C201.634 51.872 200.514 51.92 199.506 52.4C198.306 52.944 197.906 53.776 197.906 54.48C197.906 55.776 199.458 56.176 200.466 56.176C201.522 56.176 202.258 55.536 202.562 54.784C202.626 55.424 203.058 56.096 203.81 56.096C204.146 56.096 205.122 55.872 205.122 54.576ZM202.45 53.76C202.45 55.28 201.298 55.824 200.578 55.824C199.794 55.824 199.138 55.264 199.138 54.464C199.138 53.584 199.81 52.256 202.45 52.16V53.76ZM209.314 56V55.504C208.242 55.504 208.066 55.504 208.066 54.784V44.896L205.762 45.072V45.568C206.882 45.568 207.01 45.68 207.01 46.464V54.784C207.01 55.504 206.834 55.504 205.762 55.504V56L207.538 55.952L209.314 56ZM213.64 56V55.504C212.584 55.504 212.52 55.424 212.52 54.8V48.928L210.28 49.104V49.6C211.32 49.6 211.464 49.696 211.464 50.48V54.784C211.464 55.504 211.288 55.504 210.215 55.504V56L211.976 55.952C212.536 55.952 213.096 55.984 213.64 56ZM212.76 46.336C212.76 45.904 212.392 45.488 211.912 45.488C211.368 45.488 211.048 45.936 211.048 46.336C211.048 46.768 211.416 47.184 211.896 47.184C212.44 47.184 212.76 46.736 212.76 46.336ZM222.701 56V55.504C221.869 55.504 221.469 55.504 221.453 55.024V51.968C221.453 50.592 221.453 50.096 220.957 49.52C220.733 49.248 220.205 48.928 219.277 48.928C218.109 48.928 217.357 49.616 216.909 50.608V48.928L214.653 49.104V49.6C215.773 49.6 215.901 49.712 215.901 50.496V54.784C215.901 55.504 215.725 55.504 214.653 55.504V56L216.461 55.952L218.253 56V55.504C217.181 55.504 217.005 55.504 217.005 54.784V51.84C217.005 50.176 218.141 49.28 219.165 49.28C220.173 49.28 220.349 50.144 220.349 51.056V54.784C220.349 55.504 220.173 55.504 219.101 55.504V56L220.909 55.952L222.701 56ZM230.791 49.536C230.791 49.264 230.599 48.752 229.975 48.752C229.655 48.752 228.951 48.848 228.279 49.504C227.607 48.976 226.935 48.928 226.583 48.928C225.095 48.928 223.991 50.032 223.991 51.264C223.991 51.968 224.343 52.576 224.743 52.912C224.535 53.152 224.247 53.68 224.247 54.24C224.247 54.736 224.455 55.344 224.951 55.664C223.991 55.936 223.479 56.624 223.479 57.264C223.479 58.416 225.063 59.296 227.015 59.296C228.903 59.296 230.567 58.48 230.567 57.232C230.567 56.672 230.343 55.856 229.527 55.408C228.679 54.96 227.751 54.96 226.775 54.96C226.375 54.96 225.687 54.96 225.575 54.944C225.063 54.88 224.727 54.384 224.727 53.872C224.727 53.808 224.727 53.44 224.999 53.12C225.623 53.568 226.279 53.616 226.583 53.616C228.071 53.616 229.175 52.512 229.175 51.28C229.175 50.688 228.919 50.096 228.519 49.728C229.095 49.184 229.671 49.104 229.959 49.104C229.959 49.104 230.071 49.104 230.119 49.12C229.943 49.184 229.863 49.36 229.863 49.552C229.863 49.824 230.071 50.016 230.327 50.016C230.487 50.016 230.791 49.904 230.791 49.536ZM227.975 51.264C227.975 51.696 227.959 52.208 227.719 52.608C227.591 52.8 227.223 53.248 226.583 53.248C225.191 53.248 225.191 51.648 225.191 51.28C225.191 50.848 225.207 50.336 225.447 49.936C225.575 49.744 225.943 49.296 226.583 49.296C227.975 49.296 227.975 50.896 227.975 51.264ZM229.735 57.264C229.735 58.128 228.599 58.928 227.031 58.928C225.415 58.928 224.311 58.112 224.311 57.264C224.311 56.528 224.919 55.936 225.623 55.888H226.567C227.943 55.888 229.735 55.888 229.735 57.264Z" fill="black"/>
<path d="M108.756 51.8388C108.637 51.7955 108.58 51.7219 108.481 51.5847C108.224 51.2297 107.95 51.0074 107.662 50.9198C107.897 50.7325 108.071 50.4248 108.179 50.0001C108.209 49.8793 108.324 49.6804 108.365 49.614C108.381 49.5889 108.389 49.56 108.39 49.5303C108.391 49.5006 108.383 49.4714 108.368 49.4456C108.354 49.4198 108.332 49.3985 108.307 49.384C108.281 49.3694 108.251 49.3622 108.222 49.363C108.096 49.3661 108.015 49.3189 107.873 49.2278C107.407 48.9303 106.992 48.8391 106.639 48.956C106.884 48.6753 106.964 48.2568 106.876 47.711C106.856 47.588 106.883 47.36 106.894 47.2826C106.899 47.2533 106.895 47.2233 106.884 47.1958C106.873 47.1684 106.854 47.1445 106.83 47.1267C106.807 47.1089 106.779 47.0978 106.749 47.0947C106.72 47.0917 106.69 47.0966 106.663 47.1091C106.549 47.1622 106.456 47.1507 106.289 47.1237C105.831 47.0498 105.464 47.0952 105.193 47.2574C105.242 46.946 105.147 46.5889 104.906 46.1925C104.842 46.0859 104.78 45.8649 104.762 45.7888C104.755 45.76 104.741 45.7335 104.72 45.7123C104.699 45.6911 104.673 45.6759 104.644 45.6683C104.616 45.6607 104.585 45.661 104.557 45.6693C104.528 45.6775 104.503 45.6933 104.482 45.715C104.396 45.8072 104.306 45.8312 104.141 45.8691C103.635 45.9851 103.291 46.1972 103.115 46.4993C103.071 46.1525 102.836 45.8231 102.415 45.5191C102.314 45.4462 102.172 45.2665 102.125 45.2035C102.107 45.1796 102.084 45.1609 102.056 45.1495C102.029 45.138 101.999 45.1342 101.97 45.1384C101.94 45.1426 101.913 45.1547 101.89 45.1734C101.867 45.1921 101.849 45.2167 101.839 45.2445C101.796 45.363 101.722 45.4202 101.585 45.5192C101.182 45.8102 100.949 46.1246 100.892 46.4555C100.711 46.1724 100.376 45.9715 99.8918 45.8576C99.7704 45.8291 99.5696 45.7181 99.5025 45.6778C99.4771 45.6625 99.448 45.6544 99.4184 45.6543C99.3887 45.6542 99.3596 45.6622 99.3341 45.6773C99.3086 45.6925 99.2877 45.7143 99.2736 45.7403C99.2595 45.7664 99.2527 45.7958 99.254 45.8255C99.2595 45.9514 99.2136 46.0326 99.125 46.1768C98.8731 46.587 98.7772 46.9561 98.8381 47.2767C98.5643 47.0987 98.1863 47.047 97.711 47.1235C97.588 47.1434 97.36 47.1173 97.2826 47.1056C97.2533 47.1011 97.2233 47.1047 97.1958 47.1159C97.1684 47.1272 97.1445 47.1456 97.1267 47.1693C97.1089 47.1931 97.0979 47.2212 97.0948 47.2507C97.0917 47.2802 97.0966 47.31 97.1091 47.3369C97.1622 47.4512 97.1506 47.5438 97.1237 47.7109C97.0542 48.1417 97.0904 48.4924 97.2301 48.7581C96.9316 48.7262 96.5922 48.8218 96.217 49.0452C96.1099 49.109 95.8883 49.1687 95.8121 49.1863C95.7831 49.1929 95.7566 49.2073 95.7352 49.2278C95.7138 49.2484 95.6984 49.2743 95.6906 49.303C95.6827 49.3316 95.6828 49.3618 95.6908 49.3903C95.6988 49.4189 95.7144 49.4448 95.7359 49.4652C95.8274 49.552 95.8507 49.6423 95.8871 49.8076C96.0074 50.3525 96.2397 50.7119 96.5776 50.8756C96.5802 50.8769 96.5829 50.8779 96.5855 50.8791C96.5824 50.8791 96.5795 50.8791 96.5765 50.8793C96.2015 50.8952 95.8457 51.1325 95.5192 51.5848C95.4462 51.6859 95.2665 51.8286 95.2035 51.875C95.1797 51.8926 95.161 51.9164 95.1495 51.9437C95.1381 51.9711 95.1342 52.001 95.1384 52.0304C95.1426 52.0598 95.1547 52.0874 95.1734 52.1105C95.1921 52.1335 95.2167 52.1511 95.2446 52.1612C95.363 52.2046 95.4202 52.2782 95.5193 52.4155C95.7767 52.7719 96.0522 52.9943 96.3408 53.0806C96.104 53.2665 95.9297 53.5742 95.8216 54.0001C95.791 54.1209 95.6765 54.3198 95.635 54.3862C95.6193 54.4113 95.6106 54.4403 95.61 54.4699C95.6094 54.4996 95.6169 54.5288 95.6316 54.5546C95.6463 54.5804 95.6677 54.6017 95.6936 54.6162C95.7194 54.6308 95.7487 54.638 95.7784 54.6372C95.9043 54.6342 95.9848 54.6813 96.1274 54.7724C96.4619 54.9859 96.7702 55.0931 97.048 55.093C97.1582 55.0935 97.2676 55.0755 97.3718 55.0398C97.3726 55.0395 97.3734 55.0391 97.3742 55.0389C97.3736 55.0395 97.3729 55.0402 97.3723 55.0409C97.1183 55.3178 97.0347 55.7377 97.1236 56.289C97.1435 56.412 97.1174 56.64 97.1057 56.7174C97.1012 56.7467 97.1048 56.7767 97.116 56.8041C97.1272 56.8316 97.1457 56.8555 97.1694 56.8733C97.1931 56.8911 97.2213 56.9021 97.2508 56.9052C97.2803 56.9083 97.3101 56.9034 97.337 56.8909C97.4513 56.8378 97.5438 56.8493 97.7109 56.8763C97.843 56.8984 97.9766 56.9098 98.1105 56.9106C98.3875 56.9106 98.62 56.8536 98.8062 56.7406C98.7568 57.0526 98.8527 57.4105 99.0935 57.8075C99.1582 57.9141 99.2197 58.1351 99.2379 58.2112C99.2448 58.24 99.2594 58.2665 99.2801 58.2877C99.3009 58.3089 99.327 58.3241 99.3556 58.3317C99.3843 58.3393 99.4145 58.3389 99.443 58.3307C99.4715 58.3225 99.4972 58.3067 99.5175 58.285C99.6035 58.1928 99.6936 58.1688 99.8586 58.1309C100.367 58.0144 100.712 57.8012 100.885 57.497C100.927 57.845 101.162 58.1756 101.585 58.4808C101.686 58.5538 101.828 58.7334 101.875 58.7965C101.89 58.8172 101.91 58.834 101.933 58.8456C101.956 58.8572 101.981 58.8633 102.007 58.8633C102.015 58.8633 102.023 58.8627 102.03 58.8616C102.06 58.8574 102.087 58.8454 102.11 58.8267C102.133 58.808 102.151 58.7834 102.161 58.7556C102.204 58.6371 102.278 58.5799 102.415 58.4808C102.819 58.1895 103.051 57.8749 103.109 57.544C103.289 57.8274 103.624 58.0286 104.108 58.1424C104.23 58.1709 104.431 58.2819 104.498 58.3222C104.523 58.3375 104.552 58.3456 104.582 58.3457C104.611 58.3457 104.641 58.3378 104.666 58.3226C104.692 58.3075 104.712 58.2857 104.727 58.2596C104.741 58.2336 104.747 58.2041 104.746 58.1745C104.741 58.0485 104.787 57.9674 104.875 57.8232C105.128 57.4118 105.224 57.042 105.162 56.721C105.353 56.8473 105.597 56.9108 105.89 56.9108C106.023 56.9099 106.157 56.8985 106.289 56.8764C106.412 56.8565 106.64 56.8826 106.718 56.8943C106.747 56.8988 106.777 56.8952 106.804 56.884C106.832 56.8727 106.856 56.8543 106.873 56.8306C106.891 56.8068 106.902 56.7787 106.906 56.7492C106.909 56.7197 106.904 56.6899 106.891 56.663C106.838 56.5487 106.85 56.4562 106.877 56.2891C106.946 55.857 106.91 55.5058 106.769 55.2401C106.808 55.2446 106.848 55.2469 106.888 55.247C107.157 55.247 107.457 55.1493 107.783 54.9548C107.89 54.8911 108.112 54.8314 108.188 54.8138C108.217 54.8071 108.244 54.7928 108.265 54.7723C108.286 54.7517 108.302 54.7257 108.31 54.6971C108.318 54.6685 108.317 54.6383 108.309 54.6097C108.301 54.5812 108.286 54.5553 108.264 54.5349C108.173 54.4481 108.15 54.3578 108.113 54.1925C107.993 53.6472 107.76 53.2876 107.422 53.1237C107.421 53.123 107.42 53.1224 107.418 53.1217H107.423C107.798 53.1056 108.154 52.868 108.481 52.4155C108.554 52.3144 108.734 52.1717 108.797 52.1252C108.821 52.1077 108.839 52.0839 108.851 52.0566C108.862 52.0292 108.866 51.9993 108.862 51.9699C108.858 51.9405 108.846 51.9128 108.827 51.8898C108.808 51.8668 108.784 51.8492 108.756 51.839L108.756 51.8388ZM106.734 49.2697C106.99 49.1812 107.314 49.2602 107.696 49.5044C107.781 49.5632 107.873 49.612 107.969 49.6499C107.924 49.7357 107.887 49.8261 107.861 49.9194C107.75 50.3569 107.569 50.6352 107.323 50.7465C107.106 50.8449 106.882 50.7885 106.776 50.7505C106.675 50.3641 106.527 49.9915 106.335 49.641C106.385 49.5429 106.509 49.3475 106.734 49.2697ZM102 56.6093C99.4589 56.6093 97.3916 54.542 97.3916 52.0009C97.3916 49.4598 99.4589 47.3926 102 47.3926C104.541 47.3926 106.608 49.4598 106.608 52.0009C106.608 54.542 104.541 56.6093 102 56.6093ZM105.261 47.6124C105.462 47.4311 105.791 47.3757 106.237 47.4476C106.338 47.4678 106.442 47.4763 106.545 47.4728C106.537 47.5696 106.54 47.6669 106.552 47.7633C106.625 48.2117 106.569 48.5422 106.387 48.7456C106.23 48.9222 106.006 48.9629 105.895 48.972C105.645 48.6513 105.357 48.3625 105.037 48.1119C105.045 47.9999 105.084 47.7724 105.261 47.6124ZM103.374 46.7098C103.49 46.4654 103.773 46.2901 104.215 46.1889C104.316 46.1695 104.415 46.1384 104.51 46.0963C104.539 46.1889 104.578 46.2782 104.626 46.3627C104.86 46.7483 104.931 47.0721 104.839 47.3252C104.756 47.5502 104.557 47.6709 104.455 47.7195C104.11 47.5204 103.741 47.3642 103.358 47.2543C103.323 47.1477 103.272 46.9234 103.374 46.7098ZM101.205 46.5925C101.218 46.3218 101.41 46.0502 101.777 45.7852C101.863 45.7277 101.942 45.6606 102.013 45.585C102.076 45.6588 102.146 45.7259 102.223 45.7852C102.588 46.049 102.78 46.3194 102.794 46.5886C102.805 46.8268 102.67 47.0151 102.595 47.1004C102.199 47.0522 101.798 47.0523 101.402 47.1006C101.328 47.0156 101.195 46.8286 101.205 46.5925ZM99.4046 46.3486C99.462 46.2625 99.5092 46.1701 99.5453 46.0732C99.632 46.1171 99.7229 46.1519 99.8167 46.1771C100.256 46.2803 100.537 46.456 100.653 46.6993C100.755 46.9152 100.702 47.1412 100.666 47.2476C100.282 47.3557 99.9117 47.5104 99.5647 47.7081C99.4635 47.6584 99.2669 47.5363 99.1862 47.3114C99.095 47.0572 99.1685 46.7333 99.4046 46.3486ZM97.4476 47.7633C97.4679 47.6618 97.4763 47.5584 97.4728 47.455C97.5696 47.4625 97.6669 47.46 97.7633 47.4476C98.2095 47.3756 98.5378 47.4312 98.739 47.6125C98.9162 47.7722 98.955 47.9995 98.9632 48.1117C98.646 48.3599 98.3601 48.6456 98.1117 48.9627C98.001 48.9549 97.7743 48.9169 97.6144 48.7414C97.4315 48.5406 97.3753 48.2115 97.4476 47.7633ZM96.2076 49.7369C96.189 49.6351 96.1587 49.5358 96.1173 49.441C96.2101 49.4124 96.2997 49.3742 96.3847 49.3272C96.7737 49.0956 97.0995 49.0262 97.3529 49.1208C97.5772 49.2044 97.696 49.4028 97.7436 49.5028C97.5405 49.8475 97.3802 50.2156 97.2664 50.5991C97.1592 50.6341 96.9323 50.6843 96.7178 50.579C96.4764 50.4605 96.3047 50.1771 96.2076 49.7369ZM95.7852 52.2232C95.7277 52.1372 95.6606 52.0581 95.585 51.9874C95.6588 51.9243 95.7259 51.8538 95.7852 51.7769C96.0489 51.4117 96.3188 51.2201 96.5874 51.2073C96.8263 51.1959 97.0148 51.3329 97.0992 51.4078C97.0516 51.8013 97.0515 52.1991 97.099 52.5927C97.0158 52.6668 96.8283 52.8037 96.5906 52.7933C96.3211 52.7818 96.05 52.59 95.7852 52.2232ZM97.2645 54.7297C97.0088 54.8182 96.6856 54.7394 96.3038 54.4956C96.2187 54.4368 96.1271 54.3879 96.0308 54.3501C96.0762 54.2642 96.1126 54.1739 96.1394 54.0806C96.25 53.6447 96.43 53.3679 96.6745 53.258C96.893 53.1596 97.1196 53.2191 97.2258 53.258C97.3268 53.6412 97.4739 54.0108 97.6638 54.3586C97.613 54.458 97.4886 54.6522 97.2646 54.7297H97.2645ZM98.7332 56.3879C98.5343 56.5688 98.2079 56.6241 97.7632 56.5523C97.6617 56.5321 97.5583 56.5237 97.4549 56.5272C97.4625 56.4304 97.46 56.333 97.4475 56.2367C97.3757 55.7913 97.4311 55.4643 97.612 55.2649C97.7733 55.0872 98.004 55.0508 98.1155 55.0441C98.3605 55.356 98.6419 55.6376 98.9537 55.8828C98.9471 55.9949 98.9111 56.2262 98.7334 56.3879H98.7332ZM100.623 57.2918C100.508 57.5353 100.226 57.7101 99.7852 57.8111C99.6836 57.8305 99.5845 57.8616 99.4901 57.9037C99.4607 57.8111 99.4218 57.7218 99.374 57.6373C99.1397 57.2509 99.0678 56.9263 99.1604 56.6729C99.2421 56.449 99.439 56.3286 99.5398 56.2796C99.8847 56.4787 100.252 56.6351 100.635 56.7454C100.671 56.8513 100.724 57.0771 100.623 57.2918H100.623ZM102.795 57.4072C102.783 57.6777 102.591 57.9494 102.223 58.2148C102.137 58.2723 102.058 58.3394 101.987 58.415C101.924 58.3412 101.854 58.2741 101.777 58.2148C101.412 57.9511 101.22 57.6813 101.207 57.4129C101.196 57.1745 101.333 56.9863 101.408 56.9018C101.803 56.9496 102.203 56.9493 102.599 56.901C102.673 56.9855 102.806 57.1717 102.795 57.4072H102.795ZM104.595 57.6514C104.538 57.7375 104.491 57.8299 104.455 57.9268C104.368 57.8829 104.277 57.8481 104.183 57.8229C103.744 57.7198 103.464 57.5442 103.349 57.3012C103.247 57.0858 103.3 56.8601 103.336 56.7534C103.721 56.645 104.091 56.4902 104.437 56.2923C104.538 56.3419 104.734 56.4635 104.814 56.6877C104.906 56.942 104.832 57.2662 104.595 57.6514H104.595ZM106.552 56.2367C106.532 56.3382 106.524 56.4416 106.527 56.545C106.43 56.5374 106.333 56.5399 106.237 56.5523C105.792 56.6241 105.466 56.5687 105.266 56.3879C105.089 56.2263 105.053 55.9952 105.046 55.8831C105.359 55.6365 105.642 55.353 105.888 55.0389C105.999 55.0465 106.226 55.0844 106.385 55.2594C106.568 55.4599 106.625 55.7887 106.552 56.2367H106.552ZM107.792 54.2631C107.811 54.3649 107.841 54.4641 107.882 54.559C107.79 54.5876 107.7 54.6257 107.615 54.6728C107.228 54.9035 106.904 54.9723 106.652 54.8773C106.428 54.7928 106.309 54.5921 106.261 54.4905C106.462 54.1474 106.621 53.7812 106.734 53.3998C106.84 53.3654 107.066 53.3154 107.279 53.4189C107.522 53.5367 107.695 53.8208 107.792 54.2631H107.792ZM108.215 52.2233C107.951 52.5888 107.681 52.7807 107.412 52.7936C107.173 52.8051 106.985 52.669 106.901 52.5945C106.949 52.1986 106.948 51.7984 106.9 51.4025C106.984 51.3285 107.171 51.1944 107.408 51.2056C107.678 51.2175 107.949 51.4098 108.215 51.7771C108.272 51.8631 108.339 51.9423 108.415 52.0129C108.341 52.0759 108.274 52.1464 108.215 52.2232L108.215 52.2233Z" fill="black"/>
<path d="M101.988 50.7888C101.744 50.7888 101.505 50.8612 101.302 50.9968C101.099 51.1324 100.941 51.3252 100.847 51.5507C100.754 51.7762 100.73 52.0244 100.777 52.2638C100.825 52.5032 100.942 52.7231 101.115 52.8957C101.288 53.0683 101.507 53.1859 101.747 53.2335C101.986 53.2811 102.234 53.2567 102.46 53.1633C102.685 53.0699 102.878 52.9117 103.014 52.7087C103.149 52.5058 103.222 52.2672 103.222 52.0231C103.221 51.6958 103.091 51.3821 102.86 51.1507C102.629 50.9193 102.315 50.7892 101.988 50.7888ZM101.988 52.9291C101.808 52.9291 101.633 52.876 101.484 52.7764C101.335 52.6768 101.219 52.5353 101.151 52.3698C101.082 52.2042 101.064 52.022 101.099 51.8462C101.134 51.6705 101.22 51.509 101.347 51.3823C101.474 51.2556 101.635 51.1693 101.811 51.1343C101.987 51.0994 102.169 51.1173 102.334 51.1859C102.5 51.2545 102.641 51.3706 102.741 51.5197C102.841 51.6687 102.894 51.8438 102.894 52.0231C102.893 52.2633 102.798 52.4936 102.628 52.6634C102.458 52.8333 102.228 52.9288 101.988 52.9291Z" fill="black"/>
<path d="M106.282 51.8757C106.217 49.6157 104.373 47.7886 102.112 47.7442C99.9484 47.7017 98.1383 49.2832 97.8202 51.3502C97.8166 51.3736 97.818 51.3976 97.8245 51.4204C97.831 51.4432 97.8423 51.4643 97.8577 51.4823C97.8731 51.5004 97.8922 51.5148 97.9138 51.5248C97.9353 51.5347 97.9587 51.5399 97.9824 51.5399H97.9826C98.0218 51.5399 98.0597 51.5258 98.0894 51.5002C98.1191 51.4746 98.1387 51.4392 98.1445 51.4005C98.1974 51.0575 98.2958 50.7232 98.4371 50.4063L99.401 52.0224L98.4378 53.5964C98.2755 53.2332 98.1698 52.8472 98.1244 52.4519C98.1187 52.4096 98.0966 52.3713 98.063 52.345C98.0294 52.3187 97.9869 52.3065 97.9445 52.3111C97.9021 52.3156 97.8631 52.3364 97.8358 52.3692C97.8085 52.402 97.7951 52.4441 97.7983 52.4867C98.0404 54.6058 99.8445 56.2571 102.027 56.2571C104.416 56.257 106.351 54.2795 106.282 51.8757ZM105.448 50.0728H103.462L102.273 48.0794C102.926 48.1216 103.558 48.3259 104.113 48.674C104.667 49.022 105.126 49.5028 105.448 50.0728ZM104.405 52.2954L105.184 53.6006H103.607L104.405 52.2954ZM103.222 53.6006H100.725L99.7844 52.0245L100.778 50.401H103.275L104.216 51.9772L103.222 53.6006ZM103.658 50.4009H105.18L104.409 51.6609L103.658 50.4009ZM102.043 48.334L103.08 50.0728H100.979L102.043 48.334ZM101.815 48.0774L100.594 50.0728H98.6051C98.9295 49.4974 99.3936 49.0129 99.9546 48.6642C100.516 48.3155 101.155 48.1137 101.815 48.0774ZM98.816 50.4009H100.393L99.5945 51.7061L98.816 50.4009ZM99.591 52.3406L100.343 53.6006H98.8199L99.591 52.3406ZM98.6058 53.9287H100.538L101.724 55.9171C101.081 55.8667 100.461 55.659 99.9167 55.3122C99.3729 54.9655 98.9227 54.4904 98.6057 53.9287H98.6058ZM101.957 55.6675L100.92 53.9287H103.021L101.957 55.6675ZM102.184 55.9255L103.406 53.9287H105.449C105.12 54.5121 104.647 55.0017 104.076 55.3511C103.505 55.7006 102.853 55.8983 102.184 55.9255ZM105.594 53.647L104.599 51.9793L105.593 50.3551C105.832 50.8709 105.956 51.4325 105.956 52.0011C105.956 52.5696 105.833 53.1313 105.594 53.6472V53.647Z" fill="black"/>
<path d="M97.7747 52.1187C97.8345 54.3789 99.6749 56.2101 101.935 56.2595C104.099 56.3069 105.913 54.7294 106.236 52.6632C106.239 52.6398 106.238 52.6158 106.232 52.593C106.225 52.5702 106.214 52.549 106.199 52.531C106.183 52.5129 106.164 52.4984 106.143 52.4884C106.121 52.4784 106.098 52.4732 106.074 52.4731C106.035 52.4731 105.997 52.4871 105.967 52.5126C105.937 52.5381 105.918 52.5735 105.912 52.6122C105.858 52.955 105.759 53.2891 105.617 53.6057L104.656 51.9875L105.623 50.4156C105.785 50.7792 105.889 51.1654 105.934 51.5608C105.94 51.6031 105.962 51.6415 105.995 51.6678C106.029 51.6942 106.071 51.7065 106.114 51.702C106.156 51.6976 106.195 51.6768 106.222 51.6441C106.25 51.6114 106.263 51.5693 106.26 51.5268C106.023 49.4071 104.222 47.7517 102.04 47.7468C99.651 47.7416 97.7112 49.7148 97.7747 52.1187ZM98.6053 53.9235L100.591 53.928L101.776 55.924C101.123 55.8803 100.491 55.6746 99.9372 55.3253C99.3836 54.976 98.9258 54.4942 98.6053 53.9235ZM99.6526 51.7032L98.877 50.3963L100.454 50.3998L99.6526 51.7032ZM100.839 50.4007L103.336 50.4063L104.273 51.9845L103.276 53.6058L100.778 53.6002L99.8417 52.0219L100.839 50.4007ZM100.396 53.5994L98.8738 53.596L99.6477 52.3377L100.396 53.5994ZM102.007 55.6699L100.973 53.9288L103.074 53.9335L102.007 55.6699ZM102.234 55.927L103.459 53.9344L105.448 53.9388C105.122 54.5135 104.657 54.9969 104.095 55.3444C103.534 55.6919 102.893 55.8922 102.234 55.927ZM105.238 53.6102L103.661 53.6067L104.462 52.3034L105.238 53.6102ZM104.467 51.6689L103.718 50.4072L105.241 50.4106L104.467 51.6689ZM105.456 50.0829L103.524 50.0786L102.342 48.0875C102.985 48.1394 103.605 48.3485 104.148 48.6965C104.691 49.0444 105.14 49.5205 105.456 50.0829ZM102.108 48.3367L103.141 50.0777L101.04 50.073L102.108 48.3367ZM101.882 48.0781L100.656 50.0722L98.6125 50.0676C98.943 49.485 99.4167 48.9965 99.9889 48.6483C100.561 48.3001 101.213 48.1039 101.882 48.0781ZM98.4674 50.349L99.4584 52.0189L98.4608 53.6409C98.2228 53.1246 98.1002 52.5626 98.1013 51.9941C98.1025 51.4256 98.2274 50.8643 98.4674 50.349Z" fill="black"/>
</svg>
