<svg width="20" height="25" viewBox="0 0 20 25" fill="none" xmlns="http://www.w3.org/2000/svg">
<g clip-path="url(#clip0)">
<path d="M20 22.7202V23.4954C20 23.8117 19.8946 24.1151 19.7071 24.3387C19.5196 24.5624 19.2652 24.688 19 24.688H17C12.4913 24.688 8.1673 22.5519 4.97918 18.7496C1.79107 14.9472 0 9.79015 0 4.41282L0 2.0275C0 1.71119 0.105357 1.40783 0.292893 1.18416C0.48043 0.960494 0.734784 0.834839 1 0.834839L5 0.834839C5.26522 0.834839 5.51957 0.960494 5.70711 1.18416C5.89464 1.40783 6 1.71119 6 2.0275V6.79814C6 7.46603 5.69 8.36053 5.3 8.82566L3.16 11.378C4.68 15.6715 7.56 19.1064 11.16 20.9192L13.28 18.3908C13.68 17.9137 14.43 17.544 14.98 17.544H19C19.2635 17.5472 19.5153 17.6742 19.7007 17.8975C19.886 18.1209 19.99 18.4224 19.99 18.7367V22.7321L20 22.7202Z" fill="#B29702"/>
</g>
<defs>
<clipPath id="clip0">
<rect width="20" height="23.8532" fill="white" transform="translate(0 0.834839)"/>
</clipPath>
</defs>
</svg>
